{
.appVersion = "1069";
date = "2017-09-17 17:00:05 +0000";
designer = "David van Gemeren";
disablesAutomaticAlignment = 1;
familyName = Fifteen;
fontMaster = (
{
ascender = 1100;
capHeight = 1000;
customParameters = (
{
name = hheaAscender;
value = 1100;
},
{
name = hheaDescender;
value = -400;
},
{
name = hheaLineGap;
value = 0;
},
{
name = typoAscender;
value = 1100;
},
{
name = typoDescender;
value = -400;
},
{
name = typoLineGap;
value = 0;
}
);
descender = -300;
id = "833FD172-3601-4257-8297-A103CE2A393F";
weight = Light;
weightValue = 50;
xHeight = 700;
},
{
ascender = 1100;
capHeight = 1000;
customParameters = (
{
name = hheaAscender;
value = 1100;
},
{
name = hheaDescender;
value = -400;
},
{
name = hheaLineGap;
value = 0;
},
{
name = typoAscender;
value = 1100;
},
{
name = typoDescender;
value = -400;
},
{
name = typoLineGap;
value = 0;
}
);
descender = -300;
id = "926D8932-2CBE-4DA1-A7EC-AA50FD678EE5";
visible = 1;
xHeight = 700;
},
{
ascender = 1100;
capHeight = 1000;
customParameters = (
{
name = hheaAscender;
value = 1100;
},
{
name = hheaDescender;
value = -400;
},
{
name = hheaLineGap;
value = 0;
},
{
name = typoAscender;
value = 1100;
},
{
name = typoDescender;
value = -400;
},
{
name = typoLineGap;
value = 0;
}
);
descender = -300;
id = "DCFDD359-D3A1-4A9B-975E-26381AFB2AA7";
visible = 1;
weight = Bold;
weightValue = 150;
xHeight = 700;
}
);
glyphs = (
{
glyphname = A;
lastChange = "2017-09-27 07:53:03 +0000";
layers = (
{
layerId = "926D8932-2CBE-4DA1-A7EC-AA50FD678EE5";
paths = (
{
closed = 1;
nodes = (
"160 -150 LINE",
"400 730 LINE",
"640 -150 LINE",
"730 -150 LINE",
"470 850 LINE",
"330 850 LINE",
"70 -150 LINE"
);
},
{
closed = 1;
nodes = (
"200 200 LINE",
"600 200 LINE",
"600 300 LINE",
"200 300 LINE"
);
}
);
width = 800;
},
{
layerId = "DCFDD359-D3A1-4A9B-975E-26381AFB2AA7";
paths = (
{
closed = 1;
nodes = (
"400 540 LINE",
"585 -150 LINE",
"750 -150 LINE",
"485 850 LINE",
"315 850 LINE",
"50 -150 LINE",
"215 -150 LINE"
);
},
{
closed = 1;
nodes = (
"300 175 LINE",
"500 175 LINE",
"500 325 LINE",
"300 325 LINE"
);
}
);
width = 800;
},
{
layerId = "833FD172-3601-4257-8297-A103CE2A393F";
width = 600;
}
);
leftKerningGroup = slash;
rightKerningGroup = backslash;
unicode = 0041;
},
{
glyphname = AE;
lastChange = "2017-09-27 19:27:35 +0000";
layers = (
{
layerId = "926D8932-2CBE-4DA1-A7EC-AA50FD678EE5";
paths = (
{
closed = 1;
nodes = (
"700 750 LINE",
"1300 750 LINE",
"1300 850 LINE",
"700 850 LINE"
);
},
{
closed = 1;
nodes = (
"800 -150 LINE",
"1300 -150 LINE",
"1300 -50 LINE",
"800 -50 LINE"
);
},
{
closed = 1;
nodes = (
"800 -50 LINE",
"900 -50 LINE",
"900 750 LINE",
"800 750 LINE"
);
},
{
closed = 1;
nodes = (
"460 300 LINE",
"1200 300 LINE",
"1200 400 LINE",
"460 400 LINE"
);
},
{
closed = 1;
nodes = (
"220 -150 LINE",
"800 850 LINE",
"680 850 LINE",
"100 -150 LINE"
);
}
);
width = 1400;
},
{
layerId = "DCFDD359-D3A1-4A9B-975E-26381AFB2AA7";
paths = (
{
closed = 1;
nodes = (
"700 700 LINE",
"1300 700 LINE",
"1300 850 LINE",
"700 850 LINE"
);
},
{
closed = 1;
nodes = (
"775 -150 LINE",
"1300 -150 LINE",
"1300 0 LINE",
"775 0 LINE"
);
},
{
closed = 1;
nodes = (
"775 -150 LINE",
"925 -150 LINE",
"925 750 LINE",
"775 750 LINE"
);
},
{
closed = 1;
nodes = (
"460 275 LINE",
"1200 275 LINE",
"1200 425 LINE",
"460 425 LINE"
);
},
{
closed = 1;
nodes = (
"280 -150 LINE",
"860 850 LINE",
"680 850 LINE",
"100 -150 LINE"
);
}
);
width = 1400;
},
{
layerId = "833FD172-3601-4257-8297-A103CE2A393F";
width = 600;
}
);
leftKerningGroup = slash;
unicode = 00C6;
},
{
glyphname = B;
lastChange = "2017-09-25 00:55:53 +0000";
layers = (
{
layerId = "926D8932-2CBE-4DA1-A7EC-AA50FD678EE5";
paths = (
{
closed = 1;
nodes = (
"430 300 LINE",
"577 300 OFFCURVE",
"700 423 OFFCURVE",
"700 580 CURVE SMOOTH",
"700 727 OFFCURVE",
"577 850 OFFCURVE",
"430 850 CURVE",
"430 750 LINE",
"522 750 OFFCURVE",
"600 672 OFFCURVE",
"600 580 CURVE SMOOTH",
"600 478 OFFCURVE",
"522 400 OFFCURVE",
"430 400 CURVE"
);
},
{
closed = 1;
nodes = (
"200 -150 LINE",
"300 -150 LINE",
"300 850 LINE",
"200 850 LINE"
);
},
{
closed = 1;
nodes = (
"300 750 LINE",
"430 750 LINE",
"430 850 LINE",
"300 850 LINE"
);
},
{
closed = 1;
nodes = (
"300 -150 LINE",
"530 -150 LINE",
"530 -50 LINE",
"300 -50 LINE"
);
},
{
closed = 1;
nodes = (
"300 300 LINE",
"530 300 LINE",
"530 400 LINE",
"300 400 LINE"
);
},
{
closed = 1;
nodes = (
"530 -150 LINE",
"677 -150 OFFCURVE",
"800 -27 OFFCURVE",
"800 130 CURVE SMOOTH",
"800 277 OFFCURVE",
"677 400 OFFCURVE",
"530 400 CURVE",
"530 300 LINE",
"622 300 OFFCURVE",
"700 222 OFFCURVE",
"700 130 CURVE SMOOTH",
"700 28 OFFCURVE",
"622 -50 OFFCURVE",
"530 -50 CURVE"
);
},
{
closed = 1;
nodes = (
"100 750 LINE",
"200 750 LINE",
"200 850 LINE",
"100 850 LINE"
);
},
{
closed = 1;
nodes = (
"100 -150 LINE",
"200 -150 LINE",
"200 -50 LINE",
"100 -50 LINE"
);
}
);
width = 900;
},
{
layerId = "DCFDD359-D3A1-4A9B-975E-26381AFB2AA7";
paths = (
{
closed = 1;
nodes = (
"325 -150 LINE",
"325 850 LINE",
"175 850 LINE",
"175 -150 LINE"
);
},
{
closed = 1;
nodes = (
"510 -150 LINE",
"510 0 LINE",
"100 0 LINE",
"100 -150 LINE"
);
},
{
closed = 1;
nodes = (
"325 430 LINE",
"510 430 LINE",
"510 270 LINE",
"325 270 LINE"
);
},
{
closed = 1;
nodes = (
"410 700 LINE",
"410 850 LINE",
"100 850 LINE",
"100 700 LINE"
);
},
{
closed = 1;
nodes = (
"670 430 OFFCURVE",
"800 300 OFFCURVE",
"800 140 CURVE SMOOTH",
"800 -20 OFFCURVE",
"670 -150 OFFCURVE",
"510 -150 CURVE",
"510 0 LINE",
"585 0 OFFCURVE",
"645 60 OFFCURVE",
"645 135 CURVE SMOOTH",
"645 210 OFFCURVE",
"585 270 OFFCURVE",
"510 270 CURVE",
"510 430 LINE"
);
},
{
closed = 1;
nodes = (
"410 430 LINE",
"485 430 OFFCURVE",
"545 490 OFFCURVE",
"545 565 CURVE SMOOTH",
"545 640 OFFCURVE",
"485 700 OFFCURVE",
"410 700 CURVE",
"410 850 LINE",
"570 850 OFFCURVE",
"700 720 OFFCURVE",
"700 560 CURVE SMOOTH",
"700 400 OFFCURVE",
"570 320 OFFCURVE",
"410 320 CURVE"
);
}
);
width = 900;
},
{
layerId = "833FD172-3601-4257-8297-A103CE2A393F";
width = 600;
}
);
leftKerningGroup = H;
unicode = 0042;
},
{
glyphname = C;
lastChange = "2017-09-25 03:47:14 +0000";
layers = (
{
layerId = "926D8932-2CBE-4DA1-A7EC-AA50FD678EE5";
paths = (
{
closed = 1;
nodes = (
"100 74 OFFCURVE",
"324 -150 OFFCURVE",
"600 -150 CURVE SMOOTH",
"738 -150 OFFCURVE",
"863 -94 OFFCURVE",
"950 0 CURVE",
"880 70 LINE",
"811 -5 OFFCURVE",
"711 -50 OFFCURVE",
"600 -50 CURVE SMOOTH",
"379 -50 OFFCURVE",
"200 129 OFFCURVE",
"200 350 CURVE SMOOTH",
"200 571 OFFCURVE",
"379 750 OFFCURVE",
"600 750 CURVE SMOOTH",
"711 750 OFFCURVE",
"811 705 OFFCURVE",
"880 630 CURVE",
"950 700 LINE",
"863 794 OFFCURVE",
"738 850 OFFCURVE",
"600 850 CURVE SMOOTH",
"324 850 OFFCURVE",
"100 626 OFFCURVE",
"100 350 CURVE SMOOTH"
);
}
);
width = 1050;
},
{
layerId = "DCFDD359-D3A1-4A9B-975E-26381AFB2AA7";
paths = (
{
closed = 1;
nodes = (
"100 75 OFFCURVE",
"325 -150 OFFCURVE",
"600 -150 CURVE SMOOTH",
"740 -150 OFFCURVE",
"865 -95 OFFCURVE",
"955 -5 CURVE",
"845 105 LINE",
"785 40 OFFCURVE",
"695 0 OFFCURVE",
"600 0 CURVE SMOOTH",
"405 0 OFFCURVE",
"250 155 OFFCURVE",
"250 350 CURVE SMOOTH",
"250 545 OFFCURVE",
"405 700 OFFCURVE",
"600 700 CURVE SMOOTH",
"695 700 OFFCURVE",
"785 660 OFFCURVE",
"845 595 CURVE",
"955 705 LINE",
"865 795 OFFCURVE",
"740 850 OFFCURVE",
"600 850 CURVE SMOOTH",
"325 850 OFFCURVE",
"100 625 OFFCURVE",
"100 350 CURVE SMOOTH"
);
}
);
width = 1050;
},
{
layerId = "833FD172-3601-4257-8297-A103CE2A393F";
width = 600;
}
);
leftKerningGroup = O;
unicode = 0043;
},
{
glyphname = D;
lastChange = "2017-09-25 03:47:01 +0000";
layers = (
{
layerId = "926D8932-2CBE-4DA1-A7EC-AA50FD678EE5";
paths = (
{
closed = 1;
nodes = (
"676 -150 OFFCURVE",
"900 74 OFFCURVE",
"900 350 CURVE SMOOTH",
"900 626 OFFCURVE",
"676 850 OFFCURVE",
"400 850 CURVE",
"400 750 LINE",
"621 750 OFFCURVE",
"800 571 OFFCURVE",
"800 350 CURVE SMOOTH",
"800 129 OFFCURVE",
"621 -50 OFFCURVE",
"400 -50 CURVE",
"400 -150 LINE"
);
},
{
closed = 1;
nodes = (
"200 -150 LINE",
"300 -150 LINE",
"300 850 LINE",
"200 850 LINE"
);
},
{
closed = 1;
nodes = (
"300 750 LINE",
"400 750 LINE",
"400 850 LINE",
"300 850 LINE"
);
},
{
closed = 1;
nodes = (
"300 -150 LINE",
"400 -150 LINE",
"400 -50 LINE",
"300 -50 LINE"
);
},
{
closed = 1;
nodes = (
"100 750 LINE",
"200 750 LINE",
"200 850 LINE",
"100 850 LINE"
);
},
{
closed = 1;
nodes = (
"100 -150 LINE",
"200 -150 LINE",
"200 -50 LINE",
"100 -50 LINE"
);
}
);
width = 1000;
},
{
layerId = "DCFDD359-D3A1-4A9B-975E-26381AFB2AA7";
paths = (
{
closed = 1;
nodes = (
"175 -150 LINE",
"325 -150 LINE",
"325 850 LINE",
"175 850 LINE"
);
},
{
closed = 1;
nodes = (
"100 700 LINE",
"400 700 LINE",
"400 850 LINE",
"100 850 LINE"
);
},
{
closed = 1;
nodes = (
"100 -150 LINE",
"400 -150 LINE",
"400 0 LINE",
"100 0 LINE"
);
},
{
closed = 1;
nodes = (
"675 -150 OFFCURVE",
"900 75 OFFCURVE",
"900 350 CURVE SMOOTH",
"900 625 OFFCURVE",
"675 850 OFFCURVE",
"400 850 CURVE",
"400 700 LINE",
"595 700 OFFCURVE",
"750 545 OFFCURVE",
"750 350 CURVE SMOOTH",
"750 155 OFFCURVE",
"595 0 OFFCURVE",
"400 0 CURVE",
"400 -150 LINE"
);
}
);
width = 1000;
},
{
layerId = "833FD172-3601-4257-8297-A103CE2A393F";
width = 600;
}
);
leftKerningGroup = H;
rightKerningGroup = O;
unicode = 0044;
},
{
glyphname = E;
lastChange = "2017-09-25 00:55:53 +0000";
layers = (
{
layerId = "926D8932-2CBE-4DA1-A7EC-AA50FD678EE5";
paths = (
{
closed = 1;
nodes = (
"100 750 LINE",
"700 750 LINE",
"700 850 LINE",
"100 850 LINE"
);
},
{
closed = 1;
nodes = (
"100 -150 LINE",
"700 -150 LINE",
"700 -50 LINE",
"100 -50 LINE"
);
},
{
closed = 1;
nodes = (
"200 -50 LINE",
"300 -50 LINE",
"300 750 LINE",
"200 750 LINE"
);
},
{
closed = 1;
nodes = (
"600 650 LINE",
"700 650 LINE",
"700 750 LINE",
"600 750 LINE"
);
},
{
closed = 1;
nodes = (
"600 -50 LINE",
"700 -50 LINE",
"700 50 LINE",
"600 50 LINE"
);
},
{
closed = 1;
nodes = (
"300 300 LINE",
"600 300 LINE",
"600 400 LINE",
"300 400 LINE"
);
}
);
width = 800;
},
{
layerId = "DCFDD359-D3A1-4A9B-975E-26381AFB2AA7";
paths = (
{
closed = 1;
nodes = (
"100 700 LINE",
"700 700 LINE",
"700 850 LINE",
"100 850 LINE"
);
},
{
closed = 1;
nodes = (
"100 -150 LINE",
"700 -150 LINE",
"700 0 LINE",
"100 0 LINE"
);
},
{
closed = 1;
nodes = (
"175 0 LINE",
"325 0 LINE",
"325 700 LINE",
"175 700 LINE"
);
},
{
closed = 1;
nodes = (
"550 600 LINE",
"700 600 LINE",
"700 700 LINE",
"550 700 LINE"
);
},
{
closed = 1;
nodes = (
"550 0 LINE",
"700 0 LINE",
"700 100 LINE",
"550 100 LINE"
);
},
{
closed = 1;
nodes = (
"325 275 LINE",
"600 275 LINE",
"600 425 LINE",
"325 425 LINE"
);
}
);
width = 800;
},
{
layerId = "833FD172-3601-4257-8297-A103CE2A393F";
width = 600;
}
);
leftKerningGroup = H;
rightKerningGroup = H;
unicode = 0045;
},
{
glyphname = F;
lastChange = "2017-09-25 00:55:53 +0000";
layers = (
{
layerId = "926D8932-2CBE-4DA1-A7EC-AA50FD678EE5";
paths = (
{
closed = 1;
nodes = (
"100 750 LINE",
"700 750 LINE",
"700 850 LINE",
"100 850 LINE"
);
},
{
closed = 1;
nodes = (
"100 -150 LINE",
"400 -150 LINE",
"400 -50 LINE",
"100 -50 LINE"
);
},
{
closed = 1;
nodes = (
"200 -50 LINE",
"300 -50 LINE",
"300 750 LINE",
"200 750 LINE"
);
},
{
closed = 1;
nodes = (
"600 650 LINE",
"700 650 LINE",
"700 750 LINE",
"600 750 LINE"
);
},
{
closed = 1;
nodes = (
"300 300 LINE",
"600 300 LINE",
"600 400 LINE",
"300 400 LINE"
);
}
);
width = 800;
},
{
layerId = "DCFDD359-D3A1-4A9B-975E-26381AFB2AA7";
paths = (
{
closed = 1;
nodes = (
"100 700 LINE",
"700 700 LINE",
"700 850 LINE",
"100 850 LINE"
);
},
{
closed = 1;
nodes = (
"100 -150 LINE",
"400 -150 LINE",
"400 0 LINE",
"100 0 LINE"
);
},
{
closed = 1;
nodes = (
"175 0 LINE",
"325 0 LINE",
"325 700 LINE",
"175 700 LINE"
);
},
{
closed = 1;
nodes = (
"550 600 LINE",
"700 600 LINE",
"700 700 LINE",
"550 700 LINE"
);
},
{
closed = 1;
nodes = (
"325 275 LINE",
"600 275 LINE",
"600 425 LINE",
"325 425 LINE"
);
}
);
width = 800;
},
{
layerId = "833FD172-3601-4257-8297-A103CE2A393F";
width = 600;
}
);
leftKerningGroup = H;
unicode = 0046;
},
{
glyphname = G;
lastChange = "2017-09-25 03:10:02 +0000";
layers = (
{
layerId = "926D8932-2CBE-4DA1-A7EC-AA50FD678EE5";
paths = (
{
closed = 1;
nodes = (
"100 74 OFFCURVE",
"324 -150 OFFCURVE",
"600 -150 CURVE SMOOTH",
"876 -150 OFFCURVE",
"1100 74 OFFCURVE",
"1100 350 CURVE",
"1000 350 LINE",
"1000 129 OFFCURVE",
"821 -50 OFFCURVE",
"600 -50 CURVE SMOOTH",
"379 -50 OFFCURVE",
"200 129 OFFCURVE",
"200 350 CURVE SMOOTH",
"200 571 OFFCURVE",
"379 750 OFFCURVE",
"600 750 CURVE SMOOTH",
"711 750 OFFCURVE",
"811 705 OFFCURVE",
"880 630 CURVE",
"950 700 LINE",
"863 794 OFFCURVE",
"738 850 OFFCURVE",
"600 850 CURVE SMOOTH",
"324 850 OFFCURVE",
"100 626 OFFCURVE",
"100 350 CURVE SMOOTH"
);
},
{
closed = 1;
nodes = (
"600 350 LINE",
"1100 350 LINE",
"1100 400 LINE",
"600 400 LINE"
);
},
{
closed = 1;
nodes = (
"600 300 LINE",
"1010 300 LINE",
"1010 350 LINE",
"600 350 LINE"
);
}
);
width = 1200;
},
{
layerId = "DCFDD359-D3A1-4A9B-975E-26381AFB2AA7";
paths = (
{
closed = 1;
nodes = (
"100 75 OFFCURVE",
"325 -150 OFFCURVE",
"600 -150 CURVE SMOOTH",
"875 -150 OFFCURVE",
"1100 75 OFFCURVE",
"1100 350 CURVE",
"950 350 LINE",
"950 155 OFFCURVE",
"795 0 OFFCURVE",
"600 0 CURVE SMOOTH",
"405 0 OFFCURVE",
"250 155 OFFCURVE",
"250 350 CURVE SMOOTH",
"250 545 OFFCURVE",
"405 700 OFFCURVE",
"600 700 CURVE SMOOTH",
"695 700 OFFCURVE",
"785 660 OFFCURVE",
"845 600 CURVE",
"950 705 LINE",
"860 795 OFFCURVE",
"735 850 OFFCURVE",
"600 850 CURVE SMOOTH",
"325 850 OFFCURVE",
"100 625 OFFCURVE",
"100 350 CURVE SMOOTH"
);
},
{
closed = 1;
nodes = (
"600 275 LINE",
"1000 275 LINE",
"1000 350 LINE",
"600 350 LINE"
);
},
{
closed = 1;
nodes = (
"600 350 LINE",
"1100 350 LINE",
"1100 425 LINE",
"600 425 LINE"
);
}
);
width = 1200;
},
{
layerId = "833FD172-3601-4257-8297-A103CE2A393F";
width = 600;
}
);
leftKerningGroup = O;
rightKerningGroup = O;
unicode = 0047;
},
{
glyphname = H;
lastChange = "2017-09-25 00:55:53 +0000";
layers = (
{
layerId = "926D8932-2CBE-4DA1-A7EC-AA50FD678EE5";
paths = (
{
closed = 1;
nodes = (
"100 750 LINE",
"400 750 LINE",
"400 850 LINE",
"100 850 LINE"
);
},
{
closed = 1;
nodes = (
"300 300 LINE",
"700 300 LINE",
"700 400 LINE",
"300 400 LINE"
);
},
{
closed = 1;
nodes = (
"200 -50 LINE",
"300 -50 LINE",
"300 750 LINE",
"200 750 LINE"
);
},
{
closed = 1;
nodes = (
"100 -150 LINE",
"400 -150 LINE",
"400 -50 LINE",
"100 -50 LINE"
);
},
{
closed = 1;
nodes = (
"600 750 LINE",
"900 750 LINE",
"900 850 LINE",
"600 850 LINE"
);
},
{
closed = 1;
nodes = (
"700 -50 LINE",
"800 -50 LINE",
"800 750 LINE",
"700 750 LINE"
);
},
{
closed = 1;
nodes = (
"600 -150 LINE",
"900 -150 LINE",
"900 -50 LINE",
"600 -50 LINE"
);
}
);
width = 1000;
},
{
layerId = "DCFDD359-D3A1-4A9B-975E-26381AFB2AA7";
paths = (
{
closed = 1;
nodes = (
"100 700 LINE",
"400 700 LINE",
"400 850 LINE",
"100 850 LINE"
);
},
{
closed = 1;
nodes = (
"325 275 LINE",
"675 275 LINE",
"675 425 LINE",
"325 425 LINE"
);
},
{
closed = 1;
nodes = (
"175 0 LINE",
"325 0 LINE",
"325 700 LINE",
"175 700 LINE"
);
},
{
closed = 1;
nodes = (
"100 -150 LINE",
"400 -150 LINE",
"400 0 LINE",
"100 0 LINE"
);
},
{
closed = 1;
nodes = (
"600 700 LINE",
"900 700 LINE",
"900 850 LINE",
"600 850 LINE"
);
},
{
closed = 1;
nodes = (
"675 0 LINE",
"825 0 LINE",
"825 700 LINE",
"675 700 LINE"
);
},
{
closed = 1;
nodes = (
"600 -150 LINE",
"900 -150 LINE",
"900 0 LINE",
"600 0 LINE"
);
}
);
width = 1000;
},
{
layerId = "833FD172-3601-4257-8297-A103CE2A393F";
width = 600;
}
);
leftKerningGroup = H;
rightKerningGroup = H;
unicode = 0048;
},
{
glyphname = Hbar;
lastChange = "2017-09-26 17:28:04 +0000";
layers = (
{
layerId = "926D8932-2CBE-4DA1-A7EC-AA50FD678EE5";
paths = (
{
closed = 1;
nodes = (
"300 300 LINE",
"700 300 LINE",
"700 400 LINE",
"300 400 LINE"
);
},
{
closed = 1;
nodes = (
"200 -50 LINE",
"300 -50 LINE",
"300 850 LINE",
"200 850 LINE"
);
},
{
closed = 1;
nodes = (
"100 -150 LINE",
"400 -150 LINE",
"400 -50 LINE",
"100 -50 LINE"
);
},
{
closed = 1;
nodes = (
"700 -50 LINE",
"800 -50 LINE",
"800 850 LINE",
"700 850 LINE"
);
},
{
closed = 1;
nodes = (
"600 -150 LINE",
"900 -150 LINE",
"900 -50 LINE",
"600 -50 LINE"
);
},
{
closed = 1;
nodes = (
"100 600 LINE",
"900 600 LINE",
"900 700 LINE",
"100 700 LINE"
);
}
);
width = 1000;
},
{
layerId = "DCFDD359-D3A1-4A9B-975E-26381AFB2AA7";
width = 600;
},
{
layerId = "833FD172-3601-4257-8297-A103CE2A393F";
width = 600;
}
);
unicode = 0126;
},
{
glyphname = I;
lastChange = "2017-09-25 00:57:11 +0000";
layers = (
{
hints = (
{
horizontal = 1;
origin = "{2, 0}";
target = "{2, 3}";
},
{
horizontal = 1;
origin = "{1, 0}";
target = "{1, 3}";
},
{
origin = "{0, 0}";
target = "{0, 1}";
}
);
layerId = "926D8932-2CBE-4DA1-A7EC-AA50FD678EE5";
paths = (
{
closed = 1;
nodes = (
"200 -150 LINE",
"300 -150 LINE",
"300 850 LINE",
"200 850 LINE"
);
},
{
closed = 1;
nodes = (
"100 750 LINE",
"400 750 LINE",
"400 850 LINE",
"100 850 LINE"
);
},
{
closed = 1;
nodes = (
"100 -150 LINE",
"400 -150 LINE",
"400 -50 LINE",
"100 -50 LINE"
);
}
);
width = 500;
},
{
layerId = "DCFDD359-D3A1-4A9B-975E-26381AFB2AA7";
paths = (
{
closed = 1;
nodes = (
"175 -150 LINE",
"325 -150 LINE",
"325 850 LINE",
"175 850 LINE"
);
},
{
closed = 1;
nodes = (
"100 700 LINE",
"400 700 LINE",
"400 850 LINE",
"100 850 LINE"
);
},
{
closed = 1;
nodes = (
"100 -150 LINE",
"400 -150 LINE",
"400 0 LINE",
"100 0 LINE"
);
}
);
width = 500;
},
{
layerId = "833FD172-3601-4257-8297-A103CE2A393F";
paths = (
{
closed = 1;
nodes = (
"225 -150 LINE",
"275 -150 LINE",
"275 850 LINE",
"225 850 LINE"
);
},
{
closed = 1;
nodes = (
"100 800 LINE",
"400 800 LINE",
"400 850 LINE",
"100 850 LINE"
);
},
{
closed = 1;
nodes = (
"100 -150 LINE",
"400 -150 LINE",
"400 -100 LINE",
"100 -100 LINE"
);
}
);
width = 500;
}
);
leftKerningGroup = H;
rightKerningGroup = H;
unicode = 0049;
},
{
glyphname = IJ;
lastChange = "2017-09-25 00:58:25 +0000";
layers = (
{
components = (
{
name = I;
}
);
layerId = "926D8932-2CBE-4DA1-A7EC-AA50FD678EE5";
paths = (
{
closed = 1;
nodes = (
"700 150 LINE",
"800 150 LINE",
"800 850 LINE",
"700 850 LINE"
);
},
{
closed = 1;
nodes = (
"500 750 LINE",
"800 750 LINE",
"800 850 LINE",
"500 850 LINE"
);
},
{
closed = 1;
nodes = (
"500 -50 LINE",
"610 -50 OFFCURVE",
"700 40 OFFCURVE",
"700 150 CURVE",
"800 150 LINE",
"800 -16 OFFCURVE",
"666 -150 OFFCURVE",
"500 -150 CURVE"
);
}
);
width = 900;
},
{
layerId = "DCFDD359-D3A1-4A9B-975E-26381AFB2AA7";
width = 600;
},
{
layerId = "833FD172-3601-4257-8297-A103CE2A393F";
width = 600;
}
);
unicode = 0132;
},
{
glyphname = J;
lastChange = "2017-09-25 07:57:47 +0000";
layers = (
{
layerId = "926D8932-2CBE-4DA1-A7EC-AA50FD678EE5";
paths = (
{
closed = 1;
nodes = (
"500 350 LINE",
"600 350 LINE",
"600 850 LINE",
"500 850 LINE"
);
},
{
closed = 1;
nodes = (
"400 750 LINE",
"600 750 LINE",
"600 850 LINE",
"400 850 LINE"
);
},
{
closed = 1;
nodes = (
"100 -150 LINE",
"100 -150 OFFCURVE",
"100 -150 OFFCURVE",
"100 -150 CURVE SMOOTH",
"380 -150 OFFCURVE",
"600 70 OFFCURVE",
"600 350 CURVE",
"500 350 LINE",
"500 130 OFFCURVE",
"320 -50 OFFCURVE",
"100 -50 CURVE SMOOTH",
"100 -50 OFFCURVE",
"100 -50 OFFCURVE",
"100 -50 CURVE"
);
}
);
width = 700;
},
{
layerId = "DCFDD359-D3A1-4A9B-975E-26381AFB2AA7";
paths = (
{
closed = 1;
nodes = (
"100 -150 LINE",
"100 -150 OFFCURVE",
"100 -150 OFFCURVE",
"100 -150 CURVE SMOOTH",
"375 -150 OFFCURVE",
"600 75 OFFCURVE",
"600 350 CURVE",
"450 350 LINE",
"450 155 OFFCURVE",
"295 0 OFFCURVE",
"100 0 CURVE SMOOTH",
"100 0 OFFCURVE",
"100 0 OFFCURVE",
"100 0 CURVE"
);
},
{
closed = 1;
nodes = (
"450 350 LINE",
"600 350 LINE",
"600 850 LINE",
"450 850 LINE"
);
},
{
closed = 1;
nodes = (
"325 700 LINE",
"450 700 LINE",
"450 850 LINE",
"325 850 LINE"
);
}
);
width = 700;
},
{
layerId = "833FD172-3601-4257-8297-A103CE2A393F";
width = 600;
}
);
leftKerningGroup = slash;
unicode = 004A;
},
{
glyphname = K;
lastChange = "2017-09-25 07:11:47 +0000";
layers = (
{
layerId = "926D8932-2CBE-4DA1-A7EC-AA50FD678EE5";
paths = (
{
closed = 1;
nodes = (
"100 -150 LINE",
"200 -150 LINE",
"200 850 LINE",
"100 850 LINE"
);
},
{
closed = 1;
nodes = (
"630 -150 LINE",
"770 -150 LINE",
"270 350 LINE",
"770 850 LINE",
"630 850 LINE",
"130 350 LINE"
);
}
);
width = 850;
},
{
layerId = "DCFDD359-D3A1-4A9B-975E-26381AFB2AA7";
paths = (
{
closed = 1;
nodes = (
"100 -150 LINE",
"250 -150 LINE",
"250 850 LINE",
"100 850 LINE"
);
},
{
closed = 1;
nodes = (
"630 -150 LINE",
"840 -150 LINE",
"340 350 LINE",
"840 850 LINE",
"630 850 LINE",
"130 350 LINE"
);
}
);
width = 850;
},
{
layerId = "833FD172-3601-4257-8297-A103CE2A393F";
width = 600;
}
);
leftKerningGroup = l;
rightKerningGroup = X;
unicode = 004B;
},
{
glyphname = L;
lastChange = "2017-09-25 00:55:53 +0000";
layers = (
{
layerId = "926D8932-2CBE-4DA1-A7EC-AA50FD678EE5";
paths = (
{
closed = 1;
nodes = (
"100 750 LINE",
"400 750 LINE",
"400 850 LINE",
"100 850 LINE"
);
},
{
closed = 1;
nodes = (
"100 -150 LINE",
"700 -150 LINE",
"700 -50 LINE",
"100 -50 LINE"
);
},
{
closed = 1;
nodes = (
"200 -50 LINE",
"300 -50 LINE",
"300 750 LINE",
"200 750 LINE"
);
},
{
closed = 1;
nodes = (
"600 -50 LINE",
"700 -50 LINE",
"700 50 LINE",
"600 50 LINE"
);
}
);
width = 800;
},
{
layerId = "DCFDD359-D3A1-4A9B-975E-26381AFB2AA7";
paths = (
{
closed = 1;
nodes = (
"100 700 LINE",
"400 700 LINE",
"400 850 LINE",
"100 850 LINE"
);
},
{
closed = 1;
nodes = (
"100 -150 LINE",
"700 -150 LINE",
"700 0 LINE",
"100 0 LINE"
);
},
{
closed = 1;
nodes = (
"175 0 LINE",
"325 0 LINE",
"325 700 LINE",
"175 700 LINE"
);
},
{
closed = 1;
nodes = (
"550 0 LINE",
"700 0 LINE",
"700 100 LINE",
"550 100 LINE"
);
}
);
width = 800;
},
{
layerId = "833FD172-3601-4257-8297-A103CE2A393F";
width = 600;
}
);
leftKerningGroup = H;
rightKerningGroup = backslash;
unicode = 004C;
},
{
glyphname = Lslash;
lastChange = "2017-09-28 19:53:34 +0000";
layers = (
{
components = (
{
name = L;
}
);
layerId = "926D8932-2CBE-4DA1-A7EC-AA50FD678EE5";
paths = (
{
closed = 1;
nodes = (
"120 240 LINE",
"600 370 LINE",
"580 460 LINE",
"100 330 LINE"
);
}
);
width = 800;
},
{
components = (
{
name = L;
}
);
layerId = "DCFDD359-D3A1-4A9B-975E-26381AFB2AA7";
paths = (
{
closed = 1;
nodes = (
"125 220 LINE",
"605 350 LINE",
"575 485 LINE",
"95 355 LINE"
);
}
);
width = 800;
},
{
layerId = "833FD172-3601-4257-8297-A103CE2A393F";
width = 600;
}
);
unicode = 0141;
},
{
glyphname = M;
lastChange = "2017-09-25 03:33:42 +0000";
layers = (
{
layerId = "926D8932-2CBE-4DA1-A7EC-AA50FD678EE5";
paths = (
{
closed = 1;
nodes = (
"100 -150 LINE",
"200 -150 LINE",
"200 850 LINE",
"100 850 LINE"
);
},
{
closed = 1;
nodes = (
"900 850 LINE",
"900 -150 LINE",
"1000 -150 LINE",
"1000 850 LINE"
);
},
{
closed = 1;
nodes = (
"490 180 LINE",
"550 75 LINE",
"610 180 LINE",
"1000 850 LINE",
"880 850 LINE",
"550 280 LINE",
"220 850 LINE",
"100 850 LINE"
);
}
);
width = 1100;
},
{
layerId = "DCFDD359-D3A1-4A9B-975E-26381AFB2AA7";
paths = (
{
closed = 1;
nodes = (
"100 -150 LINE",
"250 -150 LINE",
"250 800 LINE",
"245 850 LINE",
"100 850 LINE"
);
},
{
closed = 1;
nodes = (
"855 850 LINE",
"850 801 LINE",
"850 -150 LINE",
"1000 -150 LINE",
"1000 850 LINE"
);
},
{
closed = 1;
nodes = (
"465 175 LINE",
"550 30 LINE",
"635 175 LINE",
"1000 805 LINE",
"1000 850 LINE",
"855 850 LINE",
"550 325 LINE",
"245 850 LINE",
"100 850 LINE",
"100 805 LINE"
);
}
);
width = 1100;
},
{
layerId = "833FD172-3601-4257-8297-A103CE2A393F";
width = 600;
}
);
leftKerningGroup = l;
rightKerningGroup = l;
unicode = 004D;
},
{
glyphname = N;
lastChange = "2017-09-25 03:30:46 +0000";
layers = (
{
layerId = "926D8932-2CBE-4DA1-A7EC-AA50FD678EE5";
paths = (
{
closed = 1;
nodes = (
"100 -150 LINE",
"200 -150 LINE",
"200 850 LINE",
"100 850 LINE"
);
},
{
closed = 1;
nodes = (
"700 -150 LINE",
"800 -150 LINE",
"800 850 LINE",
"700 850 LINE"
);
},
{
closed = 1;
nodes = (
"100 850 LINE",
"680 -150 LINE",
"800 -150 LINE",
"220 850 LINE"
);
}
);
width = 900;
},
{
layerId = "DCFDD359-D3A1-4A9B-975E-26381AFB2AA7";
paths = (
{
closed = 1;
nodes = (
"100 850 LINE",
"100 -150 LINE",
"250 -150 LINE",
"250 535 LINE",
"645 -150 LINE",
"800 -150 LINE",
"800 850 LINE",
"650 850 LINE",
"650 165 LINE",
"255 850 LINE"
);
}
);
width = 900;
},
{
layerId = "833FD172-3601-4257-8297-A103CE2A393F";
width = 600;
}
);
leftKerningGroup = l;
rightKerningGroup = l;
unicode = 004E;
},
{
glyphname = Eng;
lastChange = "2017-09-25 00:58:25 +0000";
layers = (
{
layerId = "926D8932-2CBE-4DA1-A7EC-AA50FD678EE5";
paths = (
{
closed = 1;
nodes = (
"566 -400 OFFCURVE",
"700 -266 OFFCURVE",
"700 -100 CURVE",
"600 -100 LINE",
"600 -210 OFFCURVE",
"510 -300 OFFCURVE",
"400 -300 CURVE",
"400 -400 LINE"
);
},
{
closed = 1;
nodes = (
"100 -150 LINE",
"200 -150 LINE",
"200 640 LINE",
"600 -150 LINE",
"700 -100 LINE",
"700 850 LINE",
"600 850 LINE",
"600 60 LINE",
"200 850 LINE",
"100 850 LINE"
);
}
);
width = 800;
},
{
layerId = "DCFDD359-D3A1-4A9B-975E-26381AFB2AA7";
width = 600;
},
{
layerId = "833FD172-3601-4257-8297-A103CE2A393F";
width = 600;
}
);
unicode = 014A;
},
{
glyphname = OE;
lastChange = "2017-09-27 08:49:09 +0000";
layers = (
{
layerId = "926D8932-2CBE-4DA1-A7EC-AA50FD678EE5";
paths = (
{
closed = 1;
nodes = (
"876 -150 OFFCURVE",
"1100 74 OFFCURVE",
"1100 350 CURVE SMOOTH",
"1100 626 OFFCURVE",
"876 850 OFFCURVE",
"600 850 CURVE SMOOTH",
"324 850 OFFCURVE",
"100 626 OFFCURVE",
"100 350 CURVE SMOOTH",
"100 74 OFFCURVE",
"324 -150 OFFCURVE",
"600 -150 CURVE SMOOTH"
);
},
{
closed = 1;
nodes = (
"379 -50 OFFCURVE",
"200 129 OFFCURVE",
"200 350 CURVE SMOOTH",
"200 571 OFFCURVE",
"379 750 OFFCURVE",
"600 750 CURVE SMOOTH",
"821 750 OFFCURVE",
"1000 571 OFFCURVE",
"1000 350 CURVE SMOOTH",
"1000 129 OFFCURVE",
"821 -50 OFFCURVE",
"600 -50 CURVE SMOOTH"
);
},
{
closed = 1;
nodes = (
"1000 750 LINE",
"1500 750 LINE",
"1500 850 LINE",
"1000 850 LINE"
);
},
{
closed = 1;
nodes = (
"1000 -150 LINE",
"1500 -150 LINE",
"1500 -50 LINE",
"1000 -50 LINE"
);
},
{
closed = 1;
nodes = (
"1000 -50 LINE",
"1100 -50 LINE",
"1100 750 LINE",
"1000 750 LINE"
);
},
{
closed = 1;
nodes = (
"1100 300 LINE",
"1400 300 LINE",
"1400 400 LINE",
"1100 400 LINE"
);
}
);
width = 1600;
},
{
components = (
{
name = O;
}
);
layerId = "DCFDD359-D3A1-4A9B-975E-26381AFB2AA7";
paths = (
{
closed = 1;
nodes = (
"975 700 LINE",
"1500 700 LINE",
"1500 850 LINE",
"975 850 LINE"
);
},
{
closed = 1;
nodes = (
"975 -150 LINE",
"1500 -150 LINE",
"1500 0 LINE",
"975 0 LINE"
);
},
{
closed = 1;
nodes = (
"975 0 LINE",
"1125 0 LINE",
"1125 700 LINE",
"975 700 LINE"
);
},
{
closed = 1;
nodes = (
"1125 275 LINE",
"1400 275 LINE",
"1400 425 LINE",
"1125 425 LINE"
);
}
);
width = 1600;
},
{
layerId = "833FD172-3601-4257-8297-A103CE2A393F";
width = 600;
}
);
leftKerningGroup = O;
unicode = 0152;
},
{
glyphname = P;
lastChange = "2017-09-25 00:55:53 +0000";
layers = (
{
layerId = "926D8932-2CBE-4DA1-A7EC-AA50FD678EE5";
paths = (
{
closed = 1;
nodes = (
"530 300 LINE",
"677 300 OFFCURVE",
"800 423 OFFCURVE",
"800 580 CURVE SMOOTH",
"800 727 OFFCURVE",
"677 850 OFFCURVE",
"530 850 CURVE",
"530 750 LINE",
"622 750 OFFCURVE",
"700 672 OFFCURVE",
"700 580 CURVE SMOOTH",
"700 478 OFFCURVE",
"622 400 OFFCURVE",
"530 400 CURVE"
);
},
{
closed = 1;
nodes = (
"200 -150 LINE",
"300 -150 LINE",
"300 850 LINE",
"200 850 LINE"
);
},
{
closed = 1;
nodes = (
"100 750 LINE",
"530 750 LINE",
"530 850 LINE",
"100 850 LINE"
);
},
{
closed = 1;
nodes = (
"300 300 LINE",
"530 300 LINE",
"530 400 LINE",
"300 400 LINE"
);
},
{
closed = 1;
nodes = (
"100 -150 LINE",
"400 -150 LINE",
"400 -50 LINE",
"100 -50 LINE"
);
}
);
width = 900;
},
{
layerId = "DCFDD359-D3A1-4A9B-975E-26381AFB2AA7";
paths = (
{
closed = 1;
nodes = (
"175 -150 LINE",
"325 -150 LINE",
"325 850 LINE",
"175 850 LINE"
);
},
{
closed = 1;
nodes = (
"100 700 LINE",
"510 700 LINE",
"510 850 LINE",
"100 850 LINE"
);
},
{
closed = 1;
nodes = (
"325 270 LINE",
"510 270 LINE",
"510 430 LINE",
"325 430 LINE"
);
},
{
closed = 1;
nodes = (
"100 -150 LINE",
"400 -150 LINE",
"400 0 LINE",
"100 0 LINE"
);
},
{
closed = 1;
nodes = (
"510 430 LINE",
"585 430 OFFCURVE",
"645 490 OFFCURVE",
"645 565 CURVE SMOOTH",
"645 640 OFFCURVE",
"585 700 OFFCURVE",
"510 700 CURVE",
"510 850 LINE",
"670 850 OFFCURVE",
"800 720 OFFCURVE",
"800 560 CURVE SMOOTH",
"800 400 OFFCURVE",
"670 270 OFFCURVE",
"510 270 CURVE"
);
}
);
width = 900;
},
{
layerId = "833FD172-3601-4257-8297-A103CE2A393F";
width = 600;
}
);
leftKerningGroup = H;
unicode = 0050;
},
{
glyphname = Thorn;
lastChange = "2017-09-27 08:40:17 +0000";
layers = (
{
layerId = "926D8932-2CBE-4DA1-A7EC-AA50FD678EE5";
paths = (
{
closed = 1;
nodes = (
"100 -150 LINE",
"200 -150 LINE",
"200 850 LINE",
"100 850 LINE"
);
},
{
closed = 1;
nodes = (
"200 550 LINE",
"400 550 LINE",
"400 650 LINE",
"200 650 LINE"
);
},
{
closed = 1;
nodes = (
"200 50 LINE",
"400 50 LINE",
"400 150 LINE",
"200 150 LINE"
);
},
{
closed = 1;
nodes = (
"400 150 LINE",
"510 150 OFFCURVE",
"600 240 OFFCURVE",
"600 350 CURVE SMOOTH",
"600 460 OFFCURVE",
"510 550 OFFCURVE",
"400 550 CURVE",
"400 650 LINE",
"567 650 OFFCURVE",
"700 516 OFFCURVE",
"700 350 CURVE SMOOTH",
"700 184 OFFCURVE",
"566 50 OFFCURVE",
"400 50 CURVE"
);
}
);
width = 800;
},
{
layerId = "DCFDD359-D3A1-4A9B-975E-26381AFB2AA7";
paths = (
{
closed = 1;
nodes = (
"100 -150 LINE",
"250 -150 LINE",
"250 850 LINE",
"100 850 LINE"
);
},
{
closed = 1;
nodes = (
"250 500 LINE",
"400 500 LINE",
"400 650 LINE",
"250 650 LINE"
);
},
{
closed = 1;
nodes = (
"250 50 LINE",
"400 50 LINE",
"400 200 LINE",
"250 200 LINE"
);
},
{
closed = 1;
nodes = (
"400 200 LINE",
"485 200 OFFCURVE",
"550 265 OFFCURVE",
"550 350 CURVE SMOOTH",
"550 435 OFFCURVE",
"485 500 OFFCURVE",
"400 500 CURVE",
"400 650 LINE",
"565 650 OFFCURVE",
"700 515 OFFCURVE",
"700 350 CURVE SMOOTH",
"700 185 OFFCURVE",
"565 50 OFFCURVE",
"400 50 CURVE"
);
}
);
width = 800;
},
{
layerId = "833FD172-3601-4257-8297-A103CE2A393F";
width = 600;
}
);
unicode = 00DE;
},
{
glyphname = Q;
lastChange = "2017-09-25 03:51:05 +0000";
layers = (
{
layerId = "926D8932-2CBE-4DA1-A7EC-AA50FD678EE5";
paths = (
{
closed = 1;
nodes = (
"876 -150 OFFCURVE",
"1100 74 OFFCURVE",
"1100 350 CURVE SMOOTH",
"1100 626 OFFCURVE",
"876 850 OFFCURVE",
"600 850 CURVE SMOOTH",
"324 850 OFFCURVE",
"100 626 OFFCURVE",
"100 350 CURVE SMOOTH",
"100 74 OFFCURVE",
"324 -150 OFFCURVE",
"600 -150 CURVE SMOOTH"
);
},
{
closed = 1;
nodes = (
"379 -50 OFFCURVE",
"200 129 OFFCURVE",
"200 350 CURVE SMOOTH",
"200 571 OFFCURVE",
"379 750 OFFCURVE",
"600 750 CURVE SMOOTH",
"821 750 OFFCURVE",
"1000 571 OFFCURVE",
"1000 350 CURVE SMOOTH",
"1000 129 OFFCURVE",
"821 -50 OFFCURVE",
"600 -50 CURVE SMOOTH"
);
},
{
closed = 1;
nodes = (
"680 200 LINE",
"940 -250 LINE",
"1060 -250 LINE",
"800 200 LINE"
);
}
);
width = 1200;
},
{
components = (
{
name = _circle_10;
}
);
layerId = "DCFDD359-D3A1-4A9B-975E-26381AFB2AA7";
paths = (
{
closed = 1;
nodes = (
"650 200 LINE",
"910 -250 LINE",
"1060 -250 LINE",
"800 200 LINE"
);
}
);
width = 1200;
},
{
layerId = "833FD172-3601-4257-8297-A103CE2A393F";
width = 600;
}
);
leftKerningGroup = O;
rightKerningGroup = O;
unicode = 0051;
},
{
glyphname = R;
lastChange = "2017-09-25 02:06:57 +0000";
layers = (
{
layerId = "926D8932-2CBE-4DA1-A7EC-AA50FD678EE5";
paths = (
{
closed = 1;
nodes = (
"300 -150 LINE",
"300 850 LINE",
"200 850 LINE",
"200 -150 LINE"
);
},
{
closed = 1;
nodes = (
"530 750 LINE",
"530 850 LINE",
"300 850 LINE",
"300 750 LINE"
);
},
{
closed = 1;
nodes = (
"530 300 LINE",
"530 400 LINE",
"300 400 LINE",
"300 300 LINE"
);
},
{
closed = 1;
nodes = (
"622 750 OFFCURVE",
"700 672 OFFCURVE",
"700 570 CURVE SMOOTH",
"700 478 OFFCURVE",
"622 400 OFFCURVE",
"530 400 CURVE",
"530 300 LINE",
"677 300 OFFCURVE",
"800 423 OFFCURVE",
"800 570 CURVE SMOOTH",
"800 727 OFFCURVE",
"677 850 OFFCURVE",
"530 850 CURVE",
"530 750 LINE"
);
},
{
closed = 1;
nodes = (
"680 -150 LINE",
"800 -150 LINE",
"480 400 LINE",
"360 400 LINE"
);
},
{
closed = 1;
nodes = (
"100 750 LINE",
"200 750 LINE",
"200 850 LINE",
"100 850 LINE"
);
},
{
closed = 1;
nodes = (
"100 -150 LINE",
"400 -150 LINE",
"400 -50 LINE",
"100 -50 LINE"
);
}
);
width = 900;
},
{
layerId = "DCFDD359-D3A1-4A9B-975E-26381AFB2AA7";
paths = (
{
closed = 1;
nodes = (
"175 -150 LINE",
"325 -150 LINE",
"325 850 LINE",
"175 850 LINE"
);
},
{
closed = 1;
nodes = (
"100 700 LINE",
"510 700 LINE",
"510 850 LINE",
"100 850 LINE"
);
},
{
closed = 1;
nodes = (
"325 270 LINE",
"510 270 LINE",
"510 430 LINE",
"325 430 LINE"
);
},
{
closed = 1;
nodes = (
"100 -150 LINE",
"400 -150 LINE",
"400 0 LINE",
"100 0 LINE"
);
},
{
closed = 1;
nodes = (
"670 270 OFFCURVE",
"800 400 OFFCURVE",
"800 560 CURVE SMOOTH",
"800 720 OFFCURVE",
"670 850 OFFCURVE",
"510 850 CURVE",
"510 700 LINE",
"585 700 OFFCURVE",
"645 640 OFFCURVE",
"645 565 CURVE SMOOTH",
"645 490 OFFCURVE",
"585 430 OFFCURVE",
"510 430 CURVE",
"510 270 LINE"
);
},
{
closed = 1;
nodes = (
"620 -150 LINE",
"800 -150 LINE",
"480 400 LINE",
"300 400 LINE"
);
}
);
width = 900;
},
{
layerId = "833FD172-3601-4257-8297-A103CE2A393F";
width = 600;
}
);
leftKerningGroup = H;
unicode = 0052;
},
{
glyphname = S;
lastChange = "2017-09-25 04:00:01 +0000";
layers = (
{
layerId = "926D8932-2CBE-4DA1-A7EC-AA50FD678EE5";
paths = (
{
closed = 1;
nodes = (
"258 400 OFFCURVE",
"180 478 OFFCURVE",
"180 580 CURVE SMOOTH",
"180 672 OFFCURVE",
"258 750 OFFCURVE",
"350 750 CURVE",
"350 850 LINE",
"203 850 OFFCURVE",
"80 727 OFFCURVE",
"80 580 CURVE SMOOTH",
"80 423 OFFCURVE",
"203 300 OFFCURVE",
"350 300 CURVE",
"350 400 LINE"
);
},
{
closed = 1;
nodes = (
"450 -150 LINE",
"597 -150 OFFCURVE",
"720 -27 OFFCURVE",
"720 130 CURVE SMOOTH",
"720 277 OFFCURVE",
"597 400 OFFCURVE",
"450 400 CURVE",
"450 300 LINE",
"543 301 OFFCURVE",
"620 222 OFFCURVE",
"620 130 CURVE SMOOTH",
"620 28 OFFCURVE",
"542 -50 OFFCURVE",
"450 -50 CURVE"
);
},
{
closed = 1;
nodes = (
"350 750 LINE",
"700 750 LINE",
"700 850 LINE",
"350 850 LINE"
);
},
{
closed = 1;
nodes = (
"100 -150 LINE",
"450 -150 LINE",
"450 -50 LINE",
"100 -50 LINE"
);
},
{
closed = 1;
nodes = (
"350 300 LINE",
"450 300 LINE",
"450 400 LINE",
"350 400 LINE"
);
}
);
width = 800;
},
{
layerId = "DCFDD359-D3A1-4A9B-975E-26381AFB2AA7";
paths = (
{
closed = 1;
nodes = (
"390 850 LINE",
"390 700 LINE",
"700 700 LINE",
"700 850 LINE"
);
},
{
closed = 1;
nodes = (
"390 430 LINE",
"315 430 OFFCURVE",
"255 490 OFFCURVE",
"255 565 CURVE SMOOTH",
"255 640 OFFCURVE",
"315 700 OFFCURVE",
"390 700 CURVE",
"390 850 LINE",
"230 850 OFFCURVE",
"100 720 OFFCURVE",
"100 560 CURVE SMOOTH",
"100 400 OFFCURVE",
"230 270 OFFCURVE",
"390 270 CURVE"
);
},
{
closed = 1;
nodes = (
"410 270 LINE",
"485 270 OFFCURVE",
"545 210 OFFCURVE",
"545 135 CURVE SMOOTH",
"545 60 OFFCURVE",
"485 0 OFFCURVE",
"410 0 CURVE",
"410 -150 LINE",
"570 -150 OFFCURVE",
"700 -20 OFFCURVE",
"700 140 CURVE SMOOTH",
"700 300 OFFCURVE",
"570 430 OFFCURVE",
"410 430 CURVE"
);
},
{
closed = 1;
nodes = (
"100 -150 LINE",
"410 -150 LINE",
"410 0 LINE",
"100 0 LINE"
);
},
{
closed = 1;
nodes = (
"390 270 LINE",
"410 270 LINE",
"410 430 LINE",
"390 430 LINE"
);
}
);
width = 800;
},
{
layerId = "833FD172-3601-4257-8297-A103CE2A393F";
width = 600;
}
);
unicode = 0053;
},
{
glyphname = Germandbls;
lastChange = "2017-09-25 00:58:25 +0000";
layers = (
{
layerId = "926D8932-2CBE-4DA1-A7EC-AA50FD678EE5";
paths = (
{
closed = 1;
nodes = (
"200 -150 LINE",
"300 -150 LINE",
"300 650 LINE",
"200 650 LINE"
);
},
{
closed = 1;
nodes = (
"600 -150 LINE",
"747 -150 OFFCURVE",
"870 -27 OFFCURVE",
"870 130 CURVE SMOOTH",
"870 277 OFFCURVE",
"747 400 OFFCURVE",
"600 400 CURVE",
"600 300 LINE",
"692 300 OFFCURVE",
"770 222 OFFCURVE",
"770 130 CURVE SMOOTH",
"770 28 OFFCURVE",
"692 -50 OFFCURVE",
"600 -50 CURVE"
);
},
{
closed = 1;
nodes = (
"200 760 OFFCURVE",
"290 850 OFFCURVE",
"400 850 CURVE",
"400 750 LINE",
"345 750 OFFCURVE",
"300 705 OFFCURVE",
"300 650 CURVE",
"200 650 LINE"
);
},
{
closed = 1;
nodes = (
"530 270 LINE",
"800 750 LINE",
"800 850 LINE",
"740 850 LINE",
"400 850 LINE",
"400 750 LINE",
"680 750 LINE",
"440 320 LINE"
);
},
{
closed = 1;
nodes = (
"530 270 LINE",
"548 289 OFFCURVE",
"573 300 OFFCURVE",
"600 300 CURVE",
"600 400 LINE",
"545 400 OFFCURVE",
"495 378 OFFCURVE",
"460 340 CURVE"
);
},
{
closed = 1;
nodes = (
"100 -150 LINE",
"300 -150 LINE",
"300 -50 LINE",
"100 -50 LINE"
);
},
{
closed = 1;
nodes = (
"455.049 -117.421 OFFCURVE",
"524.346 -150 OFFCURVE",
"600 -150 CURVE",
"600 -50 LINE",
"551.88 -50 OFFCURVE",
"507.591 -28.662 OFFCURVE",
"476.289 6.289 CURVE",
"405.604 -64.396 LINE"
);
}
);
width = 950;
},
{
layerId = "DCFDD359-D3A1-4A9B-975E-26381AFB2AA7";
width = 600;
},
{
layerId = "833FD172-3601-4257-8297-A103CE2A393F";
width = 600;
}
);
unicode = 1E9E;
},
{
glyphname = T;
lastChange = "2017-09-25 18:55:59 +0000";
layers = (
{
layerId = "926D8932-2CBE-4DA1-A7EC-AA50FD678EE5";
paths = (
{
closed = 1;
nodes = (
"350 -150 LINE",
"450 -150 LINE",
"450 850 LINE",
"350 850 LINE"
);
},
{
closed = 1;
nodes = (
"100 750 LINE",
"700 750 LINE",
"700 850 LINE",
"100 850 LINE"
);
},
{
closed = 1;
nodes = (
"250 -150 LINE",
"550 -150 LINE",
"550 -50 LINE",
"250 -50 LINE"
);
},
{
closed = 1;
nodes = (
"100 650 LINE",
"200 650 LINE",
"200 750 LINE",
"100 750 LINE"
);
},
{
closed = 1;
nodes = (
"600 650 LINE",
"700 650 LINE",
"700 750 LINE",
"600 750 LINE"
);
}
);
width = 800;
},
{
layerId = "DCFDD359-D3A1-4A9B-975E-26381AFB2AA7";
paths = (
{
closed = 1;
nodes = (
"325 -150 LINE",
"475 -150 LINE",
"475 850 LINE",
"325 850 LINE"
);
},
{
closed = 1;
nodes = (
"100 700 LINE",
"700 700 LINE",
"700 850 LINE",
"100 850 LINE"
);
},
{
closed = 1;
nodes = (
"225 -150 LINE",
"575 -150 LINE",
"575 0 LINE",
"225 0 LINE"
);
},
{
closed = 1;
nodes = (
"100 650 LINE",
"200 650 LINE",
"200 700 LINE",
"100 700 LINE"
);
},
{
closed = 1;
nodes = (
"600 650 LINE",
"700 650 LINE",
"700 700 LINE",
"600 700 LINE"
);
}
);
width = 800;
},
{
layerId = "833FD172-3601-4257-8297-A103CE2A393F";
width = 600;
}
);
leftKerningGroup = backslash;
rightKerningGroup = slash;
unicode = 0054;
},
{
glyphname = Tbar;
lastChange = "2017-09-26 17:30:37 +0000";
layers = (
{
components = (
{
name = T;
}
);
layerId = "926D8932-2CBE-4DA1-A7EC-AA50FD678EE5";
paths = (
{
closed = 1;
nodes = (
"200 300 LINE",
"600 300 LINE",
"600 400 LINE",
"200 400 LINE"
);
}
);
width = 800;
},
{
layerId = "DCFDD359-D3A1-4A9B-975E-26381AFB2AA7";
width = 600;
},
{
layerId = "833FD172-3601-4257-8297-A103CE2A393F";
width = 600;
}
);
unicode = 0166;
},
{
glyphname = U;
lastChange = "2017-09-25 01:19:55 +0000";
layers = (
{
layerId = "926D8932-2CBE-4DA1-A7EC-AA50FD678EE5";
paths = (
{
closed = 1;
nodes = (
"100 70 OFFCURVE",
"320 -150 OFFCURVE",
"600 -150 CURVE SMOOTH",
"880 -150 OFFCURVE",
"1100 70 OFFCURVE",
"1100 350 CURVE",
"1000 350 LINE",
"1000 130 OFFCURVE",
"820 -50 OFFCURVE",
"600 -50 CURVE SMOOTH",
"380 -50 OFFCURVE",
"200 130 OFFCURVE",
"200 350 CURVE",
"100 350 LINE"
);
},
{
closed = 1;
nodes = (
"100 350 LINE",
"200 350 LINE",
"200 850 LINE",
"100 850 LINE"
);
},
{
closed = 1;
nodes = (
"1000 350 LINE",
"1100 350 LINE",
"1100 850 LINE",
"1000 850 LINE"
);
}
);
width = 1200;
},
{
layerId = "DCFDD359-D3A1-4A9B-975E-26381AFB2AA7";
paths = (
{
closed = 1;
nodes = (
"100 75 OFFCURVE",
"325 -150 OFFCURVE",
"600 -150 CURVE SMOOTH",
"875 -150 OFFCURVE",
"1100 75 OFFCURVE",
"1100 350 CURVE",
"950 350 LINE",
"950 155 OFFCURVE",
"795 0 OFFCURVE",
"600 0 CURVE SMOOTH",
"405 0 OFFCURVE",
"250 155 OFFCURVE",
"250 350 CURVE",
"100 350 LINE"
);
},
{
closed = 1;
nodes = (
"100 350 LINE",
"250 350 LINE",
"250 850 LINE",
"100 850 LINE"
);
},
{
closed = 1;
nodes = (
"950 350 LINE",
"1100 350 LINE",
"1100 850 LINE",
"950 850 LINE"
);
}
);
width = 1200;
},
{
layerId = "833FD172-3601-4257-8297-A103CE2A393F";
width = 600;
}
);
unicode = 0055;
},
{
glyphname = V;
lastChange = "2017-09-25 03:15:14 +0000";
layers = (
{
layerId = "926D8932-2CBE-4DA1-A7EC-AA50FD678EE5";
paths = (
{
closed = 1;
nodes = (
"330 -150 LINE",
"470 -150 LINE",
"730 850 LINE",
"640 850 LINE",
"400 -30 LINE",
"160 850 LINE",
"70 850 LINE"
);
}
);
width = 800;
},
{
layerId = "DCFDD359-D3A1-4A9B-975E-26381AFB2AA7";
paths = (
{
closed = 1;
nodes = (
"50 850 LINE",
"315 -150 LINE",
"485 -150 LINE",
"750 850 LINE",
"585 850 LINE",
"400 160 LINE",
"215 850 LINE"
);
}
);
width = 800;
},
{
layerId = "833FD172-3601-4257-8297-A103CE2A393F";
width = 600;
}
);
leftKerningGroup = backslash;
rightKerningGroup = slash;
unicode = 0056;
},
{
glyphname = W;
lastChange = "2017-09-25 03:15:58 +0000";
layers = (
{
layerId = "926D8932-2CBE-4DA1-A7EC-AA50FD678EE5";
paths = (
{
closed = 1;
nodes = (
"330 -150 LINE",
"470 -150 LINE",
"600 350 LINE",
"730 -150 LINE",
"870 -150 LINE",
"1130 850 LINE",
"1040 850 LINE",
"800 -30 LINE",
"600 700 LINE",
"400 -30 LINE",
"160 850 LINE",
"70 850 LINE"
);
}
);
width = 1200;
},
{
layerId = "DCFDD359-D3A1-4A9B-975E-26381AFB2AA7";
paths = (
{
closed = 1;
nodes = (
"315 -150 LINE",
"485 -150 LINE",
"600 285 LINE",
"715 -150 LINE",
"885 -150 LINE",
"1150 850 LINE",
"985 850 LINE",
"800 160 LINE",
"685 595 LINE",
"515 595 LINE",
"400 160 LINE",
"215 850 LINE",
"50 850 LINE"
);
}
);
width = 1200;
},
{
layerId = "833FD172-3601-4257-8297-A103CE2A393F";
width = 600;
}
);
leftKerningGroup = backslash;
rightKerningGroup = slash;
unicode = 0057;
},
{
glyphname = X;
lastChange = "2017-09-25 02:51:41 +0000";
layers = (
{
layerId = "926D8932-2CBE-4DA1-A7EC-AA50FD678EE5";
paths = (
{
closed = 1;
nodes = (
"220 -150 LINE",
"450 250 LINE",
"680 -150 LINE",
"800 -150 LINE",
"510 350 LINE",
"800 850 LINE",
"680 850 LINE",
"450 450 LINE",
"220 850 LINE",
"100 850 LINE",
"390 350 LINE",
"100 -150 LINE"
);
}
);
width = 900;
},
{
layerId = "DCFDD359-D3A1-4A9B-975E-26381AFB2AA7";
paths = (
{
closed = 1;
nodes = (
"255 -150 LINE",
"450 190 LINE",
"645 -150 LINE",
"830 -150 LINE",
"545 350 LINE",
"830 850 LINE",
"645 850 LINE",
"450 510 LINE",
"255 850 LINE",
"70 850 LINE",
"355 350 LINE",
"70 -150 LINE"
);
}
);
width = 900;
},
{
layerId = "833FD172-3601-4257-8297-A103CE2A393F";
width = 600;
}
);
leftKerningGroup = X;
rightKerningGroup = X;
unicode = 0058;
},
{
glyphname = Y;
lastChange = "2017-09-25 02:51:45 +0000";
layers = (
{
layerId = "926D8932-2CBE-4DA1-A7EC-AA50FD678EE5";
paths = (
{
closed = 1;
nodes = (
"450 250 LINE",
"800 850 LINE",
"680 850 LINE",
"450 450 LINE",
"220 850 LINE",
"100 850 LINE"
);
},
{
closed = 1;
nodes = (
"400 -150 LINE",
"500 -150 LINE",
"500 400 LINE",
"400 400 LINE"
);
}
);
width = 900;
},
{
layerId = "DCFDD359-D3A1-4A9B-975E-26381AFB2AA7";
paths = (
{
closed = 1;
nodes = (
"450 190 LINE",
"545 350 LINE",
"830 850 LINE",
"645 850 LINE",
"450 510 LINE",
"255 850 LINE",
"70 850 LINE",
"355 350 LINE"
);
},
{
closed = 1;
nodes = (
"370 -150 LINE",
"530 -150 LINE",
"530 400 LINE",
"370 400 LINE"
);
}
);
width = 900;
},
{
layerId = "833FD172-3601-4257-8297-A103CE2A393F";
width = 600;
}
);
leftKerningGroup = backslash;
rightKerningGroup = slash;
unicode = 0059;
},
{
glyphname = Z;
lastChange = "2017-09-25 03:40:54 +0000";
layers = (
{
layerId = "926D8932-2CBE-4DA1-A7EC-AA50FD678EE5";
paths = (
{
closed = 1;
nodes = (
"220 -150 LINE",
"800 850 LINE",
"680 850 LINE",
"100 -150 LINE"
);
},
{
closed = 1;
nodes = (
"100 750 LINE",
"720 750 LINE",
"720 850 LINE",
"100 850 LINE"
);
},
{
closed = 1;
nodes = (
"190 -150 LINE",
"800 -150 LINE",
"800 -50 LINE",
"190 -50 LINE"
);
}
);
width = 900;
},
{
layerId = "DCFDD359-D3A1-4A9B-975E-26381AFB2AA7";
paths = (
{
closed = 1;
nodes = (
"100 700 LINE",
"700 700 LINE",
"700 850 LINE",
"100 850 LINE"
);
},
{
closed = 1;
nodes = (
"200 -150 LINE",
"800 -150 LINE",
"800 0 LINE",
"200 0 LINE"
);
},
{
closed = 1;
nodes = (
"255 -150 LINE",
"830 850 LINE",
"645 850 LINE",
"70 -150 LINE"
);
}
);
width = 900;
},
{
layerId = "833FD172-3601-4257-8297-A103CE2A393F";
width = 600;
}
);
unicode = 005A;
},
{
glyphname = a;
lastChange = "2017-09-27 20:19:42 +0000";
layers = (
{
anchors = (
{
name = bottom;
position = "{400, 0}";
},
{
name = ogonek;
position = "{720, 10}";
},
{
name = top;
position = "{400, 700}";
}
);
layerId = "926D8932-2CBE-4DA1-A7EC-AA50FD678EE5";
paths = (
{
closed = 1;
nodes = (
"190 398 OFFCURVE",
"100 308 OFFCURVE",
"100 200 CURVE SMOOTH",
"100 88 OFFCURVE",
"190 -2 OFFCURVE",
"300 0 CURVE",
"300 100 LINE",
"245 98 OFFCURVE",
"200 143 OFFCURVE",
"200 200 CURVE SMOOTH",
"200 253 OFFCURVE",
"245 298 OFFCURVE",
"300 300 CURVE",
"300 400 LINE"
);
},
{
closed = 1;
nodes = (
"500 600 LINE",
"555 598 OFFCURVE",
"600 553 OFFCURVE",
"600 500 CURVE SMOOTH",
"600 443 OFFCURVE",
"555 398 OFFCURVE",
"500 400 CURVE",
"500 300 LINE",
"610 298 OFFCURVE",
"700 388 OFFCURVE",
"700 500 CURVE SMOOTH",
"700 608 OFFCURVE",
"610 698 OFFCURVE",
"500 700 CURVE"
);
},
{
closed = 1;
nodes = (
"300 300 LINE",
"500 300 LINE",
"500 400 LINE",
"300 400 LINE"
);
},
{
closed = 1;
nodes = (
"300 0 LINE",
"500 0 LINE",
"500 100 LINE",
"300 100 LINE"
);
},
{
closed = 1;
nodes = (
"600 200 LINE",
"700 200 LINE",
"700 500 LINE",
"600 500 LINE"
);
},
{
closed = 1;
nodes = (
"300 500 LINE",
"300 553 OFFCURVE",
"345 598 OFFCURVE",
"400 600 CURVE",
"400 700 LINE",
"290 698 OFFCURVE",
"200 608 OFFCURVE",
"200 500 CURVE"
);
},
{
closed = 1;
nodes = (
"400 600 LINE",
"500 600 LINE",
"500 700 LINE",
"400 700 LINE"
);
},
{
closed = 1;
nodes = (
"600 200 LINE",
"600 147 OFFCURVE",
"555 102 OFFCURVE",
"500 100 CURVE",
"500 0 LINE",
"610 2 OFFCURVE",
"700 92 OFFCURVE",
"700 200 CURVE"
);
},
{
closed = 1;
nodes = (
"800 100 LINE",
"740 100 OFFCURVE",
"700 140 OFFCURVE",
"700 200 CURVE",
"600 200 LINE",
"600 80 OFFCURVE",
"680 0 OFFCURVE",
"800 0 CURVE"
);
}
);
width = 800;
},
{
layerId = "DCFDD359-D3A1-4A9B-975E-26381AFB2AA7";
paths = (
{
closed = 1;
nodes = (
"315 275 LINE",
"485 275 LINE",
"485 430 LINE",
"315 430 LINE"
);
},
{
closed = 1;
nodes = (
"315 0 LINE",
"500 0 LINE",
"500 150 LINE",
"315 150 LINE"
);
},
{
closed = 1;
nodes = (
"700 500 LINE",
"700 200 LINE",
"550 200 LINE",
"550 500 LINE"
);
},
{
closed = 1;
nodes = (
"400 550 LINE",
"485 550 LINE",
"485 700 LINE",
"400 700 LINE"
);
},
{
closed = 1;
nodes = (
"800 100 LINE",
"740 100 OFFCURVE",
"700 140 OFFCURVE",
"700 200 CURVE",
"550 200 LINE",
"550 80 OFFCURVE",
"680 0 OFFCURVE",
"800 0 CURVE"
);
},
{
closed = 1;
nodes = (
"610 0 OFFCURVE",
"700 90 OFFCURVE",
"700 200 CURVE",
"550 200 LINE",
"550 170 OFFCURVE",
"530 150 OFFCURVE",
"500 150 CURVE",
"500 0 LINE"
);
},
{
closed = 1;
nodes = (
"290 700 OFFCURVE",
"200 610 OFFCURVE",
"200 500 CURVE",
"350 500 LINE",
"350 530 OFFCURVE",
"370 550 OFFCURVE",
"400 550 CURVE",
"400 700 LINE"
);
},
{
closed = 1;
nodes = (
"100 335 OFFCURVE",
"195 430 OFFCURVE",
"315 430 CURVE",
"315 275 LINE",
"280 275 OFFCURVE",
"250 245 OFFCURVE",
"250 215 CURVE SMOOTH",
"250 180 OFFCURVE",
"280 150 OFFCURVE",
"315 150 CURVE",
"315 0 LINE",
"195 0 OFFCURVE",
"100 95 OFFCURVE",
"100 215 CURVE SMOOTH"
);
},
{
closed = 1;
nodes = (
"700 370 OFFCURVE",
"605 275 OFFCURVE",
"485 275 CURVE",
"485 430 LINE",
"520 430 OFFCURVE",
"550 460 OFFCURVE",
"550 490 CURVE SMOOTH",
"550 525 OFFCURVE",
"520 550 OFFCURVE",
"485 550 CURVE",
"485 700 LINE",
"605 700 OFFCURVE",
"700 610 OFFCURVE",
"700 490 CURVE SMOOTH"
);
}
);
width = 800;
},
{
components = (
{
name = _light_a;
transform = "{-1, 0, 0, 1, 850, 0}";
},
{
name = _light_a;
transform = "{1, 0, 0, 1, -50, -325}";
}
);
layerId = "833FD172-3601-4257-8297-A103CE2A393F";
paths = (
{
closed = 1;
nodes = (
"290 325 LINE",
"510 325 LINE",
"510 375 LINE",
"290 375 LINE"
);
},
{
closed = 1;
nodes = (
"290 0 LINE",
"510 0 LINE",
"510 50 LINE",
"290 50 LINE"
);
},
{
closed = 1;
nodes = (
"650 200 LINE",
"700 200 LINE",
"700 500 LINE",
"650 500 LINE"
);
},
{
closed = 1;
nodes = (
"390 650 LINE",
"510 650 LINE",
"510 700 LINE",
"390 700 LINE"
);
},
{
closed = 1;
nodes = (
"250 515 LINE",
"250 590 OFFCURVE",
"310 650 OFFCURVE",
"390 650 CURVE",
"390 700 LINE",
"285 700 OFFCURVE",
"200 615 OFFCURVE",
"200 515 CURVE"
);
},
{
closed = 1;
nodes = (
"615 0 OFFCURVE",
"700 85 OFFCURVE",
"700 190 CURVE",
"700 200 LINE",
"650 200 LINE",
"650 190 LINE",
"650 110 OFFCURVE",
"590 50 OFFCURVE",
"510 50 CURVE",
"510 0 LINE"
);
},
{
closed = 1;
nodes = (
"840 50 LINE",
"760 50 OFFCURVE",
"700 110 OFFCURVE",
"700 190 CURVE",
"700 200 LINE",
"650 200 LINE",
"650 190 LINE",
"650 85 OFFCURVE",
"735 0 OFFCURVE",
"840 0 CURVE"
);
}
);
width = 800;
}
);
leftKerningGroup = a;
rightKerningGroup = a;
unicode = 0061;
},
{
glyphname = aogonek;
lastChange = "2017-09-26 17:33:39 +0000";
layers = (
{
anchors = (
{
name = bottom;
position = "{400, 0}";
},
{
name = ogonek;
position = "{720, 10}";
},
{
name = top;
position = "{400, 700}";
}
);
components = (
{
name = ogonek;
transform = "{1, 0, 0, 1, 500, 0}";
}
);
layerId = "926D8932-2CBE-4DA1-A7EC-AA50FD678EE5";
paths = (
{
closed = 1;
nodes = (
"190 400 OFFCURVE",
"100 310 OFFCURVE",
"100 200 CURVE SMOOTH",
"100 90 OFFCURVE",
"190 0 OFFCURVE",
"300 0 CURVE",
"300 100 LINE",
"245 100 OFFCURVE",
"200 145 OFFCURVE",
"200 200 CURVE SMOOTH",
"200 255 OFFCURVE",
"245 300 OFFCURVE",
"300 300 CURVE",
"300 400 LINE"
);
},
{
closed = 1;
nodes = (
"500 600 LINE",
"555 600 OFFCURVE",
"600 555 OFFCURVE",
"600 500 CURVE SMOOTH",
"600 445 OFFCURVE",
"555 400 OFFCURVE",
"500 400 CURVE",
"500 300 LINE",
"610 300 OFFCURVE",
"700 390 OFFCURVE",
"700 500 CURVE SMOOTH",
"700 610 OFFCURVE",
"610 700 OFFCURVE",
"500 700 CURVE"
);
},
{
closed = 1;
nodes = (
"300 300 LINE",
"500 300 LINE",
"500 400 LINE",
"300 400 LINE"
);
},
{
closed = 1;
nodes = (
"300 0 LINE",
"500 0 LINE",
"500 100 LINE",
"300 100 LINE"
);
},
{
closed = 1;
nodes = (
"600 100 LINE",
"700 100 LINE",
"700 500 LINE",
"600 500 LINE"
);
},
{
closed = 1;
nodes = (
"300 500 LINE",
"300 555 OFFCURVE",
"345 600 OFFCURVE",
"400 600 CURVE",
"400 700 LINE",
"290 700 OFFCURVE",
"200 610 OFFCURVE",
"200 500 CURVE"
);
},
{
closed = 1;
nodes = (
"400 600 LINE",
"500 600 LINE",
"500 700 LINE",
"400 700 LINE"
);
},
{
closed = 1;
nodes = (
"600 200 LINE",
"600 145 OFFCURVE",
"555 100 OFFCURVE",
"500 100 CURVE",
"500 0 LINE",
"610 0 OFFCURVE",
"700 90 OFFCURVE",
"700 200 CURVE"
);
}
);
width = 800;
},
{
layerId = "DCFDD359-D3A1-4A9B-975E-26381AFB2AA7";
width = 600;
},
{
layerId = "833FD172-3601-4257-8297-A103CE2A393F";
width = 600;
}
);
unicode = 0105;
},
{
glyphname = ae;
lastChange = "2017-09-27 19:24:09 +0000";
layers = (
{
anchors = (
{
name = bottom;
position = "{1000, 0}";
},
{
name = ogonek;
position = "{1360, 10}";
},
{
name = top;
position = "{1000, 700}";
}
);
layerId = "926D8932-2CBE-4DA1-A7EC-AA50FD678EE5";
paths = (
{
closed = 1;
nodes = (
"650 157 OFFCURVE",
"807 0 OFFCURVE",
"1000 0 CURVE SMOOTH",
"1097 0 OFFCURVE",
"1184 39 OFFCURVE",
"1250 100 CURVE",
"1180 170 LINE",
"1132 128 OFFCURVE",
"1069 100 OFFCURVE",
"1000 100 CURVE SMOOTH",
"879 100 OFFCURVE",
"778 186 OFFCURVE",
"760 300 CURVE",
"1350 300 LINE",
"1350 350 LINE SMOOTH",
"1350 543 OFFCURVE",
"1193 700 OFFCURVE",
"1000 700 CURVE SMOOTH",
"807 700 OFFCURVE",
"650 543 OFFCURVE",
"650 350 CURVE SMOOTH"
);
},
{
closed = 1;
nodes = (
"780 510 OFFCURVE",
"880 600 OFFCURVE",
"1000 600 CURVE SMOOTH",
"1120 600 OFFCURVE",
"1220 510 OFFCURVE",
"1240 400 CURVE",
"760 400 LINE"
);
},
{
closed = 1;
nodes = (
"190 398 OFFCURVE",
"100 308 OFFCURVE",
"100 200 CURVE SMOOTH",
"100 90 OFFCURVE",
"190 0 OFFCURVE",
"300 0 CURVE",
"300 100 LINE",
"245 98 OFFCURVE",
"200 143 OFFCURVE",
"200 200 CURVE SMOOTH",
"200 253 OFFCURVE",
"245 298 OFFCURVE",
"300 300 CURVE",
"300 400 LINE"
);
},
{
closed = 1;
nodes = (
"220 530 LINE",
"268 572 OFFCURVE",
"331 600 OFFCURVE",
"400 600 CURVE SMOOTH",
"521 600 OFFCURVE",
"622 514 OFFCURVE",
"640 400 CURVE",
"300 400 LINE",
"300 300 LINE",
"640 300 LINE",
"620 190 OFFCURVE",
"520 100 OFFCURVE",
"400 100 CURVE",
"300 100 LINE",
"300 0 LINE",
"400 0 LINE",
"593 0 OFFCURVE",
"750 157 OFFCURVE",
"750 350 CURVE SMOOTH",
"750 543 OFFCURVE",
"593 700 OFFCURVE",
"400 700 CURVE SMOOTH",
"303 700 OFFCURVE",
"216 661 OFFCURVE",
"150 600 CURVE"
);
}
);
width = 1450;
},
{
components = (
{
name = e;
transform = "{1, 0, 0, 1, 550, 0}";
}
);
layerId = "DCFDD359-D3A1-4A9B-975E-26381AFB2AA7";
paths = (
{
closed = 1;
nodes = (
"315 0 LINE",
"450 0 LINE",
"450 150 LINE",
"315 150 LINE"
);
},
{
closed = 1;
nodes = (
"100 335 OFFCURVE",
"195 425 OFFCURVE",
"315 425 CURVE",
"315 275 LINE",
"280 275 OFFCURVE",
"250 245 OFFCURVE",
"250 215 CURVE SMOOTH",
"250 180 OFFCURVE",
"280 150 OFFCURVE",
"315 150 CURVE",
"315 0 LINE",
"195 0 OFFCURVE",
"100 95 OFFCURVE",
"100 215 CURVE SMOOTH"
);
},
{
closed = 1;
nodes = (
"315 275 LINE",
"700 275 LINE",
"700 425 LINE",
"315 425 LINE"
);
},
{
closed = 1;
nodes = (
"450 0 LINE",
"645 0 OFFCURVE",
"800 155 OFFCURVE",
"800 350 CURVE SMOOTH",
"800 545 OFFCURVE",
"645 700 OFFCURVE",
"450 700 CURVE SMOOTH",
"350 700 OFFCURVE",
"265 660 OFFCURVE",
"200 600 CURVE",
"310 490 LINE",
"345 525 OFFCURVE",
"395 550 OFFCURVE",
"450 550 CURVE SMOOTH",
"560 550 OFFCURVE",
"650 460 OFFCURVE",
"650 350 CURVE SMOOTH",
"650 240 OFFCURVE",
"560 150 OFFCURVE",
"450 150 CURVE"
);
}
);
width = 1450;
},
{
layerId = "833FD172-3601-4257-8297-A103CE2A393F";
width = 600;
}
);
unicode = 00E6;
},
{
glyphname = b;
lastChange = "2017-09-27 20:28:29 +0000";
layers = (
{
hints = (
{
horizontal = 1;
place = "{0, 100}";
},
{
horizontal = 1;
place = "{600, 100}";
},
{
place = "{50, 100}";
},
{
place = "{450, 100}";
}
);
layerId = "926D8932-2CBE-4DA1-A7EC-AA50FD678EE5";
paths = (
{
closed = 1;
nodes = (
"643 0 OFFCURVE",
"800 157 OFFCURVE",
"800 350 CURVE SMOOTH",
"800 543 OFFCURVE",
"643 700 OFFCURVE",
"450 700 CURVE SMOOTH",
"257 700 OFFCURVE",
"100 543 OFFCURVE",
"100 350 CURVE SMOOTH",
"100 157 OFFCURVE",
"257 0 OFFCURVE",
"450 0 CURVE SMOOTH"
);
},
{
closed = 1;
nodes = (
"312 100 OFFCURVE",
"200 212 OFFCURVE",
"200 350 CURVE SMOOTH",
"200 488 OFFCURVE",
"312 600 OFFCURVE",
"450 600 CURVE SMOOTH",
"588 600 OFFCURVE",
"700 488 OFFCURVE",
"700 350 CURVE SMOOTH",
"700 212 OFFCURVE",
"588 100 OFFCURVE",
"450 100 CURVE SMOOTH"
);
},
{
closed = 1;
nodes = (
"100 1000 LINE",
"100 0 LINE",
"200 0 LINE",
"200 1000 LINE"
);
}
);
width = 900;
},
{
components = (
{
name = _circle_7;
}
);
layerId = "DCFDD359-D3A1-4A9B-975E-26381AFB2AA7";
paths = (
{
closed = 1;
nodes = (
"100 0 LINE",
"250 0 LINE",
"250 1000 LINE",
"100 1000 LINE"
);
}
);
width = 900;
},
{
components = (
{
name = o;
}
);
layerId = "833FD172-3601-4257-8297-A103CE2A393F";
paths = (
{
closed = 1;
nodes = (
"100 0 LINE",
"150 0 LINE",
"150 1000 LINE",
"100 1000 LINE"
);
}
);
width = 900;
}
);
leftKerningGroup = l;
rightKerningGroup = o;
unicode = 0062;
},
{
glyphname = c;
lastChange = "2017-09-27 00:21:11 +0000";
layers = (
{
anchors = (
{
name = bottom;
position = "{470, 0}";
},
{
name = top;
position = "{450, 700}";
}
);
layerId = "926D8932-2CBE-4DA1-A7EC-AA50FD678EE5";
paths = (
{
closed = 1;
nodes = (
"547 0 OFFCURVE",
"634 39 OFFCURVE",
"700 100 CURVE",
"630 170 LINE",
"582 128 OFFCURVE",
"519 100 OFFCURVE",
"450 100 CURVE SMOOTH",
"312 100 OFFCURVE",
"200 212 OFFCURVE",
"200 350 CURVE SMOOTH",
"200 488 OFFCURVE",
"312 600 OFFCURVE",
"450 600 CURVE SMOOTH",
"519 600 OFFCURVE",
"582 572 OFFCURVE",
"630 530 CURVE",
"700 600 LINE",
"634 661 OFFCURVE",
"547 700 OFFCURVE",
"450 700 CURVE SMOOTH",
"257 700 OFFCURVE",
"100 543 OFFCURVE",
"100 350 CURVE SMOOTH",
"100 157 OFFCURVE",
"257 0 OFFCURVE",
"450 0 CURVE SMOOTH"
);
}
);
width = 800;
},
{
layerId = "DCFDD359-D3A1-4A9B-975E-26381AFB2AA7";
paths = (
{
closed = 1;
nodes = (
"100 540 OFFCURVE",
"260 700 OFFCURVE",
"450 700 CURVE SMOOTH",
"550 700 OFFCURVE",
"630 660 OFFCURVE",
"700 600 CURVE",
"590 490 LINE",
"560 530 OFFCURVE",
"510 550 OFFCURVE",
"450 550 CURVE SMOOTH",
"340 550 OFFCURVE",
"250 460 OFFCURVE",
"250 350 CURVE SMOOTH",
"250 240 OFFCURVE",
"340 150 OFFCURVE",
"450 150 CURVE SMOOTH",
"510 150 OFFCURVE",
"560 170 OFFCURVE",
"590 210 CURVE",
"700 100 LINE",
"630 40 OFFCURVE",
"550 0 OFFCURVE",
"450 0 CURVE SMOOTH",
"260 0 OFFCURVE",
"100 160 OFFCURVE",
"100 350 CURVE SMOOTH"
);
}
);
width = 800;
},
{
layerId = "833FD172-3601-4257-8297-A103CE2A393F";
paths = (
{
closed = 1;
nodes = (
"100 155 OFFCURVE",
"255 0 OFFCURVE",
"450 0 CURVE SMOOTH",
"545 0 OFFCURVE",
"635 40 OFFCURVE",
"695 105 CURVE",
"660 140 LINE",
"610 85 OFFCURVE",
"535 50 OFFCURVE",
"450 50 CURVE SMOOTH",
"285 50 OFFCURVE",
"150 185 OFFCURVE",
"150 350 CURVE SMOOTH",
"150 515 OFFCURVE",
"285 650 OFFCURVE",
"450 650 CURVE SMOOTH",
"535 650 OFFCURVE",
"610 615 OFFCURVE",
"660 560 CURVE",
"695 595 LINE",
"635 660 OFFCURVE",
"545 700 OFFCURVE",
"450 700 CURVE SMOOTH",
"255 700 OFFCURVE",
"100 545 OFFCURVE",
"100 350 CURVE SMOOTH"
);
}
);
width = 800;
}
);
leftKerningGroup = o;
unicode = 0063;
},
{
glyphname = ccedilla;
lastChange = "2017-09-27 19:44:48 +0000";
layers = (
{
components = (
{
name = c;
},
{
name = cedillacomb;
transform = "{1, 0, 0, 1, 200, 50}";
}
);
layerId = "926D8932-2CBE-4DA1-A7EC-AA50FD678EE5";
width = 800;
},
{
components = (
{
name = c;
}
);
layerId = "DCFDD359-D3A1-4A9B-975E-26381AFB2AA7";
paths = (
{
closed = 1;
nodes = (
"415 -235 LINE",
"425 -245 OFFCURVE",
"435 -250 OFFCURVE",
"450 -250 CURVE SMOOTH",
"480 -250 OFFCURVE",
"500 -230 OFFCURVE",
"500 -200 CURVE SMOOTH",
"500 -170 OFFCURVE",
"480 -150 OFFCURVE",
"450 -150 CURVE",
"450 -50 LINE",
"535 -50 OFFCURVE",
"600 -115 OFFCURVE",
"600 -200 CURVE SMOOTH",
"600 -285 OFFCURVE",
"535 -350 OFFCURVE",
"450 -350 CURVE SMOOTH",
"410 -350 OFFCURVE",
"370 -335 OFFCURVE",
"340 -310 CURVE"
);
},
{
closed = 1;
nodes = (
"500 100 LINE",
"500 -150 LINE",
"400 -150 LINE",
"400 100 LINE"
);
}
);
width = 800;
},
{
layerId = "833FD172-3601-4257-8297-A103CE2A393F";
width = 600;
}
);
unicode = 00E7;
},
{
glyphname = d;
lastChange = "2017-09-27 20:28:29 +0000";
layers = (
{
layerId = "926D8932-2CBE-4DA1-A7EC-AA50FD678EE5";
paths = (
{
closed = 1;
nodes = (
"643 0 OFFCURVE",
"750 157 OFFCURVE",
"750 350 CURVE SMOOTH",
"750 543 OFFCURVE",
"643 700 OFFCURVE",
"450 700 CURVE SMOOTH",
"257 700 OFFCURVE",
"100 543 OFFCURVE",
"100 350 CURVE SMOOTH",
"100 157 OFFCURVE",
"257 0 OFFCURVE",
"450 0 CURVE SMOOTH"
);
},
{
closed = 1;
nodes = (
"312 100 OFFCURVE",
"200 212 OFFCURVE",
"200 350 CURVE SMOOTH",
"200 488 OFFCURVE",
"312 600 OFFCURVE",
"450 600 CURVE SMOOTH",
"588 600 OFFCURVE",
"700 488 OFFCURVE",
"700 350 CURVE SMOOTH",
"700 212 OFFCURVE",
"588 100 OFFCURVE",
"450 100 CURVE SMOOTH"
);
},
{
closed = 1;
nodes = (
"700 200 LINE",
"700 0 LINE",
"800 0 LINE",
"800 1000 LINE",
"700 1000 LINE"
);
}
);
width = 900;
},
{
components = (
{
name = _circle_7;
}
);
layerId = "DCFDD359-D3A1-4A9B-975E-26381AFB2AA7";
paths = (
{
closed = 1;
nodes = (
"650 1000 LINE",
"650 0 LINE",
"800 0 LINE",
"800 1000 LINE"
);
}
);
width = 900;
},
{
components = (
{
name = b;
transform = "{-1, 0, 0, 1, 900, 0}";
}
);
layerId = "833FD172-3601-4257-8297-A103CE2A393F";
width = 900;
}
);
leftKerningGroup = o;
rightKerningGroup = l;
unicode = 0064;
},
{
glyphname = eth;
lastChange = "2017-09-28 07:55:15 +0000";
layers = (
{
layerId = "926D8932-2CBE-4DA1-A7EC-AA50FD678EE5";
paths = (
{
closed = 1;
nodes = (
"640 0 OFFCURVE",
"800 160 OFFCURVE",
"800 350 CURVE SMOOTH",
"800 540 OFFCURVE",
"640 700 OFFCURVE",
"450 700 CURVE SMOOTH",
"260 700 OFFCURVE",
"100 540 OFFCURVE",
"100 350 CURVE SMOOTH",
"100 160 OFFCURVE",
"260 0 OFFCURVE",
"450 0 CURVE SMOOTH"
);
},
{
closed = 1;
nodes = (
"310 100 OFFCURVE",
"200 210 OFFCURVE",
"200 350 CURVE SMOOTH",
"200 490 OFFCURVE",
"310 600 OFFCURVE",
"450 600 CURVE SMOOTH",
"590 600 OFFCURVE",
"700 490 OFFCURVE",
"700 350 CURVE SMOOTH",
"700 210 OFFCURVE",
"590 100 OFFCURVE",
"450 100 CURVE SMOOTH"
);
},
{
closed = 1;
nodes = (
"370 840 LINE",
"850 970 LINE",
"830 1060 LINE",
"350 930 LINE"
);
},
{
closed = 1;
nodes = (
"800 350 LINE",
"803 622 OFFCURVE",
"726 879 OFFCURVE",
"600 1100 CURVE",
"480 1100 LINE",
"618 884 OFFCURVE",
"699 627 OFFCURVE",
"700 350 CURVE"
);
}
);
width = 900;
},
{
layerId = "DCFDD359-D3A1-4A9B-975E-26381AFB2AA7";
paths = (
{
closed = 1;
nodes = (
"640 0 OFFCURVE",
"800 160 OFFCURVE",
"800 350 CURVE SMOOTH",
"800 540 OFFCURVE",
"640 700 OFFCURVE",
"450 700 CURVE SMOOTH",
"260 700 OFFCURVE",
"100 540 OFFCURVE",
"100 350 CURVE SMOOTH",
"100 160 OFFCURVE",
"260 0 OFFCURVE",
"450 0 CURVE SMOOTH"
);
},
{
closed = 1;
nodes = (
"338 150 OFFCURVE",
"250 238 OFFCURVE",
"250 350 CURVE SMOOTH",
"250 462 OFFCURVE",
"338 550 OFFCURVE",
"450 550 CURVE SMOOTH",
"562 550 OFFCURVE",
"650 462 OFFCURVE",
"650 350 CURVE SMOOTH",
"650 238 OFFCURVE",
"562 150 OFFCURVE",
"450 150 CURVE SMOOTH"
);
},
{
closed = 1;
nodes = (
"380 815 LINE",
"860 940 LINE",
"820 1085 LINE",
"340 960 LINE"
);
},
{
closed = 1;
nodes = (
"800 350 LINE",
"803 622 OFFCURVE",
"726 879 OFFCURVE",
"600 1100 CURVE",
"420 1100 LINE",
"558 884 OFFCURVE",
"649 627 OFFCURVE",
"650 350 CURVE"
);
}
);
width = 900;
},
{
layerId = "833FD172-3601-4257-8297-A103CE2A393F";
width = 600;
}
);
unicode = 00F0;
},
{
glyphname = dcroat;
lastChange = "2017-09-26 17:34:35 +0000";
layers = (
{
components = (
{
name = d;
}
);
layerId = "926D8932-2CBE-4DA1-A7EC-AA50FD678EE5";
paths = (
{
closed = 1;
nodes = (
"450 800 LINE",
"900 800 LINE",
"900 900 LINE",
"450 900 LINE"
);
}
);
width = 900;
},
{
layerId = "DCFDD359-D3A1-4A9B-975E-26381AFB2AA7";
width = 600;
},
{
layerId = "833FD172-3601-4257-8297-A103CE2A393F";
width = 600;
}
);
unicode = 0111;
},
{
glyphname = e;
lastChange = "2017-09-25 01:37:42 +0000";
layers = (
{
layerId = "926D8932-2CBE-4DA1-A7EC-AA50FD678EE5";
paths = (
{
closed = 1;
nodes = (
"100 157 OFFCURVE",
"257 0 OFFCURVE",
"450 0 CURVE SMOOTH",
"547 0 OFFCURVE",
"634 39 OFFCURVE",
"700 100 CURVE",
"630 170 LINE",
"582 128 OFFCURVE",
"519 100 OFFCURVE",
"450 100 CURVE SMOOTH",
"329 100 OFFCURVE",
"228 186 OFFCURVE",
"210 300 CURVE",
"800 300 LINE",
"800 350 LINE SMOOTH",
"800 543 OFFCURVE",
"643 700 OFFCURVE",
"450 700 CURVE SMOOTH",
"257 700 OFFCURVE",
"100 543 OFFCURVE",
"100 350 CURVE SMOOTH"
);
},
{
closed = 1;
nodes = (
"228 514 OFFCURVE",
"329 600 OFFCURVE",
"450 600 CURVE SMOOTH",
"571 600 OFFCURVE",
"672 514 OFFCURVE",
"690 400 CURVE",
"210 400 LINE"
);
}
);
width = 900;
},
{
layerId = "DCFDD359-D3A1-4A9B-975E-26381AFB2AA7";
paths = (
{
closed = 1;
nodes = (
"100 155 OFFCURVE",
"255 0 OFFCURVE",
"450 0 CURVE SMOOTH",
"550 0 OFFCURVE",
"635 40 OFFCURVE",
"700 100 CURVE",
"590 210 LINE",
"555 175 OFFCURVE",
"505 150 OFFCURVE",
"450 150 CURVE SMOOTH",
"340 150 OFFCURVE",
"250 240 OFFCURVE",
"250 350 CURVE SMOOTH",
"250 460 OFFCURVE",
"340 550 OFFCURVE",
"450 550 CURVE SMOOTH",
"560 550 OFFCURVE",
"650 460 OFFCURVE",
"650 350 CURVE",
"800 350 LINE",
"800 545 OFFCURVE",
"645 700 OFFCURVE",
"450 700 CURVE SMOOTH",
"255 700 OFFCURVE",
"100 545 OFFCURVE",
"100 350 CURVE SMOOTH"
);
},
{
closed = 1;
nodes = (
"250 275 LINE",
"800 275 LINE",
"800 350 LINE",
"250 350 LINE"
);
},
{
closed = 1;
nodes = (
"250 350 LINE",
"750 350 LINE",
"750 425 LINE",
"250 425 LINE"
);
}
);
width = 900;
},
{
layerId = "833FD172-3601-4257-8297-A103CE2A393F";
paths = (
{
closed = 1;
nodes = (
"100 155 OFFCURVE",
"255 0 OFFCURVE",
"450 0 CURVE SMOOTH",
"545 0 OFFCURVE",
"635 40 OFFCURVE",
"695 105 CURVE",
"660 140 LINE",
"610 85 OFFCURVE",
"535 50 OFFCURVE",
"450 50 CURVE SMOOTH",
"285 50 OFFCURVE",
"150 185 OFFCURVE",
"150 350 CURVE SMOOTH",
"150 515 OFFCURVE",
"285 650 OFFCURVE",
"450 650 CURVE SMOOTH",
"615 650 OFFCURVE",
"750 515 OFFCURVE",
"750 350 CURVE",
"800 350 LINE",
"800 545 OFFCURVE",
"645 700 OFFCURVE",
"450 700 CURVE SMOOTH",
"255 700 OFFCURVE",
"100 545 OFFCURVE",
"100 350 CURVE SMOOTH"
);
},
{
closed = 1;
nodes = (
"150 325 LINE",
"800 325 LINE",
"800 350 LINE",
"150 350 LINE"
);
},
{
closed = 1;
nodes = (
"150 350 LINE",
"775 350 LINE",
"775 375 LINE",
"150 375 LINE"
);
}
);
width = 900;
}
);
leftKerningGroup = o;
rightKerningGroup = o;
unicode = 0065;
},
{
glyphname = f;
lastChange = "2017-09-27 20:28:47 +0000";
layers = (
{
components = (
{
name = _quartercircle_6;
}
);
hints = (
{
horizontal = 1;
origin = "{0, 3}";
target = "{0, 2}";
},
{
horizontal = 1;
origin = "{3, 3}";
target = "{3, 2}";
},
{
origin = "{0, 3}";
target = "{0, 0}";
}
);
layerId = "926D8932-2CBE-4DA1-A7EC-AA50FD678EE5";
paths = (
{
closed = 1;
nodes = (
"200 300 LINE",
"200 400 LINE",
"100 400 LINE",
"100 300 LINE"
);
},
{
closed = 1;
nodes = (
"500 300 LINE",
"500 400 LINE",
"300 400 LINE",
"300 300 LINE"
);
},
{
closed = 1;
nodes = (
"300 700 LINE",
"305 755 OFFCURVE",
"350 800 OFFCURVE",
"400 800 CURVE",
"400 900 LINE",
"295 900 OFFCURVE",
"205 810 OFFCURVE",
"200 700 CURVE"
);
},
{
closed = 1;
nodes = (
"500 800 LINE",
"500 900 LINE",
"400 900 LINE",
"400 800 LINE"
);
}
);
width = 600;
},
{
components = (
{
name = _quartercircle_6;
}
);
layerId = "DCFDD359-D3A1-4A9B-975E-26381AFB2AA7";
paths = (
{
closed = 1;
nodes = (
"475 750 LINE",
"500 750 LINE",
"500 900 LINE",
"475 900 LINE"
);
},
{
closed = 1;
nodes = (
"175 -200 LINE",
"325 -200 LINE",
"325 600 LINE",
"175 600 LINE"
);
},
{
closed = 1;
nodes = (
"100 275 LINE",
"500 275 LINE",
"500 425 LINE",
"100 425 LINE"
);
}
);
width = 600;
},
{
components = (
{
name = _quartercircle_6;
}
);
layerId = "833FD172-3601-4257-8297-A103CE2A393F";
paths = (
{
closed = 1;
nodes = (
"450 325 LINE",
"450 375 LINE",
"100 375 LINE",
"100 325 LINE"
);
},
{
closed = 1;
nodes = (
"275 700 LINE",
"275 785 OFFCURVE",
"340 850 OFFCURVE",
"425 850 CURVE",
"425 900 LINE",
"315 900 OFFCURVE",
"225 810 OFFCURVE",
"225 700 CURVE"
);
},
{
closed = 1;
nodes = (
"425 850 LINE",
"500 850 LINE",
"500 900 LINE",
"425 900 LINE"
);
}
);
width = 600;
}
);
unicode = 0066;
},
{
glyphname = g;
lastChange = "2017-09-27 20:28:29 +0000";
layers = (
{
layerId = "926D8932-2CBE-4DA1-A7EC-AA50FD678EE5";
paths = (
{
closed = 1;
nodes = (
"397 -384 OFFCURVE",
"800 -300 OFFCURVE",
"800 50 CURVE",
"700 50 LINE",
"700 -88 OFFCURVE",
"588 -200 OFFCURVE",
"450 -200 CURVE SMOOTH",
"381 -200 OFFCURVE",
"319 -172 OFFCURVE",
"270 -130 CURVE",
"200 -200 LINE"
);
},
{
closed = 1;
nodes = (
"643 0 OFFCURVE",
"800 157 OFFCURVE",
"800 350 CURVE SMOOTH",
"800 543 OFFCURVE",
"643 700 OFFCURVE",
"450 700 CURVE SMOOTH",
"257 700 OFFCURVE",
"100 543 OFFCURVE",
"100 350 CURVE SMOOTH",
"100 157 OFFCURVE",
"257 0 OFFCURVE",
"450 0 CURVE SMOOTH"
);
},
{
closed = 1;
nodes = (
"312 100 OFFCURVE",
"200 212 OFFCURVE",
"200 350 CURVE SMOOTH",
"200 488 OFFCURVE",
"312 600 OFFCURVE",
"450 600 CURVE SMOOTH",
"588 600 OFFCURVE",
"700 488 OFFCURVE",
"700 350 CURVE SMOOTH",
"700 212 OFFCURVE",
"588 100 OFFCURVE",
"450 100 CURVE SMOOTH"
);
},
{
closed = 1;
nodes = (
"700 50 LINE",
"800 50 LINE",
"800 350 LINE",
"700 350 LINE"
);
},
{
closed = 1;
nodes = (
"700 500 LINE",
"700 350 LINE",
"800 350 LINE",
"800 700 LINE",
"700 700 LINE"
);
}
);
width = 900;
},
{
components = (
{
name = _circle_7;
}
);
layerId = "DCFDD359-D3A1-4A9B-975E-26381AFB2AA7";
paths = (
{
closed = 1;
nodes = (
"800 700 LINE",
"700 700 LINE",
"650 500 LINE",
"650 50 LINE",
"800 50 LINE"
);
},
{
closed = 1;
nodes = (
"310 -90 LINE",
"340 -130 OFFCURVE",
"390 -150 OFFCURVE",
"450 -150 CURVE SMOOTH",
"560 -150 OFFCURVE",
"650 -60 OFFCURVE",
"650 50 CURVE",
"800 50 LINE",
"800 -140 OFFCURVE",
"640 -300 OFFCURVE",
"450 -300 CURVE SMOOTH",
"350 -300 OFFCURVE",
"270 -260 OFFCURVE",
"200 -200 CURVE"
);
}
);
width = 900;
},
{
components = (
{
name = o;
}
);
layerId = "833FD172-3601-4257-8297-A103CE2A393F";
paths = (
{
closed = 1;
nodes = (
"265 -260 OFFCURVE",
"355 -300 OFFCURVE",
"450 -300 CURVE SMOOTH",
"645 -300 OFFCURVE",
"800 -145 OFFCURVE",
"800 50 CURVE",
"750 50 LINE",
"750 -115 OFFCURVE",
"615 -250 OFFCURVE",
"450 -250 CURVE SMOOTH",
"370 -250 OFFCURVE",
"295 -215 OFFCURVE",
"240 -160 CURVE",
"200 -200 LINE"
);
},
{
closed = 1;
nodes = (
"750 50 LINE",
"800 50 LINE",
"800 700 LINE",
"750 700 LINE"
);
}
);
width = 900;
}
);
leftKerningGroup = o;
rightKerningGroup = l;
unicode = 0067;
},
{
glyphname = h;
lastChange = "2017-09-27 20:28:29 +0000";
layers = (
{
layerId = "926D8932-2CBE-4DA1-A7EC-AA50FD678EE5";
paths = (
{
closed = 1;
nodes = (
"200 400 LINE",
"200 511 OFFCURVE",
"289 600 OFFCURVE",
"400 600 CURVE SMOOTH",
"511 600 OFFCURVE",
"600 510 OFFCURVE",
"600 400 CURVE",
"700 400 LINE",
"700 565 OFFCURVE",
"566 700 OFFCURVE",
"400 700 CURVE SMOOTH",
"234 700 OFFCURVE",
"100 566 OFFCURVE",
"100 400 CURVE"
);
},
{
closed = 1;
nodes = (
"200 0 LINE",
"200 1000 LINE",
"100 1000 LINE",
"100 0 LINE"
);
},
{
closed = 1;
nodes = (
"700 0 LINE",
"700 400 LINE",
"600 400 LINE",
"600 0 LINE"
);
}
);
width = 800;
},
{
components = (
{
name = n;
}
);
layerId = "DCFDD359-D3A1-4A9B-975E-26381AFB2AA7";
paths = (
{
closed = 1;
nodes = (
"100 400 LINE",
"250 400 LINE",
"250 1000 LINE",
"100 1000 LINE"
);
}
);
width = 800;
},
{
layerId = "833FD172-3601-4257-8297-A103CE2A393F";
paths = (
{
closed = 1;
nodes = (
"150 0 LINE",
"150 715 LINE",
"150 1000 LINE",
"100 1000 LINE",
"100 0 LINE"
);
},
{
closed = 1;
nodes = (
"650 0 LINE",
"700 0 LINE",
"700 400 LINE",
"650 400 LINE"
);
},
{
closed = 1;
nodes = (
"150 400 LINE",
"150 540 OFFCURVE",
"260 650 OFFCURVE",
"400 650 CURVE SMOOTH",
"540 650 OFFCURVE",
"650 540 OFFCURVE",
"650 400 CURVE",
"700 400 LINE",
"700 565 OFFCURVE",
"565 700 OFFCURVE",
"400 700 CURVE SMOOTH",
"235 700 OFFCURVE",
"100 565 OFFCURVE",
"100 400 CURVE"
);
}
);
width = 800;
}
);
leftKerningGroup = l;
rightKerningGroup = n;
unicode = 0068;
},
{
glyphname = hbar;
lastChange = "2017-09-26 17:35:31 +0000";
layers = (
{
components = (
{
name = h;
}
);
layerId = "926D8932-2CBE-4DA1-A7EC-AA50FD678EE5";
paths = (
{
closed = 1;
nodes = (
"0 800 LINE",
"400 800 LINE",
"400 900 LINE",
"0 900 LINE"
);
}
);
width = 800;
},
{
layerId = "DCFDD359-D3A1-4A9B-975E-26381AFB2AA7";
width = 600;
},
{
layerId = "833FD172-3601-4257-8297-A103CE2A393F";
width = 600;
}
);
unicode = 0127;
},
{
glyphname = i;
lastChange = "2017-09-27 15:39:38 +0000";
layers = (
{
anchors = (
{
name = bottom;
position = "{200, 0}";
}
);
hints = (
{
horizontal = 1;
place = "{0, 100}";
},
{
horizontal = 1;
origin = "{1, 0}";
target = "{1, 3}";
},
{
horizontal = 1;
origin = "{2, 0}";
target = "{2, 3}";
},
{
origin = "{0, 0}";
target = "{0, 1}";
},
{
horizontal = 1;
place = "{0, 100}";
type = TTStem;
options = 4;
},
{
horizontal = 1;
origin = "{1, 0}";
target = "{1, 3}";
type = TTStem;
options = 4;
},
{
horizontal = 1;
origin = "{2, 0}";
target = "{2, 3}";
type = TTStem;
options = 4;
}
);
layerId = "926D8932-2CBE-4DA1-A7EC-AA50FD678EE5";
paths = (
{
closed = 1;
nodes = (
"200 0 LINE",
"300 0 LINE",
"300 700 LINE",
"200 700 LINE"
);
},
{
closed = 1;
nodes = (
"100 600 LINE",
"200 600 LINE",
"200 700 LINE",
"100 700 LINE"
);
},
{
closed = 1;
nodes = (
"150 800 LINE",
"300 800 LINE",
"300 950 LINE",
"150 950 LINE"
);
},
{
closed = 1;
nodes = (
"100 0 LINE",
"400 0 LINE",
"400 100 LINE",
"100 100 LINE"
);
}
);
width = 450;
},
{
layerId = "DCFDD359-D3A1-4A9B-975E-26381AFB2AA7";
paths = (
{
closed = 1;
nodes = (
"175 0 LINE",
"325 0 LINE",
"325 700 LINE",
"175 700 LINE"
);
},
{
closed = 1;
nodes = (
"75 550 LINE",
"325 550 LINE",
"325 700 LINE",
"75 700 LINE"
);
},
{
closed = 1;
nodes = (
"125 800 LINE",
"325 800 LINE",
"325 1000 LINE",
"125 1000 LINE"
);
},
{
closed = 1;
nodes = (
"100 0 LINE",
"400 0 LINE",
"400 150 LINE",
"100 150 LINE"
);
}
);
width = 450;
},
{
layerId = "833FD172-3601-4257-8297-A103CE2A393F";
paths = (
{
closed = 1;
nodes = (
"225 0 LINE",
"275 0 LINE",
"275 700 LINE",
"225 700 LINE"
);
},
{
closed = 1;
nodes = (
"100 650 LINE",
"275 650 LINE",
"275 700 LINE",
"100 700 LINE"
);
},
{
closed = 1;
nodes = (
"200 800 LINE",
"300 800 LINE",
"300 900 LINE",
"200 900 LINE"
);
},
{
closed = 1;
nodes = (
"100 0 LINE",
"400 0 LINE",
"400 50 LINE",
"100 50 LINE"
);
}
);
width = 450;
}
);
rightKerningGroup = i;
unicode = 0069;
},
{
glyphname = dotlessi;
lastChange = "2017-09-27 08:31:06 +0000";
layers = (
{
layerId = "926D8932-2CBE-4DA1-A7EC-AA50FD678EE5";
paths = (
{
closed = 1;
nodes = (
"200 0 LINE",
"300 0 LINE",
"300 700 LINE",
"200 700 LINE"
);
},
{
closed = 1;
nodes = (
"100 600 LINE",
"200 600 LINE",
"200 700 LINE",
"100 700 LINE"
);
}
);
width = 400;
},
{
layerId = "DCFDD359-D3A1-4A9B-975E-26381AFB2AA7";
paths = (
{
closed = 1;
nodes = (
"175 0 LINE",
"325 0 LINE",
"325 700 LINE",
"175 700 LINE"
);
},
{
closed = 1;
nodes = (
"75 550 LINE",
"325 550 LINE",
"325 700 LINE",
"75 700 LINE"
);
}
);
width = 400;
},
{
layerId = "833FD172-3601-4257-8297-A103CE2A393F";
width = 600;
}
);
unicode = 0131;
},
{
glyphname = iacute;
lastChange = "2017-09-27 08:27:45 +0000";
layers = (
{
components = (
{
name = acutecomb;
transform = "{1, 0, 0, 1, 100, 0}";
}
);
layerId = "926D8932-2CBE-4DA1-A7EC-AA50FD678EE5";
paths = (
{
closed = 1;
nodes = (
"200 0 LINE",
"300 0 LINE",
"300 700 LINE",
"200 700 LINE"
);
},
{
closed = 1;
nodes = (
"100 600 LINE",
"200 600 LINE",
"200 700 LINE",
"100 700 LINE"
);
}
);
width = 400;
},
{
components = (
{
name = dotlessi;
},
{
name = acutecomb;
transform = "{1, 0, 0, 1, 90, 0}";
}
);
layerId = "DCFDD359-D3A1-4A9B-975E-26381AFB2AA7";
width = 400;
},
{
layerId = "833FD172-3601-4257-8297-A103CE2A393F";
width = 600;
}
);
unicode = 00ED;
},
{
glyphname = icircumflex;
lastChange = "2017-09-27 08:28:03 +0000";
layers = (
{
components = (
{
name = circumflexcomb;
}
);
layerId = "926D8932-2CBE-4DA1-A7EC-AA50FD678EE5";
paths = (
{
closed = 1;
nodes = (
"200 0 LINE",
"300 0 LINE",
"300 700 LINE",
"200 700 LINE"
);
},
{
closed = 1;
nodes = (
"100 600 LINE",
"200 600 LINE",
"200 700 LINE",
"100 700 LINE"
);
}
);
width = 400;
},
{
components = (
{
name = dotlessi;
},
{
name = circumflexcomb;
}
);
layerId = "DCFDD359-D3A1-4A9B-975E-26381AFB2AA7";
width = 400;
},
{
layerId = "833FD172-3601-4257-8297-A103CE2A393F";
width = 600;
}
);
unicode = 00EE;
},
{
glyphname = idieresis;
lastChange = "2017-09-27 08:28:27 +0000";
layers = (
{
components = (
{
name = dieresiscomb;
}
);
layerId = "926D8932-2CBE-4DA1-A7EC-AA50FD678EE5";
paths = (
{
closed = 1;
nodes = (
"200 0 LINE",
"300 0 LINE",
"300 700 LINE",
"200 700 LINE"
);
},
{
closed = 1;
nodes = (
"100 600 LINE",
"200 600 LINE",
"200 700 LINE",
"100 700 LINE"
);
}
);
width = 400;
},
{
components = (
{
name = dotlessi;
},
{
name = dieresiscomb;
}
);
layerId = "DCFDD359-D3A1-4A9B-975E-26381AFB2AA7";
width = 400;
},
{
layerId = "833FD172-3601-4257-8297-A103CE2A393F";
width = 600;
}
);
unicode = 00EF;
},
{
glyphname = igrave;
lastChange = "2017-09-27 08:28:44 +0000";
layers = (
{
components = (
{
name = gravecomb;
}
);
layerId = "926D8932-2CBE-4DA1-A7EC-AA50FD678EE5";
paths = (
{
closed = 1;
nodes = (
"200 0 LINE",
"300 0 LINE",
"300 700 LINE",
"200 700 LINE"
);
},
{
closed = 1;
nodes = (
"100 600 LINE",
"200 600 LINE",
"200 700 LINE",
"100 700 LINE"
);
}
);
width = 400;
},
{
components = (
{
name = dotlessi;
},
{
name = gravecomb;
}
);
layerId = "DCFDD359-D3A1-4A9B-975E-26381AFB2AA7";
width = 400;
},
{
layerId = "833FD172-3601-4257-8297-A103CE2A393F";
width = 600;
}
);
unicode = 00EC;
},
{
glyphname = ij;
lastChange = "2017-09-27 08:30:11 +0000";
layers = (
{
hints = (
{
horizontal = 1;
place = "{0, 100}";
},
{
horizontal = 1;
origin = "{1, 0}";
target = "{1, 3}";
},
{
horizontal = 1;
origin = "{2, 0}";
target = "{2, 3}";
},
{
origin = "{0, 0}";
target = "{0, 1}";
},
{
horizontal = 1;
place = "{0, 100}";
type = TTStem;
options = 4;
},
{
horizontal = 1;
origin = "{1, 0}";
target = "{1, 3}";
type = TTStem;
options = 4;
},
{
horizontal = 1;
origin = "{2, 0}";
target = "{2, 3}";
type = TTStem;
options = 4;
}
);
layerId = "926D8932-2CBE-4DA1-A7EC-AA50FD678EE5";
paths = (
{
closed = 1;
nodes = (
"200 0 LINE",
"300 0 LINE",
"300 700 LINE",
"200 700 LINE"
);
},
{
closed = 1;
nodes = (
"100 600 LINE",
"200 600 LINE",
"200 700 LINE",
"100 700 LINE"
);
},
{
closed = 1;
nodes = (
"150 800 LINE",
"300 800 LINE",
"300 950 LINE",
"150 950 LINE"
);
},
{
closed = 1;
nodes = (
"600 200 LINE",
"600 700 LINE",
"500 700 LINE",
"500 -50 LINE",
"600 -50 LINE"
);
},
{
closed = 1;
nodes = (
"490 -300 OFFCURVE",
"600 -190 OFFCURVE",
"600 -50 CURVE",
"500 -50 LINE",
"500 -130 OFFCURVE",
"430 -200 OFFCURVE",
"350 -200 CURVE",
"350 -300 LINE"
);
},
{
closed = 1;
nodes = (
"400 600 LINE",
"500 600 LINE",
"500 700 LINE",
"400 700 LINE"
);
},
{
closed = 1;
nodes = (
"450 800 LINE",
"600 800 LINE",
"600 950 LINE",
"450 950 LINE"
);
}
);
width = 700;
},
{
components = (
{
name = i;
transform = "{1, 0, 0, 1, -75, 0}";
},
{
name = j;
transform = "{1, 0, 0, 1, 200, 0}";
}
);
layerId = "DCFDD359-D3A1-4A9B-975E-26381AFB2AA7";
width = 600;
},
{
layerId = "833FD172-3601-4257-8297-A103CE2A393F";
width = 600;
}
);
unicode = 0133;
},
{
glyphname = imacron;
lastChange = "2017-09-25 00:58:25 +0000";
layers = (
{
components = (
{
name = macron;
transform = "{1, 0, 0, 1, -50, -100}";
}
);
layerId = "926D8932-2CBE-4DA1-A7EC-AA50FD678EE5";
paths = (
{
closed = 1;
nodes = (
"200 0 LINE",
"300 0 LINE",
"300 700 LINE",
"200 700 LINE"
);
},
{
closed = 1;
nodes = (
"100 600 LINE",
"200 600 LINE",
"200 700 LINE",
"100 700 LINE"
);
}
);
width = 400;
},
{
layerId = "DCFDD359-D3A1-4A9B-975E-26381AFB2AA7";
width = 600;
},
{
layerId = "833FD172-3601-4257-8297-A103CE2A393F";
width = 600;
}
);
unicode = 012B;
},
{
glyphname = itilde;
lastChange = "2017-09-25 00:58:25 +0000";
layers = (
{
components = (
{
name = tildecomb;
transform = "{1, 0, 0, 1, -100, 0}";
}
);
layerId = "926D8932-2CBE-4DA1-A7EC-AA50FD678EE5";
paths = (
{
closed = 1;
nodes = (
"200 0 LINE",
"300 0 LINE",
"300 700 LINE",
"200 700 LINE"
);
},
{
closed = 1;
nodes = (
"100 600 LINE",
"200 600 LINE",
"200 700 LINE",
"100 700 LINE"
);
}
);
width = 500;
},
{
layerId = "DCFDD359-D3A1-4A9B-975E-26381AFB2AA7";
width = 600;
},
{
layerId = "833FD172-3601-4257-8297-A103CE2A393F";
width = 600;
}
);
unicode = 0129;
},
{
glyphname = j;
lastChange = "2017-09-27 00:27:07 +0000";
layers = (
{
layerId = "926D8932-2CBE-4DA1-A7EC-AA50FD678EE5";
paths = (
{
closed = 1;
nodes = (
"350 200 LINE",
"350 700 LINE",
"250 700 LINE",
"250 -50 LINE",
"350 -50 LINE"
);
},
{
closed = 1;
nodes = (
"239 -302 OFFCURVE",
"351 -190 OFFCURVE",
"350 -50 CURVE",
"250 -50 LINE",
"250 -133 OFFCURVE",
"183 -200 OFFCURVE",
"100 -200 CURVE",
"100 -300 LINE"
);
},
{
closed = 1;
nodes = (
"150 600 LINE",
"250 600 LINE",
"250 700 LINE",
"150 700 LINE"
);
},
{
closed = 1;
nodes = (
"200 800 LINE",
"350 800 LINE",
"350 950 LINE",
"200 950 LINE"
);
}
);
width = 450;
},
{
layerId = "DCFDD359-D3A1-4A9B-975E-26381AFB2AA7";
paths = (
{
closed = 1;
nodes = (
"350 200 LINE",
"350 700 LINE",
"200 700 LINE",
"200 -50 LINE",
"350 -50 LINE"
);
},
{
closed = 1;
nodes = (
"100 550 LINE",
"200 550 LINE",
"200 700 LINE",
"100 700 LINE"
);
},
{
closed = 1;
nodes = (
"150 800 LINE",
"350 800 LINE",
"350 1000 LINE",
"150 1000 LINE"
);
},
{
closed = 1;
nodes = (
"100 -150 LINE",
"155 -150 OFFCURVE",
"200 -105 OFFCURVE",
"200 -50 CURVE",
"350 -50 LINE",
"350 -190 OFFCURVE",
"240 -300 OFFCURVE",
"100 -300 CURVE"
);
}
);
width = 450;
},
{
layerId = "833FD172-3601-4257-8297-A103CE2A393F";
paths = (
{
closed = 1;
nodes = (
"325 200 LINE",
"325 700 LINE",
"275 700 LINE",
"275 -50 LINE",
"325 -50 LINE"
);
},
{
closed = 1;
nodes = (
"150 650 LINE",
"325 650 LINE",
"325 700 LINE",
"150 700 LINE"
);
},
{
closed = 1;
nodes = (
"250 800 LINE",
"350 800 LINE",
"350 900 LINE",
"250 900 LINE"
);
},
{
closed = 1;
nodes = (
"215 -300 OFFCURVE",
"325 -190 OFFCURVE",
"325 -50 CURVE",
"275 -50 LINE",
"275 -160 OFFCURVE",
"185 -250 OFFCURVE",
"75 -250 CURVE",
"75 -300 LINE"
);
}
);
width = 450;
}
);
unicode = 006A;
},
{
glyphname = jcircumflex;
lastChange = "2017-09-25 00:58:25 +0000";
layers = (
{
components = (
{
name = circumflexcomb;
transform = "{1, 0, 0, 1, 50, 0}";
}
);
layerId = "926D8932-2CBE-4DA1-A7EC-AA50FD678EE5";
paths = (
{
closed = 1;
nodes = (
"350 200 LINE",
"350 700 LINE",
"250 700 LINE",
"250 -50 LINE",
"350 -50 LINE"
);
},
{
closed = 1;
nodes = (
"239 -302 OFFCURVE",
"351 -190 OFFCURVE",
"350 -50 CURVE",
"250 -50 LINE",
"250 -133 OFFCURVE",
"183 -200 OFFCURVE",
"100 -200 CURVE",
"100 -300 LINE"
);
},
{
closed = 1;
nodes = (
"150 600 LINE",
"250 600 LINE",
"250 700 LINE",
"150 700 LINE"
);
}
);
width = 450;
},
{
layerId = "DCFDD359-D3A1-4A9B-975E-26381AFB2AA7";
width = 600;
},
{
layerId = "833FD172-3601-4257-8297-A103CE2A393F";
width = 600;
}
);
unicode = 0135;
},
{
glyphname = k;
lastChange = "2017-09-27 00:30:17 +0000";
layers = (
{
layerId = "926D8932-2CBE-4DA1-A7EC-AA50FD678EE5";
paths = (
{
closed = 1;
nodes = (
"100 0 LINE",
"200 0 LINE",
"200 1000 LINE",
"100 1000 LINE"
);
},
{
closed = 1;
nodes = (
"480 0 LINE",
"620 0 LINE",
"270 350 LINE",
"620 700 LINE",
"480 700 LINE",
"130 350 LINE"
);
}
);
width = 700;
},
{
layerId = "DCFDD359-D3A1-4A9B-975E-26381AFB2AA7";
paths = (
{
closed = 1;
nodes = (
"100 0 LINE",
"260 0 LINE",
"260 1000 LINE",
"100 1000 LINE"
);
},
{
closed = 1;
nodes = (
"480 0 LINE",
"700 0 LINE",
"350 350 LINE",
"700 700 LINE",
"480 700 LINE",
"130 350 LINE"
);
}
);
width = 700;
},
{
layerId = "833FD172-3601-4257-8297-A103CE2A393F";
paths = (
{
closed = 1;
nodes = (
"150 0 LINE",
"200 0 LINE",
"200 1000 LINE",
"150 1000 LINE"
);
},
{
closed = 1;
nodes = (
"530 0 LINE",
"600 0 LINE",
"250 350 LINE",
"600 700 LINE",
"530 700 LINE",
"180 350 LINE"
);
}
);
width = 700;
}
);
leftKerningGroup = l;
unicode = 006B;
},
{
glyphname = kgreenlandic;
lastChange = "2017-09-26 17:36:40 +0000";
layers = (
{
layerId = "926D8932-2CBE-4DA1-A7EC-AA50FD678EE5";
paths = (
{
closed = 1;
nodes = (
"100 0 LINE",
"200 0 LINE",
"200 700 LINE",
"100 700 LINE"
);
},
{
closed = 1;
nodes = (
"200 280 LINE",
"510 -30 LINE",
"580 40 LINE",
"270 350 LINE",
"580 660 LINE",
"510 730 LINE",
"200 420 LINE",
"130 350 LINE"
);
}
);
width = 600;
},
{
layerId = "DCFDD359-D3A1-4A9B-975E-26381AFB2AA7";
width = 600;
},
{
layerId = "833FD172-3601-4257-8297-A103CE2A393F";
width = 600;
}
);
unicode = 0138;
},
{
glyphname = l;
lastChange = "2017-09-27 00:05:28 +0000";
layers = (
{
hints = (
{
horizontal = 1;
place = "{0, 100}";
},
{
horizontal = 1;
origin = "{1, 0}";
target = "{1, 3}";
},
{
origin = "{0, 0}";
target = "{0, 1}";
}
);
layerId = "926D8932-2CBE-4DA1-A7EC-AA50FD678EE5";
paths = (
{
closed = 1;
nodes = (
"200 0 LINE",
"300 0 LINE",
"300 1000 LINE",
"200 1000 LINE"
);
},
{
closed = 1;
nodes = (
"100 900 LINE",
"200 900 LINE",
"200 1000 LINE",
"100 1000 LINE"
);
},
{
closed = 1;
nodes = (
"100 0 LINE",
"400 0 LINE",
"400 100 LINE",
"100 100 LINE"
);
}
);
width = 500;
},
{
layerId = "DCFDD359-D3A1-4A9B-975E-26381AFB2AA7";
paths = (
{
closed = 1;
nodes = (
"170 0 LINE",
"330 0 LINE",
"330 1000 LINE",
"170 1000 LINE"
);
},
{
closed = 1;
nodes = (
"70 850 LINE",
"200 850 LINE",
"200 1000 LINE",
"70 1000 LINE"
);
},
{
closed = 1;
nodes = (
"70 0 LINE",
"430 0 LINE",
"430 150 LINE",
"70 150 LINE"
);
}
);
width = 500;
},
{
layerId = "833FD172-3601-4257-8297-A103CE2A393F";
paths = (
{
closed = 1;
nodes = (
"225 0 LINE",
"275 0 LINE",
"275 1000 LINE",
"225 1000 LINE"
);
},
{
closed = 1;
nodes = (
"100 950 LINE",
"275 950 LINE",
"275 1000 LINE",
"100 1000 LINE"
);
},
{
closed = 1;
nodes = (
"100 0 LINE",
"400 0 LINE",
"400 50 LINE",
"100 50 LINE"
);
}
);
width = 500;
}
);
unicode = 006C;
},
{
glyphname = lslash;
lastChange = "2017-09-28 19:55:06 +0000";
layers = (
{
components = (
{
name = l;
transform = "{1, 0, 0, 1, 100, 0}";
}
);
layerId = "926D8932-2CBE-4DA1-A7EC-AA50FD678EE5";
paths = (
{
closed = 1;
nodes = (
"120 440 LINE",
"600 570 LINE",
"580 660 LINE",
"100 530 LINE"
);
}
);
width = 700;
},
{
components = (
{
name = l;
transform = "{1, 0, 0, 1, 100, 0}";
}
);
layerId = "DCFDD359-D3A1-4A9B-975E-26381AFB2AA7";
paths = (
{
closed = 1;
nodes = (
"125 420 LINE",
"605 550 LINE",
"575 685 LINE",
"95 555 LINE"
);
}
);
width = 700;
},
{
layerId = "833FD172-3601-4257-8297-A103CE2A393F";
width = 600;
}
);
unicode = 0142;
},
{
glyphname = m;
lastChange = "2017-09-27 19:04:05 +0000";
layers = (
{
components = (
{
name = _halfcircle_m;
}
);
layerId = "926D8932-2CBE-4DA1-A7EC-AA50FD678EE5";
paths = (
{
closed = 1;
nodes = (
"200 0 LINE",
"200 450 LINE",
"200 700 LINE",
"100 700 LINE",
"100 0 LINE"
);
},
{
closed = 1;
nodes = (
"600 0 LINE",
"500 0 LINE",
"500 450 LINE",
"600 450 LINE"
);
},
{
closed = 1;
nodes = (
"433 600 OFFCURVE",
"500 533 OFFCURVE",
"500 450 CURVE",
"600 450 LINE",
"602 589 OFFCURVE",
"490 701 OFFCURVE",
"350 700 CURVE",
"350 600 LINE"
);
},
{
closed = 1;
nodes = (
"833 600 OFFCURVE",
"900 533 OFFCURVE",
"900 450 CURVE",
"1000 450 LINE",
"1002 589 OFFCURVE",
"890 701 OFFCURVE",
"750 700 CURVE",
"750 600 LINE"
);
},
{
closed = 1;
nodes = (
"750 700 LINE",
"610 701 OFFCURVE",
"498 589 OFFCURVE",
"500 450 CURVE",
"600 450 LINE",
"600 533 OFFCURVE",
"667 600 OFFCURVE",
"750 600 CURVE"
);
},
{
closed = 1;
nodes = (
"1000 0 LINE",
"900 0 LINE",
"900 450 LINE",
"1000 450 LINE"
);
}
);
width = 1100;
},
{
components = (
{
name = _halfcircle_m;
},
{
name = _halfcircle_m;
transform = "{1, 0, 0, 1, 375, 0}";
}
);
hints = (
{
place = "{0, 30}";
}
);
layerId = "DCFDD359-D3A1-4A9B-975E-26381AFB2AA7";
paths = (
{
closed = 1;
nodes = (
"850 0 LINE",
"1000 0 LINE",
"1000 440 LINE",
"850 440 LINE"
);
},
{
closed = 1;
nodes = (
"100 0 LINE",
"250 0 LINE",
"250 440 LINE",
"100 440 LINE"
);
},
{
closed = 1;
nodes = (
"475 0 LINE",
"625 0 LINE",
"625 440 LINE",
"475 440 LINE"
);
},
{
closed = 1;
nodes = (
"100 440 LINE",
"250 440 LINE",
"200 700 LINE",
"100 700 LINE"
);
}
);
width = 1100;
},
{
layerId = "833FD172-3601-4257-8297-A103CE2A393F";
width = 1100;
}
);
leftKerningGroup = n;
rightKerningGroup = n;
unicode = 006D;
},
{
glyphname = n;
lastChange = "2017-09-27 20:28:29 +0000";
layers = (
{
hints = (
{
horizontal = 1;
place = "{600, 100}";
},
{
place = "{100, 100}";
},
{
place = "{500, 100}";
},
{
horizontal = 1;
place = "{600, 100}";
type = TTStem;
options = 4;
}
);
layerId = "926D8932-2CBE-4DA1-A7EC-AA50FD678EE5";
paths = (
{
closed = 1;
nodes = (
"200 400 LINE",
"200 511 OFFCURVE",
"289 600 OFFCURVE",
"400 600 CURVE SMOOTH",
"511 600 OFFCURVE",
"600 510 OFFCURVE",
"600 400 CURVE",
"700 400 LINE",
"700 565 OFFCURVE",
"566 700 OFFCURVE",
"400 700 CURVE SMOOTH",
"234 700 OFFCURVE",
"150 566 OFFCURVE",
"150 400 CURVE"
);
},
{
closed = 1;
nodes = (
"200 0 LINE",
"200 500 LINE",
"200 700 LINE",
"100 700 LINE",
"100 0 LINE"
);
},
{
closed = 1;
nodes = (
"600 0 LINE",
"700 0 LINE",
"700 400 LINE",
"600 400 LINE"
);
}
);
width = 800;
},
{
components = (
{
name = _halfcircle_6;
transform = "{-1, 0, 0, -1, 800, 700}";
}
);
layerId = "DCFDD359-D3A1-4A9B-975E-26381AFB2AA7";
paths = (
{
closed = 1;
nodes = (
"100 0 LINE",
"250 0 LINE",
"250 400 LINE",
"200 700 LINE",
"100 700 LINE"
);
},
{
closed = 1;
nodes = (
"550 0 LINE",
"700 0 LINE",
"700 400 LINE",
"550 400 LINE"
);
}
);
width = 800;
},
{
layerId = "833FD172-3601-4257-8297-A103CE2A393F";
paths = (
{
closed = 1;
nodes = (
"150 0 LINE",
"150 500 LINE",
"150 700 LINE",
"100 700 LINE",
"100 0 LINE"
);
},
{
closed = 1;
nodes = (
"650 0 LINE",
"700 0 LINE",
"700 400 LINE",
"650 400 LINE"
);
},
{
closed = 1;
nodes = (
"150 400 LINE",
"150 540 OFFCURVE",
"260 650 OFFCURVE",
"400 650 CURVE SMOOTH",
"540 650 OFFCURVE",
"650 540 OFFCURVE",
"650 400 CURVE",
"700 400 LINE",
"700 565 OFFCURVE",
"565 700 OFFCURVE",
"400 700 CURVE SMOOTH",
"235 700 OFFCURVE",
"100 565 OFFCURVE",
"100 400 CURVE"
);
}
);
width = 800;
}
);
leftKerningGroup = n;
rightKerningGroup = n;
unicode = 006E;
},
{
glyphname = eng;
lastChange = "2017-09-25 00:58:25 +0000";
layers = (
{
components = (
{
name = n;
}
);
layerId = "926D8932-2CBE-4DA1-A7EC-AA50FD678EE5";
paths = (
{
closed = 1;
nodes = (
"566 -300 OFFCURVE",
"700 -166 OFFCURVE",
"700 0 CURVE",
"600 0 LINE",
"600 -110 OFFCURVE",
"510 -200 OFFCURVE",
"400 -200 CURVE",
"400 -300 LINE"
);
}
);
width = 800;
},
{
layerId = "DCFDD359-D3A1-4A9B-975E-26381AFB2AA7";
width = 600;
},
{
layerId = "833FD172-3601-4257-8297-A103CE2A393F";
width = 600;
}
);
unicode = 014B;
},
{
glyphname = o;
lastChange = "2017-09-28 07:20:46 +0000";
layers = (
{
anchors = (
{
name = bottom;
position = "{450, 0}";
},
{
name = center;
position = "{450, 350}";
},
{
name = ogonek;
position = "{810, 10}";
},
{
name = top;
position = "{450, 700}";
},
{
name = topright;
position = "{880, 700}";
}
);
components = (
{
name = _circle_7;
}
);
hints = (
{
horizontal = 1;
origin = "{0, 11}";
target = "{1, 11}";
},
{
horizontal = 1;
origin = "{1, 5}";
target = "{0, 5}";
},
{
origin = "{0, 8}";
target = "{1, 2}";
},
{
origin = "{1, 8}";
target = "{0, 2}";
}
);
layerId = "926D8932-2CBE-4DA1-A7EC-AA50FD678EE5";
width = 900;
},
{
components = (
{
name = _circle_7;
}
);
layerId = "DCFDD359-D3A1-4A9B-975E-26381AFB2AA7";
width = 900;
},
{
layerId = "833FD172-3601-4257-8297-A103CE2A393F";
paths = (
{
closed = 1;
nodes = (
"643 0 OFFCURVE",
"800 157 OFFCURVE",
"800 350 CURVE SMOOTH",
"800 543 OFFCURVE",
"643 700 OFFCURVE",
"450 700 CURVE SMOOTH",
"257 700 OFFCURVE",
"100 543 OFFCURVE",
"100 350 CURVE SMOOTH",
"100 157 OFFCURVE",
"257 0 OFFCURVE",
"450 0 CURVE SMOOTH"
);
},
{
closed = 1;
nodes = (
"284 50 OFFCURVE",
"150 184 OFFCURVE",
"150 350 CURVE SMOOTH",
"150 516 OFFCURVE",
"284 650 OFFCURVE",
"450 650 CURVE SMOOTH",
"616 650 OFFCURVE",
"750 516 OFFCURVE",
"750 350 CURVE SMOOTH",
"750 184 OFFCURVE",
"616 50 OFFCURVE",
"450 50 CURVE SMOOTH"
);
}
);
width = 900;
}
);
leftKerningGroup = o;
rightKerningGroup = o;
unicode = 006F;
},
{
glyphname = oslash;
lastChange = "2017-09-27 08:52:05 +0000";
layers = (
{
anchors = (
{
name = _center;
position = "{500, 350}";
}
);
components = (
{
name = o;
transform = "{1, 0, 0, 1, 50, 0}";
}
);
layerId = "926D8932-2CBE-4DA1-A7EC-AA50FD678EE5";
paths = (
{
closed = 1;
nodes = (
"110 30 LINE",
"170 -30 LINE",
"890 670 LINE",
"830 730 LINE"
);
}
);
width = 1000;
},
{
components = (
{
name = o;
transform = "{1, 0, 0, 1, 50, 0}";
}
);
layerId = "DCFDD359-D3A1-4A9B-975E-26381AFB2AA7";
paths = (
{
closed = 1;
nodes = (
"110 30 LINE",
"170 -30 LINE",
"890 670 LINE",
"830 730 LINE"
);
}
);
width = 1000;
},
{
layerId = "833FD172-3601-4257-8297-A103CE2A393F";
width = 600;
}
);
leftKerningGroup = o;
rightKerningGroup = o;
unicode = 00F8;
},
{
glyphname = oe;
lastChange = "2017-09-27 08:22:47 +0000";
layers = (
{
layerId = "926D8932-2CBE-4DA1-A7EC-AA50FD678EE5";
paths = (
{
closed = 1;
nodes = (
"643 0 OFFCURVE",
"800 157 OFFCURVE",
"800 350 CURVE SMOOTH",
"800 543 OFFCURVE",
"643 700 OFFCURVE",
"450 700 CURVE SMOOTH",
"257 700 OFFCURVE",
"100 543 OFFCURVE",
"100 350 CURVE SMOOTH",
"100 157 OFFCURVE",
"257 0 OFFCURVE",
"450 0 CURVE SMOOTH"
);
},
{
closed = 1;
nodes = (
"312 100 OFFCURVE",
"200 212 OFFCURVE",
"200 350 CURVE SMOOTH",
"200 488 OFFCURVE",
"312 600 OFFCURVE",
"450 600 CURVE SMOOTH",
"588 600 OFFCURVE",
"700 488 OFFCURVE",
"700 350 CURVE SMOOTH",
"700 212 OFFCURVE",
"588 100 OFFCURVE",
"450 100 CURVE SMOOTH"
);
},
{
closed = 1;
nodes = (
"643 0 OFFCURVE",
"800 157 OFFCURVE",
"800 350 CURVE SMOOTH",
"800 543 OFFCURVE",
"643 700 OFFCURVE",
"450 700 CURVE SMOOTH",
"257 700 OFFCURVE",
"100 543 OFFCURVE",
"100 350 CURVE SMOOTH",
"100 157 OFFCURVE",
"257 0 OFFCURVE",
"450 0 CURVE SMOOTH"
);
},
{
closed = 1;
nodes = (
"312 100 OFFCURVE",
"200 212 OFFCURVE",
"200 350 CURVE SMOOTH",
"200 488 OFFCURVE",
"312 600 OFFCURVE",
"450 600 CURVE SMOOTH",
"588 600 OFFCURVE",
"700 488 OFFCURVE",
"700 350 CURVE SMOOTH",
"700 212 OFFCURVE",
"588 100 OFFCURVE",
"450 100 CURVE SMOOTH"
);
},
{
closed = 1;
nodes = (
"700 157 OFFCURVE",
"857 0 OFFCURVE",
"1050 0 CURVE SMOOTH",
"1147 0 OFFCURVE",
"1234 39 OFFCURVE",
"1300 100 CURVE",
"1230 170 LINE",
"1182 128 OFFCURVE",
"1119 100 OFFCURVE",
"1050 100 CURVE SMOOTH",
"929 100 OFFCURVE",
"828 186 OFFCURVE",
"810 300 CURVE",
"1400 300 LINE",
"1400 350 LINE SMOOTH",
"1400 543 OFFCURVE",
"1243 700 OFFCURVE",
"1050 700 CURVE SMOOTH",
"857 700 OFFCURVE",
"700 543 OFFCURVE",
"700 350 CURVE SMOOTH"
);
},
{
closed = 1;
nodes = (
"828 514 OFFCURVE",
"929 600 OFFCURVE",
"1050 600 CURVE SMOOTH",
"1171 600 OFFCURVE",
"1272 514 OFFCURVE",
"1290 400 CURVE",
"810 400 LINE"
);
}
);
width = 1500;
},
{
components = (
{
name = o;
},
{
name = e;
transform = "{1, 0, 0, 1, 600, 0}";
}
);
layerId = "DCFDD359-D3A1-4A9B-975E-26381AFB2AA7";
width = 1500;
},
{
layerId = "833FD172-3601-4257-8297-A103CE2A393F";
width = 600;
}
);
leftKerningGroup = o;
rightKerningGroup = o;
unicode = 0153;
},
{
glyphname = p;
lastChange = "2017-09-27 15:36:18 +0000";
layers = (
{
components = (
{
name = _circle_7;
},
{
name = _stem;
}
);
layerId = "926D8932-2CBE-4DA1-A7EC-AA50FD678EE5";
width = 900;
},
{
components = (
{
name = _circle_7;
}
);
layerId = "DCFDD359-D3A1-4A9B-975E-26381AFB2AA7";
paths = (
{
closed = 1;
nodes = (
"250 -300 LINE",
"250 700 LINE",
"100 700 LINE",
"100 -300 LINE"
);
}
);
width = 900;
},
{
components = (
{
name = b;
transform = "{1, 0, 0, -1, 0, 700}";
}
);
layerId = "833FD172-3601-4257-8297-A103CE2A393F";
width = 900;
}
);
leftKerningGroup = l;
rightKerningGroup = o;
unicode = 0070;
},
{
glyphname = thorn;
lastChange = "2017-09-27 08:23:20 +0000";
layers = (
{
components = (
{
name = _circle_7;
}
);
layerId = "926D8932-2CBE-4DA1-A7EC-AA50FD678EE5";
paths = (
{
closed = 1;
nodes = (
"200 1000 LINE",
"100 1000 LINE",
"100 -300 LINE",
"200 -300 LINE"
);
}
);
width = 900;
},
{
components = (
{
name = _circle_7;
}
);
layerId = "DCFDD359-D3A1-4A9B-975E-26381AFB2AA7";
paths = (
{
closed = 1;
nodes = (
"250 -300 LINE",
"250 1000 LINE",
"100 1000 LINE",
"100 -300 LINE"
);
}
);
width = 900;
},
{
layerId = "833FD172-3601-4257-8297-A103CE2A393F";
width = 600;
}
);
leftKerningGroup = l;
rightKerningGroup = o;
unicode = 00FE;
},
{
glyphname = q;
lastChange = "2017-09-28 07:20:46 +0000";
layers = (
{
layerId = "926D8932-2CBE-4DA1-A7EC-AA50FD678EE5";
paths = (
{
closed = 1;
nodes = (
"257 700 OFFCURVE",
"100 543 OFFCURVE",
"100 350 CURVE SMOOTH",
"100 157 OFFCURVE",
"257 0 OFFCURVE",
"450 0 CURVE SMOOTH",
"643 0 OFFCURVE",
"800 157 OFFCURVE",
"800 350 CURVE SMOOTH",
"800 543 OFFCURVE",
"643 700 OFFCURVE",
"450 700 CURVE SMOOTH"
);
},
{
closed = 1;
nodes = (
"588 600 OFFCURVE",
"700 488 OFFCURVE",
"700 350 CURVE SMOOTH",
"700 212 OFFCURVE",
"588 100 OFFCURVE",
"450 100 CURVE SMOOTH",
"312 100 OFFCURVE",
"200 212 OFFCURVE",
"200 350 CURVE SMOOTH",
"200 488 OFFCURVE",
"312 600 OFFCURVE",
"450 600 CURVE SMOOTH"
);
},
{
closed = 1;
nodes = (
"800 -300 LINE",
"800 700 LINE",
"700 700 LINE",
"700 -300 LINE"
);
}
);
width = 900;
},
{
components = (
{
name = _circle_7;
}
);
layerId = "DCFDD359-D3A1-4A9B-975E-26381AFB2AA7";
paths = (
{
closed = 1;
nodes = (
"800 700 LINE",
"650 700 LINE",
"650 -300 LINE",
"800 -300 LINE"
);
}
);
width = 900;
},
{
components = (
{
name = d;
transform = "{1, 0, 0, -1, 0, 700}";
}
);
layerId = "833FD172-3601-4257-8297-A103CE2A393F";
width = 900;
}
);
leftKerningGroup = o;
rightKerningGroup = l;
unicode = 0071;
},
{
glyphname = r;
lastChange = "2017-09-27 20:19:46 +0000";
layers = (
{
hints = (
{
horizontal = 1;
origin = "{1, 3}";
target = "{0, 3}";
},
{
origin = "{0, 4}";
target = "{0, 0}";
}
);
layerId = "926D8932-2CBE-4DA1-A7EC-AA50FD678EE5";
paths = (
{
closed = 1;
nodes = (
"200 0 LINE",
"200 400 LINE",
"200 700 LINE",
"100 700 LINE",
"100 0 LINE"
);
},
{
closed = 1;
nodes = (
"200 400 LINE",
"200 511 OFFCURVE",
"289 600 OFFCURVE",
"400 600 CURVE SMOOTH",
"455.404 600 OFFCURVE",
"505.327 577.578 OFFCURVE",
"541.438 541.438 CURVE",
"612.063 612.063 LINE",
"557.827 666.328 OFFCURVE",
"482.904 700 OFFCURVE",
"400 700 CURVE SMOOTH",
"234 700 OFFCURVE",
"150 566 OFFCURVE",
"150 400 CURVE"
);
}
);
width = 650;
},
{
layerId = "DCFDD359-D3A1-4A9B-975E-26381AFB2AA7";
paths = (
{
closed = 1;
nodes = (
"100 0 LINE",
"250 0 LINE",
"250 400 LINE",
"200 700 LINE",
"100 700 LINE"
);
},
{
closed = 1;
nodes = (
"250 400 LINE",
"250 480 OFFCURVE",
"320 550 OFFCURVE",
"400 550 CURVE SMOOTH",
"440 550 OFFCURVE",
"480 530 OFFCURVE",
"510 510 CURVE",
"620 620 LINE",
"560 680 OFFCURVE",
"490 710 OFFCURVE",
"400 700 CURVE SMOOTH",
"270 690 OFFCURVE",
"200 570 OFFCURVE",
"200 400 CURVE"
);
}
);
width = 650;
},
{
layerId = "833FD172-3601-4257-8297-A103CE2A393F";
paths = (
{
closed = 1;
nodes = (
"100 700 LINE",
"150 700 LINE",
"150 500 LINE",
"150 0 LINE",
"100 0 LINE"
);
},
{
closed = 1;
nodes = (
"100 565 OFFCURVE",
"235 700 OFFCURVE",
"400 700 CURVE SMOOTH",
"485 700 OFFCURVE",
"560 665 OFFCURVE",
"610 610 CURVE",
"580 580 LINE",
"535 625 OFFCURVE",
"470 650 OFFCURVE",
"400 650 CURVE SMOOTH",
"260 650 OFFCURVE",
"150 540 OFFCURVE",
"150 400 CURVE",
"100 400 LINE"
);
}
);
width = 650;
}
);
leftKerningGroup = n;
rightKerningGroup = v;
unicode = 0072;
},
{
glyphname = s;
lastChange = "2017-09-25 03:43:09 +0000";
layers = (
{
layerId = "926D8932-2CBE-4DA1-A7EC-AA50FD678EE5";
paths = (
{
closed = 1;
nodes = (
"100 610 OFFCURVE",
"190 700 OFFCURVE",
"300 700 CURVE",
"300 600 LINE",
"245 600 OFFCURVE",
"200 555 OFFCURVE",
"200 500 CURVE SMOOTH",
"200 445 OFFCURVE",
"245 400 OFFCURVE",
"300 400 CURVE",
"300 300 LINE",
"190 300 OFFCURVE",
"100 390 OFFCURVE",
"100 500 CURVE SMOOTH"
);
},
{
closed = 1;
nodes = (
"600 90 OFFCURVE",
"510 0 OFFCURVE",
"400 0 CURVE",
"400 100 LINE",
"455 100 OFFCURVE",
"500 145 OFFCURVE",
"500 200 CURVE SMOOTH",
"500 255 OFFCURVE",
"455 300 OFFCURVE",
"400 300 CURVE",
"400 400 LINE",
"510 400 OFFCURVE",
"600 310 OFFCURVE",
"600 200 CURVE SMOOTH"
);
},
{
closed = 1;
nodes = (
"300 300 LINE",
"400 300 LINE",
"400 400 LINE",
"300 400 LINE"
);
},
{
closed = 1;
nodes = (
"300 100 LINE",
"259 100 OFFCURVE",
"221 117 OFFCURVE",
"190 140 CURVE",
"120 70 LINE",
"167 27 OFFCURVE",
"230 -1 OFFCURVE",
"300 0 CURVE"
);
},
{
closed = 1;
nodes = (
"300 0 LINE",
"400 0 LINE",
"400 100 LINE",
"300 100 LINE"
);
},
{
closed = 1;
nodes = (
"300 600 LINE",
"400 600 LINE",
"400 700 LINE",
"300 700 LINE"
);
},
{
closed = 1;
nodes = (
"400 600 LINE",
"440 599 OFFCURVE",
"478 582 OFFCURVE",
"510 560 CURVE",
"580 630 LINE",
"532 672 OFFCURVE",
"469 700 OFFCURVE",
"400 700 CURVE"
);
}
);
width = 700;
},
{
layerId = "DCFDD359-D3A1-4A9B-975E-26381AFB2AA7";
paths = (
{
closed = 1;
nodes = (
"315 430 LINE",
"315 275 LINE",
"385 275 LINE",
"385 430 LINE"
);
},
{
closed = 1;
nodes = (
"270 150 LINE",
"270 0 LINE",
"385 0 LINE",
"385 150 LINE"
);
},
{
closed = 1;
nodes = (
"315 700 LINE",
"315 550 LINE",
"430 550 LINE",
"430 700 LINE"
);
},
{
closed = 1;
nodes = (
"600 95 OFFCURVE",
"505 0 OFFCURVE",
"385 0 CURVE",
"385 150 LINE",
"420 150 OFFCURVE",
"450 180 OFFCURVE",
"450 215 CURVE SMOOTH",
"450 245 OFFCURVE",
"420 275 OFFCURVE",
"385 275 CURVE",
"385 430 LINE",
"505 430 OFFCURVE",
"600 335 OFFCURVE",
"600 215 CURVE SMOOTH"
);
},
{
closed = 1;
nodes = (
"100 610 OFFCURVE",
"195 700 OFFCURVE",
"315 700 CURVE",
"315 550 LINE",
"280 550 OFFCURVE",
"250 525 OFFCURVE",
"250 490 CURVE SMOOTH",
"250 460 OFFCURVE",
"280 430 OFFCURVE",
"315 430 CURVE",
"315 275 LINE",
"195 275 OFFCURVE",
"100 370 OFFCURVE",
"100 490 CURVE SMOOTH"
);
},
{
closed = 1;
nodes = (
"430 700 LINE",
"490 700 OFFCURVE",
"545 675 OFFCURVE",
"585 640 CURVE",
"475 530 LINE",
"465 545 OFFCURVE",
"450 550 OFFCURVE",
"430 550 CURVE"
);
},
{
closed = 1;
nodes = (
"225 170 LINE",
"235 160 OFFCURVE",
"255 150 OFFCURVE",
"270 150 CURVE",
"270 0 LINE",
"210 0 OFFCURVE",
"155 25 OFFCURVE",
"120 65 CURVE"
);
}
);
width = 700;
},
{
layerId = "833FD172-3601-4257-8297-A103CE2A393F";
width = 600;
}
);
unicode = 0073;
},
{
glyphname = germandbls;
lastChange = "2017-09-28 07:53:31 +0000";
layers = (
{
layerId = "926D8932-2CBE-4DA1-A7EC-AA50FD678EE5";
paths = (
{
closed = 1;
nodes = (
"370 300 LINE",
"517 300 OFFCURVE",
"640 423 OFFCURVE",
"640 580 CURVE SMOOTH",
"640 727 OFFCURVE",
"517 850 OFFCURVE",
"370 850 CURVE",
"370 750 LINE",
"462 750 OFFCURVE",
"540 672 OFFCURVE",
"540 580 CURVE SMOOTH",
"540 478 OFFCURVE",
"462 400 OFFCURVE",
"370 400 CURVE"
);
},
{
closed = 1;
nodes = (
"100 -150 LINE",
"200 -150 LINE",
"200 580 LINE",
"100 580 LINE"
);
},
{
closed = 1;
nodes = (
"350 -150 LINE",
"470 -150 LINE",
"470 -50 LINE",
"350 -50 LINE"
);
},
{
closed = 1;
nodes = (
"360 300 LINE",
"470 300 LINE",
"470 400 LINE",
"360 400 LINE"
);
},
{
closed = 1;
nodes = (
"470 -150 LINE",
"617 -150 OFFCURVE",
"740 -27 OFFCURVE",
"740 130 CURVE SMOOTH",
"740 277 OFFCURVE",
"617 400 OFFCURVE",
"470 400 CURVE",
"470 300 LINE",
"562 300 OFFCURVE",
"640 222 OFFCURVE",
"640 130 CURVE SMOOTH",
"640 28 OFFCURVE",
"562 -50 OFFCURVE",
"470 -50 CURVE"
);
},
{
closed = 1;
nodes = (
"200 580 LINE",
"200 672 OFFCURVE",
"278 750 OFFCURVE",
"370 750 CURVE",
"370 850 LINE",
"223 850 OFFCURVE",
"100 727 OFFCURVE",
"100 580 CURVE"
);
}
);
width = 800;
},
{
layerId = "DCFDD359-D3A1-4A9B-975E-26381AFB2AA7";
paths = (
{
closed = 1;
nodes = (
"100 -150 LINE",
"250 -150 LINE",
"250 575 LINE",
"100 575 LINE"
);
},
{
closed = 1;
nodes = (
"440 -150 LINE",
"605 -150 OFFCURVE",
"740 -15 OFFCURVE",
"740 150 CURVE SMOOTH",
"740 316 OFFCURVE",
"607 449 OFFCURVE",
"440 450 CURVE",
"440 300 LINE",
"525 300 OFFCURVE",
"590 235 OFFCURVE",
"590 150 CURVE SMOOTH",
"590 67 OFFCURVE",
"523 0 OFFCURVE",
"440 0 CURVE"
);
},
{
closed = 1;
nodes = (
"250 575 LINE",
"250 575 OFFCURVE",
"250 575 OFFCURVE",
"250 575 CURVE SMOOTH",
"250 645 OFFCURVE",
"305 700 OFFCURVE",
"375 700 CURVE SMOOTH",
"445 700 OFFCURVE",
"500 645 OFFCURVE",
"500 575 CURVE SMOOTH",
"500 505 OFFCURVE",
"445 450 OFFCURVE",
"375 450 CURVE",
"375 300 LINE",
"525 300 OFFCURVE",
"650 425 OFFCURVE",
"650 575 CURVE SMOOTH",
"650 725 OFFCURVE",
"525 850 OFFCURVE",
"375 850 CURVE SMOOTH",
"225 850 OFFCURVE",
"100 725 OFFCURVE",
"100 575 CURVE SMOOTH",
"100 575 OFFCURVE",
"100 575 OFFCURVE",
"100 575 CURVE"
);
},
{
closed = 1;
nodes = (
"350 300 LINE",
"440 300 LINE",
"440 450 LINE",
"350 450 LINE"
);
},
{
closed = 1;
nodes = (
"350 -150 LINE",
"440 -150 LINE",
"440 0 LINE",
"350 0 LINE"
);
}
);
width = 800;
},
{
layerId = "833FD172-3601-4257-8297-A103CE2A393F";
width = 600;
}
);
leftKerningGroup = l;
unicode = 00DF;
},
{
glyphname = t;
lastChange = "2017-09-28 07:20:46 +0000";
layers = (
{
layerId = "926D8932-2CBE-4DA1-A7EC-AA50FD678EE5";
paths = (
{
closed = 1;
nodes = (
"200 200 LINE",
"300 200 LINE",
"300 900 LINE",
"200 900 LINE"
);
},
{
closed = 1;
nodes = (
"100 600 LINE",
"200 600 LINE",
"200 700 LINE",
"100 700 LINE"
);
},
{
closed = 1;
nodes = (
"300 600 LINE",
"450 600 LINE",
"450 700 LINE",
"300 700 LINE"
);
},
{
closed = 1;
nodes = (
"203 88 OFFCURVE",
"293 -2 OFFCURVE",
"400 0 CURVE",
"400 100 LINE",
"348 98 OFFCURVE",
"303 143 OFFCURVE",
"300 200 CURVE",
"200 200 LINE"
);
},
{
closed = 1;
nodes = (
"400 0 LINE",
"450 0 LINE",
"450 100 LINE",
"400 100 LINE"
);
},
{
closed = 1;
nodes = (
"200 900 LINE",
"300 900 LINE",
"300 1000 LINE"
);
}
);
width = 550;
},
{
components = (
{
name = _quartercircle_6;
transform = "{1, 0, 0, -1, 0, 900}";
}
);
layerId = "DCFDD359-D3A1-4A9B-975E-26381AFB2AA7";
paths = (
{
closed = 1;
nodes = (
"175 300 LINE",
"325 300 LINE",
"325 900 LINE",
"175 900 LINE"
);
},
{
closed = 1;
nodes = (
"100 550 LINE",
"175 550 LINE",
"175 700 LINE",
"100 700 LINE"
);
},
{
closed = 1;
nodes = (
"325 550 LINE",
"450 550 LINE",
"450 700 LINE",
"325 700 LINE"
);
},
{
closed = 1;
nodes = (
"175 900 LINE",
"325 900 LINE",
"325 1000 LINE"
);
}
);
width = 550;
},
{
layerId = "833FD172-3601-4257-8297-A103CE2A393F";
width = 600;
}
);
unicode = 0074;
},
{
glyphname = tbar;
lastChange = "2017-09-26 17:39:57 +0000";
layers = (
{
components = (
{
name = t;
}
);
layerId = "926D8932-2CBE-4DA1-A7EC-AA50FD678EE5";
paths = (
{
closed = 1;
nodes = (
"100 300 LINE",
"450 300 LINE",
"450 400 LINE",
"100 400 LINE"
);
}
);
width = 550;
},
{
layerId = "DCFDD359-D3A1-4A9B-975E-26381AFB2AA7";
width = 600;
},
{
layerId = "833FD172-3601-4257-8297-A103CE2A393F";
width = 600;
}
);
unicode = 0167;
},
{
glyphname = u;
lastChange = "2017-09-28 07:20:46 +0000";
layers = (
{
anchors = (
{
name = bottom;
position = "{400, 0}";
},
{
name = ogonek;
position = "{720, 10}";
},
{
name = top;
position = "{400, 700}";
},
{
name = topright;
position = "{780, 700}";
}
);
components = (
{
name = _halfcircle_6;
}
);
layerId = "926D8932-2CBE-4DA1-A7EC-AA50FD678EE5";
paths = (
{
closed = 1;
nodes = (
"100 300 LINE",
"200 300 LINE",
"200 700 LINE",
"100 700 LINE"
);
},
{
closed = 1;
nodes = (
"600 300 LINE",
"700 300 LINE",
"700 700 LINE",
"600 700 LINE"
);
}
);
width = 800;
},
{
components = (
{
name = _halfcircle_6;
}
);
layerId = "DCFDD359-D3A1-4A9B-975E-26381AFB2AA7";
paths = (
{
closed = 1;
nodes = (
"250 300 LINE",
"250 700 LINE",
"100 700 LINE",
"100 300 LINE"
);
},
{
closed = 1;
nodes = (
"700 300 LINE",
"700 700 LINE",
"550 700 LINE",
"550 300 LINE"
);
}
);
width = 800;
},
{
layerId = "833FD172-3601-4257-8297-A103CE2A393F";
paths = (
{
closed = 1;
nodes = (
"100 300 LINE",
"150 300 LINE",
"150 415 LINE",
"150 700 LINE",
"100 700 LINE"
);
},
{
closed = 1;
nodes = (
"700 300 LINE",
"700 700 LINE",
"650 700 LINE",
"650 300 LINE"
);
},
{
closed = 1;
nodes = (
"100 135 OFFCURVE",
"235 0 OFFCURVE",
"400 0 CURVE SMOOTH",
"565 0 OFFCURVE",
"700 135 OFFCURVE",
"700 300 CURVE",
"650 300 LINE",
"650 160 OFFCURVE",
"540 50 OFFCURVE",
"400 50 CURVE SMOOTH",
"260 50 OFFCURVE",
"150 160 OFFCURVE",
"150 300 CURVE",
"100 300 LINE"
);
}
);
width = 800;
}
);
unicode = 0075;
},
{
glyphname = uogonek;
lastChange = "2017-09-26 17:41:50 +0000";
layers = (
{
components = (
{
name = u;
},
{
name = ogonek;
transform = "{1, 0, 0, 1, 500, -50}";
}
);
layerId = "926D8932-2CBE-4DA1-A7EC-AA50FD678EE5";
paths = (
{
closed = 1;
nodes = (
"600 50 LINE",
"700 50 LINE",
"700 300 LINE",
"600 300 LINE"
);
}
);
width = 800;
},
{
layerId = "DCFDD359-D3A1-4A9B-975E-26381AFB2AA7";
width = 600;
},
{
layerId = "833FD172-3601-4257-8297-A103CE2A393F";
width = 600;
}
);
unicode = 0173;
},
{
glyphname = v;
lastChange = "2017-09-25 04:09:07 +0000";
layers = (
{
layerId = "926D8932-2CBE-4DA1-A7EC-AA50FD678EE5";
paths = (
{
closed = 1;
nodes = (
"100 700 LINE",
"280 0 LINE",
"420 0 LINE",
"600 700 LINE",
"510 700 LINE",
"350 120 LINE",
"190 700 LINE"
);
}
);
width = 700;
},
{
layerId = "DCFDD359-D3A1-4A9B-975E-26381AFB2AA7";
paths = (
{
closed = 1;
nodes = (
"80 700 LINE",
"265 0 LINE",
"435 0 LINE",
"620 700 LINE",
"455 700 LINE",
"350 310 LINE",
"245 700 LINE"
);
}
);
width = 700;
},
{
layerId = "833FD172-3601-4257-8297-A103CE2A393F";
width = 600;
}
);
leftKerningGroup = v;
rightKerningGroup = v;
unicode = 0076;
},
{
glyphname = w;
lastChange = "2017-09-25 02:39:59 +0000";
layers = (
{
layerId = "926D8932-2CBE-4DA1-A7EC-AA50FD678EE5";
paths = (
{
closed = 1;
nodes = (
"280 0 LINE",
"420 0 LINE",
"500 310 LINE",
"580 0 LINE",
"720 0 LINE",
"900 700 LINE",
"810 700 LINE",
"650 120 LINE",
"550 490 LINE",
"450 490 LINE",
"350 120 LINE",
"190 700 LINE",
"100 700 LINE"
);
}
);
width = 1000;
},
{
layerId = "DCFDD359-D3A1-4A9B-975E-26381AFB2AA7";
paths = (
{
closed = 1;
nodes = (
"265 0 LINE",
"435 0 LINE",
"500 245 LINE",
"565 0 LINE",
"735 0 LINE",
"920 700 LINE",
"755 700 LINE",
"650 310 LINE",
"585 560 LINE",
"415 560 LINE",
"350 310 LINE",
"245 700 LINE",
"80 700 LINE"
);
}
);
width = 1000;
},
{
layerId = "833FD172-3601-4257-8297-A103CE2A393F";
width = 600;
}
);
leftKerningGroup = v;
rightKerningGroup = v;
unicode = 0077;
},
{
glyphname = x;
lastChange = "2017-09-25 02:52:18 +0000";
layers = (
{
layerId = "926D8932-2CBE-4DA1-A7EC-AA50FD678EE5";
paths = (
{
closed = 1;
nodes = (
"210 0 LINE",
"350 250 LINE",
"490 0 LINE",
"610 0 LINE",
"410 350 LINE",
"610 700 LINE",
"490 700 LINE",
"350 450 LINE",
"210 700 LINE",
"90 700 LINE",
"290 350 LINE",
"90 0 LINE"
);
}
);
width = 700;
},
{
layerId = "DCFDD359-D3A1-4A9B-975E-26381AFB2AA7";
paths = (
{
closed = 1;
nodes = (
"240 0 LINE",
"350 190 LINE",
"460 0 LINE",
"645 0 LINE",
"445 350 LINE",
"645 700 LINE",
"460 700 LINE",
"350 510 LINE",
"240 700 LINE",
"55 700 LINE",
"255 350 LINE",
"55 0 LINE"
);
}
);
width = 700;
},
{
layerId = "833FD172-3601-4257-8297-A103CE2A393F";
width = 600;
}
);
unicode = 0078;
},
{
glyphname = y;
lastChange = "2017-09-25 02:59:37 +0000";
layers = (
{
layerId = "926D8932-2CBE-4DA1-A7EC-AA50FD678EE5";
paths = (
{
closed = 1;
nodes = (
"300 -100 LINE",
"300 -150 OFFCURVE",
"260 -194 OFFCURVE",
"200 -200 CURVE",
"200 -300 LINE",
"315 -294 OFFCURVE",
"390 -180 OFFCURVE",
"410 -80 CURVE"
);
},
{
closed = 1;
nodes = (
"80 700 LINE",
"300 -100 LINE",
"410 -80 LINE",
"620 700 LINE",
"510 700 LINE",
"350 120 LINE",
"190 700 LINE"
);
}
);
width = 700;
},
{
layerId = "DCFDD359-D3A1-4A9B-975E-26381AFB2AA7";
paths = (
{
closed = 1;
nodes = (
"265 0 LINE",
"276 -79 OFFCURVE",
"233 -150 OFFCURVE",
"150 -150 CURVE",
"150 -300 LINE",
"316 -300 OFFCURVE",
"405 -170 OFFCURVE",
"435 0 CURVE"
);
},
{
closed = 1;
nodes = (
"80 700 LINE",
"265 0 LINE",
"435 0 LINE",
"620 700 LINE",
"455 700 LINE",
"350 310 LINE",
"245 700 LINE"
);
}
);
width = 700;
},
{
layerId = "833FD172-3601-4257-8297-A103CE2A393F";
width = 600;
}
);
leftKerningGroup = v;
rightKerningGroup = v;
unicode = 0079;
},
{
glyphname = z;
lastChange = "2017-09-25 04:03:24 +0000";
layers = (
{
layerId = "926D8932-2CBE-4DA1-A7EC-AA50FD678EE5";
paths = (
{
closed = 1;
nodes = (
"600 0 LINE",
"600 100 LINE",
"270 100 LINE",
"610 700 LINE",
"100 700 LINE",
"100 600 LINE",
"430 600 LINE",
"90 0 LINE"
);
}
);
width = 700;
},
{
layerId = "DCFDD359-D3A1-4A9B-975E-26381AFB2AA7";
paths = (
{
closed = 1;
nodes = (
"100 550 LINE",
"500 550 LINE",
"500 700 LINE",
"100 700 LINE"
);
},
{
closed = 1;
nodes = (
"200 0 LINE",
"600 0 LINE",
"600 150 LINE",
"200 150 LINE"
);
},
{
closed = 1;
nodes = (
"235 0 LINE",
"640 700 LINE",
"465 700 LINE",
"60 0 LINE"
);
}
);
width = 700;
},
{
layerId = "833FD172-3601-4257-8297-A103CE2A393F";
width = 600;
}
);
unicode = 007A;
},
{
glyphname = unifb01;
lastChange = "2017-09-25 00:58:25 +0000";
layers = (
{
layerId = "926D8932-2CBE-4DA1-A7EC-AA50FD678EE5";
paths = (
{
closed = 1;
nodes = (
"300 -200 LINE",
"300 700 LINE",
"200 700 LINE",
"200 -200 LINE"
);
},
{
closed = 1;
nodes = (
"200 600 LINE",
"200 700 LINE",
"100 700 LINE",
"100 600 LINE"
);
},
{
closed = 1;
nodes = (
"300 700 LINE",
"303 757 OFFCURVE",
"348 802 OFFCURVE",
"400 800 CURVE",
"400 900 LINE",
"293 902 OFFCURVE",
"203 812 OFFCURVE",
"200 700 CURVE"
);
},
{
closed = 1;
nodes = (
"600 800 LINE",
"600 900 LINE",
"400 900 LINE",
"400 800 LINE"
);
},
{
closed = 1;
nodes = (
"500 0 LINE",
"600 0 LINE",
"600 700 LINE",
"500 700 LINE"
);
},
{
closed = 1;
nodes = (
"300 600 LINE",
"500 600 LINE",
"500 700 LINE",
"300 700 LINE"
);
}
);
width = 700;
},
{
layerId = "DCFDD359-D3A1-4A9B-975E-26381AFB2AA7";
width = 600;
},
{
layerId = "833FD172-3601-4257-8297-A103CE2A393F";
width = 600;
}
);
unicode = fb01;
},
{
glyphname = unifb02;
lastChange = "2017-09-25 00:58:25 +0000";
layers = (
{
layerId = "926D8932-2CBE-4DA1-A7EC-AA50FD678EE5";
paths = (
{
closed = 1;
nodes = (
"300 -200 LINE",
"300 800 LINE",
"200 800 LINE",
"200 -200 LINE"
);
},
{
closed = 1;
nodes = (
"200 300 LINE",
"200 400 LINE",
"100 400 LINE",
"100 300 LINE"
);
},
{
closed = 1;
nodes = (
"400 300 LINE",
"400 400 LINE",
"300 400 LINE",
"300 300 LINE"
);
},
{
closed = 1;
nodes = (
"300 800 LINE",
"303 857 OFFCURVE",
"348 902 OFFCURVE",
"400 900 CURVE",
"400 1000 LINE",
"293 1002 OFFCURVE",
"203 912 OFFCURVE",
"200 800 CURVE"
);
},
{
closed = 1;
nodes = (
"500 0 LINE",
"600 0 LINE",
"600 1000 LINE",
"500 1000 LINE"
);
},
{
closed = 1;
nodes = (
"400 900 LINE",
"500 900 LINE",
"500 1000 LINE",
"400 1000 LINE"
);
},
{
closed = 1;
nodes = (
"600 0 LINE",
"700 0 LINE",
"700 100 LINE",
"600 100 LINE"
);
}
);
width = 800;
},
{
layerId = "DCFDD359-D3A1-4A9B-975E-26381AFB2AA7";
width = 600;
},
{
layerId = "833FD172-3601-4257-8297-A103CE2A393F";
width = 600;
}
);
unicode = fb02;
},
{
glyphname = ordfeminine;
lastChange = "2017-09-27 19:47:06 +0000";
layers = (
{
components = (
{
name = _halfcircle_3;
transform = "{-1, 0, 0, -1, 450, 1450}";
}
);
layerId = "926D8932-2CBE-4DA1-A7EC-AA50FD678EE5";
paths = (
{
closed = 1;
nodes = (
"350 800 LINE",
"350 600 LINE",
"400 450 LINE",
"350 450 LINE",
"250 600 LINE",
"250 800 LINE"
);
},
{
closed = 1;
nodes = (
"200 650 LINE",
"170 650 OFFCURVE",
"150 630 OFFCURVE",
"150 600 CURVE",
"50 600 LINE",
"50 680 OFFCURVE",
"120 750 OFFCURVE",
"200 750 CURVE"
);
},
{
closed = 1;
nodes = (
"200 650 LINE",
"250 650 LINE",
"250 750 LINE",
"200 750 LINE"
);
},
{
closed = 1;
nodes = (
"95 905 LINE",
"120 930 OFFCURVE",
"160 950 OFFCURVE",
"200 950 CURVE SMOOTH",
"280 950 OFFCURVE",
"350 880 OFFCURVE",
"350 800 CURVE",
"250 800 LINE",
"250 830 OFFCURVE",
"230 850 OFFCURVE",
"200 850 CURVE SMOOTH",
"185 850 OFFCURVE",
"173 845 OFFCURVE",
"165 835 CURVE"
);
}
);
width = 400;
},
{
components = (
{
name = _halfcircle_3;
transform = "{-1, 0, 0, -1, 450, 1450}";
}
);
layerId = "DCFDD359-D3A1-4A9B-975E-26381AFB2AA7";
paths = (
{
closed = 1;
nodes = (
"350 800 LINE",
"350 600 LINE",
"400 450 LINE",
"350 450 LINE",
"250 600 LINE",
"250 800 LINE"
);
},
{
closed = 1;
nodes = (
"200 650 LINE",
"170 650 OFFCURVE",
"150 630 OFFCURVE",
"150 600 CURVE",
"50 600 LINE",
"50 680 OFFCURVE",
"120 750 OFFCURVE",
"200 750 CURVE"
);
},
{
closed = 1;
nodes = (
"200 650 LINE",
"250 650 LINE",
"250 750 LINE",
"200 750 LINE"
);
},
{
closed = 1;
nodes = (
"95 905 LINE",
"120 930 OFFCURVE",
"160 950 OFFCURVE",
"200 950 CURVE SMOOTH",
"280 950 OFFCURVE",
"350 880 OFFCURVE",
"350 800 CURVE",
"250 800 LINE",
"250 830 OFFCURVE",
"230 850 OFFCURVE",
"200 850 CURVE SMOOTH",
"185 850 OFFCURVE",
"173 845 OFFCURVE",
"165 835 CURVE"
);
}
);
width = 400;
},
{
layerId = "833FD172-3601-4257-8297-A103CE2A393F";
width = 600;
}
);
unicode = 00AA;
},
{
glyphname = ordmasculine;
lastChange = "2017-09-27 19:47:19 +0000";
layers = (
{
components = (
{
name = _halfcircle_3;
transform = "{1, 0, 0, 1, -50, -50}";
},
{
name = _halfcircle_3;
transform = "{-1, 0, 0, -1, 450, 1450}";
}
);
layerId = "926D8932-2CBE-4DA1-A7EC-AA50FD678EE5";
paths = (
{
closed = 1;
nodes = (
"50 600 LINE",
"150 600 LINE",
"150 800 LINE",
"50 800 LINE"
);
},
{
closed = 1;
nodes = (
"250 600 LINE",
"350 600 LINE",
"350 800 LINE",
"250 800 LINE"
);
}
);
width = 400;
},
{
components = (
{
name = _halfcircle_3;
transform = "{1, 0, 0, 1, -50, -50}";
},
{
name = _halfcircle_3;
transform = "{-1, 0, 0, -1, 450, 1450}";
}
);
layerId = "DCFDD359-D3A1-4A9B-975E-26381AFB2AA7";
paths = (
{
closed = 1;
nodes = (
"50 600 LINE",
"150 600 LINE",
"150 800 LINE",
"50 800 LINE"
);
},
{
closed = 1;
nodes = (
"250 600 LINE",
"350 600 LINE",
"350 800 LINE",
"250 800 LINE"
);
}
);
width = 400;
},
{
layerId = "833FD172-3601-4257-8297-A103CE2A393F";
width = 600;
}
);
unicode = 00BA;
},
{
color = 3;
glyphname = Delta;
lastChange = "2017-09-25 00:58:25 +0000";
layers = (
{
layerId = "926D8932-2CBE-4DA1-A7EC-AA50FD678EE5";
paths = (
{
closed = 1;
nodes = (
"160 -150 LINE",
"400 730 LINE",
"640 -150 LINE",
"730 -150 LINE",
"470 850 LINE",
"330 850 LINE",
"70 -150 LINE"
);
},
{
closed = 1;
nodes = (
"120 -150 LINE",
"680 -150 LINE",
"680 -50 LINE",
"120 -50 LINE"
);
}
);
width = 800;
},
{
layerId = "DCFDD359-D3A1-4A9B-975E-26381AFB2AA7";
width = 600;
},
{
layerId = "833FD172-3601-4257-8297-A103CE2A393F";
width = 600;
}
);
unicode = 0394;
},
{
glyphname = Omega;
lastChange = "2017-09-25 00:58:25 +0000";
layers = (
{
layerId = "926D8932-2CBE-4DA1-A7EC-AA50FD678EE5";
paths = (
{
closed = 1;
nodes = (
"100 -150 LINE",
"500 -150 LINE",
"500 -50 LINE",
"100 -50 LINE"
);
},
{
closed = 1;
nodes = (
"700 -150 LINE",
"1100 -150 LINE",
"1100 -50 LINE",
"700 -50 LINE"
);
},
{
closed = 1;
nodes = (
"100 108 OFFCURVE",
"272 -94 OFFCURVE",
"500 -140 CURVE",
"500 -46.755 LINE",
"327.43 -0.153 OFFCURVE",
"200 163.533 OFFCURVE",
"200 350 CURVE SMOOTH",
"200 571 OFFCURVE",
"379 750 OFFCURVE",
"600 750 CURVE SMOOTH",
"821 750 OFFCURVE",
"1000 571 OFFCURVE",
"1000 350 CURVE SMOOTH",
"1000 163.533 OFFCURVE",
"872.57 -0.153 OFFCURVE",
"700 -46.755 CURVE",
"700 -140 LINE",
"928 -94 OFFCURVE",
"1100 108 OFFCURVE",
"1100 350 CURVE SMOOTH",
"1100 626 OFFCURVE",
"876 850 OFFCURVE",
"600 850 CURVE SMOOTH",
"324 850 OFFCURVE",
"100 626 OFFCURVE",
"100 350 CURVE SMOOTH"
);
}
);
width = 1200;
},
{
layerId = "DCFDD359-D3A1-4A9B-975E-26381AFB2AA7";
width = 600;
},
{
layerId = "833FD172-3601-4257-8297-A103CE2A393F";
width = 600;
}
);
unicode = 03A9;
},
{
glyphname = mu;
lastChange = "2017-09-27 19:42:58 +0000";
layers = (
{
components = (
{
name = u;
}
);
layerId = "926D8932-2CBE-4DA1-A7EC-AA50FD678EE5";
paths = (
{
closed = 1;
nodes = (
"100 -300 LINE",
"200 -300 LINE",
"200 300 LINE",
"100 300 LINE"
);
},
{
closed = 1;
nodes = (
"800 100 LINE",
"740 100 OFFCURVE",
"700 140 OFFCURVE",
"700 200 CURVE",
"600 200 LINE",
"600 80 OFFCURVE",
"680 0 OFFCURVE",
"800 0 CURVE"
);
},
{
closed = 1;
nodes = (
"600 200 LINE",
"700 200 LINE",
"700 300 LINE",
"600 300 LINE"
);
}
);
width = 900;
},
{
components = (
{
name = u;
}
);
layerId = "DCFDD359-D3A1-4A9B-975E-26381AFB2AA7";
paths = (
{
closed = 1;
nodes = (
"100 -300 LINE",
"250 -300 LINE",
"250 300 LINE",
"100 300 LINE"
);
},
{
closed = 1;
nodes = (
"800 100 LINE",
"740 100 OFFCURVE",
"700 140 OFFCURVE",
"700 200 CURVE",
"600 200 LINE",
"600 80 OFFCURVE",
"680 0 OFFCURVE",
"800 0 CURVE"
);
},
{
closed = 1;
nodes = (
"600 200 LINE",
"700 200 LINE",
"700 300 LINE",
"600 300 LINE"
);
}
);
width = 900;
},
{
layerId = "833FD172-3601-4257-8297-A103CE2A393F";
width = 600;
}
);
unicode = 03BC;
},
{
glyphname = pi;
lastChange = "2017-09-28 19:24:50 +0000";
layers = (
{
layerId = "926D8932-2CBE-4DA1-A7EC-AA50FD678EE5";
paths = (
{
closed = 1;
nodes = (
"200 0 LINE",
"300 0 LINE",
"300 700 LINE",
"200 700 LINE"
);
},
{
closed = 1;
nodes = (
"800 100 LINE",
"740 100 OFFCURVE",
"700 140 OFFCURVE",
"700 200 CURVE",
"600 200 LINE",
"600 80 OFFCURVE",
"680 0 OFFCURVE",
"800 0 CURVE"
);
},
{
closed = 1;
nodes = (
"600 200 LINE",
"700 200 LINE",
"700 700 LINE",
"600 700 LINE"
);
},
{
closed = 1;
nodes = (
"100 600 LINE",
"800 600 LINE",
"800 700 LINE",
"100 700 LINE"
);
}
);
width = 900;
},
{
layerId = "DCFDD359-D3A1-4A9B-975E-26381AFB2AA7";
paths = (
{
closed = 1;
nodes = (
"200 0 LINE",
"350 0 LINE",
"350 700 LINE",
"200 700 LINE"
);
},
{
closed = 1;
nodes = (
"100 550 LINE",
"800 550 LINE",
"800 700 LINE",
"100 700 LINE"
);
},
{
closed = 1;
nodes = (
"750 150 LINE",
"720 150 OFFCURVE",
"700 170 OFFCURVE",
"700 200 CURVE SMOOTH",
"700 200 OFFCURVE",
"700 200 OFFCURVE",
"700 200 CURVE SMOOTH",
"550 200 LINE SMOOTH",
"550 200 OFFCURVE",
"550 200 OFFCURVE",
"550 200 CURVE SMOOTH",
"550 90 OFFCURVE",
"640 0 OFFCURVE",
"750 0 CURVE"
);
},
{
closed = 1;
nodes = (
"550 200 LINE",
"700 200 LINE",
"700 700 LINE",
"550 700 LINE"
);
},
{
closed = 1;
nodes = (
"750 0 LINE",
"800 0 LINE",
"800 150 LINE",
"750 150 LINE"
);
}
);
width = 900;
},
{
layerId = "833FD172-3601-4257-8297-A103CE2A393F";
width = 600;
}
);
unicode = 03C0;
},
{
glyphname = zero;
lastChange = "2017-09-27 20:28:29 +0000";
layers = (
{
components = (
{
name = _halfcircle_6;
transform = "{1, 0, 0, 1, 0, -150}";
},
{
name = _halfcircle_6;
transform = "{1, 0, 0, -1, 0, 850}";
}
);
layerId = "926D8932-2CBE-4DA1-A7EC-AA50FD678EE5";
paths = (
{
closed = 1;
nodes = (
"100 150 LINE",
"200 150 LINE",
"200 550 LINE",
"100 550 LINE"
);
},
{
closed = 1;
nodes = (
"600 150 LINE",
"700 150 LINE",
"700 550 LINE",
"600 550 LINE"
);
},
{
closed = 1;
nodes = (
"230 -50 LINE",
"640 670 LINE",
"570 750 LINE",
"160 40 LINE"
);
}
);
width = 800;
},
{
components = (
{
name = _halfcircle_6;
transform = "{1, 0, 0, 1, 0, -150}";
},
{
name = _halfcircle_6;
transform = "{1, 0, 0, -1, 0, 850}";
}
);
layerId = "DCFDD359-D3A1-4A9B-975E-26381AFB2AA7";
paths = (
{
closed = 1;
nodes = (
"100 150 LINE",
"250 150 LINE",
"250 550 LINE",
"100 550 LINE"
);
},
{
closed = 1;
nodes = (
"550 150 LINE",
"700 150 LINE",
"700 550 LINE",
"550 550 LINE"
);
},
{
closed = 1;
nodes = (
"230 -50 LINE",
"640 670 LINE",
"570 750 LINE",
"160 40 LINE"
);
}
);
width = 800;
},
{
layerId = "833FD172-3601-4257-8297-A103CE2A393F";
width = 600;
}
);
leftKerningGroup = number;
rightKerningGroup = number;
unicode = 0030;
},
{
glyphname = one;
lastChange = "2017-09-25 18:55:02 +0000";
layers = (
{
layerId = "926D8932-2CBE-4DA1-A7EC-AA50FD678EE5";
paths = (
{
closed = 1;
nodes = (
"350 -150 LINE",
"450 -150 LINE",
"450 850 LINE",
"350 850 LINE"
);
},
{
closed = 1;
nodes = (
"100 -150 LINE",
"700 -150 LINE",
"700 -50 LINE",
"100 -50 LINE"
);
},
{
closed = 1;
nodes = (
"150 510 LINE",
"420 780 LINE",
"350 850 LINE",
"150 650 LINE"
);
}
);
width = 800;
},
{
layerId = "DCFDD359-D3A1-4A9B-975E-26381AFB2AA7";
paths = (
{
closed = 1;
nodes = (
"325 -150 LINE",
"475 -150 LINE",
"475 850 LINE",
"325 850 LINE"
);
},
{
closed = 1;
nodes = (
"100 -150 LINE",
"700 -150 LINE",
"700 0 LINE",
"100 0 LINE"
);
},
{
closed = 1;
nodes = (
"150 465 LINE",
"430 745 LINE",
"325 850 LINE",
"150 675 LINE"
);
}
);
width = 800;
},
{
layerId = "833FD172-3601-4257-8297-A103CE2A393F";
width = 600;
}
);
leftKerningGroup = number;
rightKerningGroup = number;
unicode = 0031;
},
{
glyphname = two;
lastChange = "2017-09-27 20:28:29 +0000";
layers = (
{
components = (
{
name = _halfcircle_6;
transform = "{1, 0, 0, -1, 0, 850}";
}
);
layerId = "926D8932-2CBE-4DA1-A7EC-AA50FD678EE5";
paths = (
{
closed = 1;
nodes = (
"100 -150 LINE",
"700 -150 LINE",
"700 -50 LINE",
"100 -50 LINE"
);
},
{
closed = 1;
nodes = (
"610 340 LINE",
"665 395 OFFCURVE",
"700 470 OFFCURVE",
"700 550 CURVE",
"600 550 LINE",
"600 495 OFFCURVE",
"580 445 OFFCURVE",
"540 410 CURVE"
);
},
{
closed = 1;
nodes = (
"100 -150 LINE",
"120 -150 LINE",
"610 340 LINE",
"540 410 LINE",
"100 -30 LINE"
);
}
);
width = 800;
},
{
components = (
{
name = _halfcircle_6;
transform = "{1, 0, 0, -1, 0, 850}";
}
);
layerId = "DCFDD359-D3A1-4A9B-975E-26381AFB2AA7";
paths = (
{
closed = 1;
nodes = (
"100 -150 LINE",
"700 -150 LINE",
"700 0 LINE",
"100 0 LINE"
);
},
{
closed = 1;
nodes = (
"615 335 LINE",
"665 390 OFFCURVE",
"700 465 OFFCURVE",
"700 550 CURVE",
"550 550 LINE",
"550 510 OFFCURVE",
"535 475 OFFCURVE",
"505 445 CURVE"
);
},
{
closed = 1;
nodes = (
"100 -150 LINE",
"130 -150 LINE",
"615 335 LINE",
"505 445 LINE",
"100 40 LINE"
);
}
);
width = 800;
},
{
layerId = "833FD172-3601-4257-8297-A103CE2A393F";
width = 600;
}
);
leftKerningGroup = number;
rightKerningGroup = number;
unicode = 0032;
},
{
glyphname = three;
lastChange = "2017-09-25 08:47:43 +0000";
layers = (
{
layerId = "926D8932-2CBE-4DA1-A7EC-AA50FD678EE5";
paths = (
{
closed = 1;
nodes = (
"100 150 LINE SMOOTH",
"100 150 OFFCURVE",
"100 150 OFFCURVE",
"100 150 CURVE SMOOTH",
"100 -15 OFFCURVE",
"235 -150 OFFCURVE",
"400 -150 CURVE",
"400 -50 LINE",
"290 -50 OFFCURVE",
"200 40 OFFCURVE",
"200 150 CURVE SMOOTH",
"200 150 OFFCURVE",
"200 150 OFFCURVE",
"200 150 CURVE SMOOTH"
);
},
{
closed = 1;
nodes = (
"650 460 OFFCURVE",
"540 350 OFFCURVE",
"400 350 CURVE",
"400 450 LINE",
"485 450 OFFCURVE",
"550 515 OFFCURVE",
"550 600 CURVE SMOOTH",
"550 685 OFFCURVE",
"485 750 OFFCURVE",
"400 750 CURVE",
"400 850 LINE",
"540 850 OFFCURVE",
"650 740 OFFCURVE",
"650 600 CURVE SMOOTH"
);
},
{
closed = 1;
nodes = (
"565 450 OFFCURVE",
"700 315 OFFCURVE",
"700 150 CURVE SMOOTH",
"700 -15 OFFCURVE",
"565 -150 OFFCURVE",
"400 -150 CURVE",
"400 -50 LINE",
"510 -50 OFFCURVE",
"600 40 OFFCURVE",
"600 150 CURVE SMOOTH",
"600 260 OFFCURVE",
"510 350 OFFCURVE",
"400 350 CURVE",
"400 450 LINE"
);
},
{
closed = 1;
nodes = (
"250 600 LINE",
"250 685 OFFCURVE",
"315 750 OFFCURVE",
"400 750 CURVE",
"400 850 LINE",
"260 850 OFFCURVE",
"150 740 OFFCURVE",
"150 600 CURVE"
);
},
{
closed = 1;
nodes = (
"350 350 LINE",
"400 350 LINE",
"400 450 LINE",
"350 450 LINE"
);
}
);
width = 800;
},
{
layerId = "DCFDD359-D3A1-4A9B-975E-26381AFB2AA7";
paths = (
{
closed = 1;
nodes = (
"400 325 LINE",
"540 325 OFFCURVE",
"660 445 OFFCURVE",
"660 590 CURVE SMOOTH",
"660 730 OFFCURVE",
"540 850 OFFCURVE",
"400 850 CURVE SMOOTH",
"255 850 OFFCURVE",
"135 730 OFFCURVE",
"135 590 CURVE",
"285 590 LINE",
"285 650 OFFCURVE",
"335 700 OFFCURVE",
"400 700 CURVE SMOOTH",
"460 700 OFFCURVE",
"510 650 OFFCURVE",
"510 590 CURVE SMOOTH",
"510 525 OFFCURVE",
"460 475 OFFCURVE",
"400 475 CURVE"
);
},
{
closed = 1;
nodes = (
"400 325 LINE",
"485 325 OFFCURVE",
"560 255 OFFCURVE",
"560 165 CURVE SMOOTH",
"559 72 OFFCURVE",
"487 0 OFFCURVE",
"400 0 CURVE SMOOTH",
"306 0 OFFCURVE",
"234 72 OFFCURVE",
"235 165 CURVE SMOOTH",
"235 165 OFFCURVE",
"235 165 OFFCURVE",
"235 165 CURVE SMOOTH",
"85 165 LINE SMOOTH",
"85 165 OFFCURVE",
"85 165 OFFCURVE",
"85 165 CURVE SMOOTH",
"85 -10 OFFCURVE",
"225 -150 OFFCURVE",
"400 -150 CURVE SMOOTH",
"570 -150 OFFCURVE",
"710 -10 OFFCURVE",
"710 165 CURVE SMOOTH",
"710 335 OFFCURVE",
"570 475 OFFCURVE",
"400 475 CURVE"
);
},
{
closed = 1;
nodes = (
"350 325 LINE",
"400 325 LINE",
"400 475 LINE",
"350 475 LINE"
);
}
);
width = 800;
},
{
layerId = "833FD172-3601-4257-8297-A103CE2A393F";
width = 600;
}
);
leftKerningGroup = number;
rightKerningGroup = number;
unicode = 0033;
},
{
glyphname = four;
lastChange = "2017-09-25 08:21:51 +0000";
layers = (
{
layerId = "926D8932-2CBE-4DA1-A7EC-AA50FD678EE5";
paths = (
{
closed = 1;
nodes = (
"100 100 LINE",
"700 100 LINE",
"700 200 LINE",
"100 200 LINE"
);
},
{
closed = 1;
nodes = (
"500 -150 LINE",
"600 -150 LINE",
"600 850 LINE",
"500 850 LINE"
);
},
{
closed = 1;
nodes = (
"190 150 LINE",
"590 850 LINE",
"475 850 LINE",
"100 200 LINE"
);
}
);
width = 800;
},
{
layerId = "DCFDD359-D3A1-4A9B-975E-26381AFB2AA7";
paths = (
{
closed = 1;
nodes = (
"100 50 LINE",
"700 50 LINE",
"700 200 LINE",
"100 200 LINE"
);
},
{
closed = 1;
nodes = (
"475 -150 LINE",
"625 -150 LINE",
"625 850 LINE",
"475 850 LINE"
);
},
{
closed = 1;
nodes = (
"230 125 LINE",
"625 805 LINE",
"625 850 LINE",
"475 850 LINE",
"100 200 LINE"
);
}
);
width = 800;
},
{
layerId = "833FD172-3601-4257-8297-A103CE2A393F";
width = 600;
}
);
leftKerningGroup = number;
rightKerningGroup = number;
unicode = 0034;
},
{
glyphname = five;
lastChange = "2017-09-27 20:28:29 +0000";
layers = (
{
components = (
{
name = _halfcircle_6;
transform = "{1, 0, 0, 1, 0, -150}";
}
);
layerId = "926D8932-2CBE-4DA1-A7EC-AA50FD678EE5";
paths = (
{
closed = 1;
nodes = (
"400 350 LINE",
"400 350 OFFCURVE",
"400 350 OFFCURVE",
"400 350 CURVE SMOOTH",
"510 350 OFFCURVE",
"600 260 OFFCURVE",
"600 150 CURVE",
"700 150 LINE",
"700 315 OFFCURVE",
"565 450 OFFCURVE",
"400 450 CURVE SMOOTH",
"400 450 OFFCURVE",
"400 450 OFFCURVE",
"400 450 CURVE"
);
},
{
closed = 1;
nodes = (
"400 350 LINE",
"400 450 LINE",
"285 450 LINE",
"365 750 LINE",
"700 750 LINE",
"700 850 LINE",
"285 850 LINE",
"150 350 LINE"
);
}
);
width = 800;
},
{
components = (
{
name = _halfcircle_6;
transform = "{1, 0, 0, 1, 0, -150}";
}
);
layerId = "DCFDD359-D3A1-4A9B-975E-26381AFB2AA7";
paths = (
{
closed = 1;
nodes = (
"400 300 LINE",
"480 300 OFFCURVE",
"550 230 OFFCURVE",
"550 150 CURVE",
"700 150 LINE",
"700 320 OFFCURVE",
"570 450 OFFCURVE",
"400 450 CURVE"
);
},
{
closed = 1;
nodes = (
"295 300 LINE",
"400 300 LINE",
"400 450 LINE",
"335 450 LINE",
"405 700 LINE",
"700 700 LINE",
"700 850 LINE",
"445 850 LINE",
"290 850 LINE",
"250 700 LINE",
"180 450 LINE",
"140 300 LINE"
);
}
);
width = 800;
},
{
layerId = "833FD172-3601-4257-8297-A103CE2A393F";
width = 600;
}
);
leftKerningGroup = number;
rightKerningGroup = number;
unicode = 0035;
},
{
glyphname = six;
lastChange = "2017-09-27 20:28:29 +0000";
layers = (
{
components = (
{
name = _halfcircle_6;
transform = "{1, 0, 0, -1, 0, 450}";
},
{
name = _halfcircle_6;
transform = "{1, 0, 0, 1, 0, -150}";
}
);
layerId = "926D8932-2CBE-4DA1-A7EC-AA50FD678EE5";
paths = (
{
closed = 1;
nodes = (
"100 130 LINE",
"200 130 LINE",
"200 350 LINE",
"100 350 LINE"
);
},
{
closed = 1;
nodes = (
"600 850 LINE",
"325 850 OFFCURVE",
"100 625 OFFCURVE",
"100 350 CURVE",
"200 350 LINE",
"200 570 OFFCURVE",
"380 750 OFFCURVE",
"600 749.996 CURVE"
);
}
);
width = 800;
},
{
components = (
{
name = _halfcircle_6;
transform = "{1, 0, 0, -1, 0, 450}";
},
{
name = _halfcircle_6;
transform = "{1, 0, 0, 1, 0, -150}";
}
);
layerId = "DCFDD359-D3A1-4A9B-975E-26381AFB2AA7";
paths = (
{
closed = 1;
nodes = (
"250 350 LINE",
"250 545 OFFCURVE",
"405 700 OFFCURVE",
"600 700 CURVE",
"600 850 LINE",
"325 850 OFFCURVE",
"100 625 OFFCURVE",
"100 350 CURVE"
);
},
{
closed = 1;
nodes = (
"100 150 LINE",
"250 150 LINE",
"250 350 LINE",
"100 350 LINE"
);
}
);
width = 800;
},
{
layerId = "833FD172-3601-4257-8297-A103CE2A393F";
width = 600;
}
);
leftKerningGroup = number;
rightKerningGroup = number;
unicode = 0036;
},
{
glyphname = seven;
lastChange = "2017-09-25 08:28:37 +0000";
layers = (
{
layerId = "926D8932-2CBE-4DA1-A7EC-AA50FD678EE5";
paths = (
{
closed = 1;
nodes = (
"100 750 LINE",
"700 750 LINE",
"700 850 LINE",
"100 850 LINE"
);
},
{
closed = 1;
nodes = (
"180 -150 LINE",
"700 750 LINE",
"610 800 LINE",
"65 -150 LINE"
);
}
);
width = 800;
},
{
layerId = "DCFDD359-D3A1-4A9B-975E-26381AFB2AA7";
paths = (
{
closed = 1;
nodes = (
"100 700 LINE",
"700 700 LINE",
"700 850 LINE",
"100 850 LINE"
);
},
{
closed = 1;
nodes = (
"210 -150 LINE",
"700 700 LINE",
"570 775 LINE",
"35 -150 LINE"
);
}
);
width = 800;
},
{
layerId = "833FD172-3601-4257-8297-A103CE2A393F";
width = 600;
}
);
leftKerningGroup = number;
rightKerningGroup = number;
unicode = 0037;
},
{
glyphname = eight;
lastChange = "2017-09-25 08:46:03 +0000";
layers = (
{
background = {
components = (
{
name = _halfcircle_5;
transform = "{1, 0, 0, 1, 100, -150}";
}
);
};
layerId = "926D8932-2CBE-4DA1-A7EC-AA50FD678EE5";
paths = (
{
closed = 1;
nodes = (
"235 450 OFFCURVE",
"100 315 OFFCURVE",
"100 150 CURVE SMOOTH",
"100 -15 OFFCURVE",
"235 -150 OFFCURVE",
"400 -150 CURVE",
"400 -50 LINE",
"290 -50 OFFCURVE",
"200 40 OFFCURVE",
"200 150 CURVE SMOOTH",
"200 260 OFFCURVE",
"290 350 OFFCURVE",
"400 350 CURVE",
"400 450 LINE"
);
},
{
closed = 1;
nodes = (
"150 460 OFFCURVE",
"260 350 OFFCURVE",
"400 350 CURVE",
"400 450 LINE",
"315 450 OFFCURVE",
"250 515 OFFCURVE",
"250 600 CURVE SMOOTH",
"250 685 OFFCURVE",
"315 750 OFFCURVE",
"400 750 CURVE",
"400 850 LINE",
"260 850 OFFCURVE",
"150 740 OFFCURVE",
"150 600 CURVE SMOOTH"
);
},
{
closed = 1;
nodes = (
"650 460 OFFCURVE",
"540 350 OFFCURVE",
"400 350 CURVE",
"400 450 LINE",
"485 450 OFFCURVE",
"550 515 OFFCURVE",
"550 600 CURVE SMOOTH",
"550 685 OFFCURVE",
"485 750 OFFCURVE",
"400 750 CURVE",
"400 850 LINE",
"540 850 OFFCURVE",
"650 740 OFFCURVE",
"650 600 CURVE SMOOTH"
);
},
{
closed = 1;
nodes = (
"565 450 OFFCURVE",
"700 315 OFFCURVE",
"700 150 CURVE SMOOTH",
"700 -15 OFFCURVE",
"565 -150 OFFCURVE",
"400 -150 CURVE",
"400 -50 LINE",
"510 -50 OFFCURVE",
"600 40 OFFCURVE",
"600 150 CURVE SMOOTH",
"600 260 OFFCURVE",
"510 350 OFFCURVE",
"400 350 CURVE",
"400 450 LINE"
);
}
);
width = 800;
},
{
guideLines = (
{
position = "{400, 475}";
},
{
position = "{400, 325}";
},
{
position = "{400, -150}";
},
{
position = "{400, 0}";
},
{
position = "{400, 850}";
},
{
position = "{400, 700}";
}
);
layerId = "DCFDD359-D3A1-4A9B-975E-26381AFB2AA7";
paths = (
{
closed = 1;
nodes = (
"542 325 OFFCURVE",
"660 443 OFFCURVE",
"660 590 CURVE SMOOTH",
"660 732 OFFCURVE",
"542 850 OFFCURVE",
"400 850 CURVE SMOOTH",
"253 850 OFFCURVE",
"135 732 OFFCURVE",
"135 590 CURVE SMOOTH",
"135 443 OFFCURVE",
"253 325 OFFCURVE",
"400 325 CURVE SMOOTH"
);
},
{
closed = 1;
nodes = (
"335 475 OFFCURVE",
"285 525 OFFCURVE",
"285 590 CURVE SMOOTH",
"285 650 OFFCURVE",
"335 700 OFFCURVE",
"400 700 CURVE SMOOTH",
"460 700 OFFCURVE",
"510 650 OFFCURVE",
"510 590 CURVE SMOOTH",
"510 525 OFFCURVE",
"460 475 OFFCURVE",
"400 475 CURVE SMOOTH"
);
},
{
closed = 1;
nodes = (
"570 -150 OFFCURVE",
"710 -10 OFFCURVE",
"710 165 CURVE SMOOTH",
"710 335 OFFCURVE",
"570 475 OFFCURVE",
"400 475 CURVE SMOOTH",
"225 475 OFFCURVE",
"85 335 OFFCURVE",
"85 165 CURVE SMOOTH",
"85 -10 OFFCURVE",
"225 -150 OFFCURVE",
"400 -150 CURVE SMOOTH"
);
},
{
closed = 1;
nodes = (
"306 0 OFFCURVE",
"234 72 OFFCURVE",
"235 165 CURVE SMOOTH",
"236 253 OFFCURVE",
"306 325 OFFCURVE",
"400 325 CURVE SMOOTH",
"487 323 OFFCURVE",
"559 253 OFFCURVE",
"560 165 CURVE SMOOTH",
"559 72 OFFCURVE",
"487 0 OFFCURVE",
"400 0 CURVE SMOOTH"
);
}
);
width = 800;
},
{
layerId = "833FD172-3601-4257-8297-A103CE2A393F";
width = 600;
}
);
leftKerningGroup = number;
rightKerningGroup = number;
unicode = 0038;
},
{
glyphname = nine;
lastChange = "2017-09-27 20:28:29 +0000";
layers = (
{
components = (
{
name = _halfcircle_6;
transform = "{1, 0, 0, -1, 0, 850}";
},
{
name = _halfcircle_6;
transform = "{1, 0, 0, 1, 0, 250}";
}
);
layerId = "926D8932-2CBE-4DA1-A7EC-AA50FD678EE5";
paths = (
{
closed = 1;
nodes = (
"700 570 LINE",
"600 570 LINE",
"600 200 LINE",
"700 200 LINE"
);
},
{
closed = 1;
nodes = (
"600 200 LINE",
"600 60 OFFCURVE",
"490 -50 OFFCURVE",
"350 -50 CURVE SMOOTH",
"280 -50 OFFCURVE",
"217 -23 OFFCURVE",
"170 20 CURVE",
"100 -50 LINE",
"167 -110 OFFCURVE",
"255 -150 OFFCURVE",
"350 -150 CURVE SMOOTH",
"540 -150 OFFCURVE",
"700 10 OFFCURVE",
"700 200 CURVE"
);
}
);
width = 800;
},
{
components = (
{
name = _halfcircle_6;
transform = "{1, 0, 0, -1, 0, 850}";
},
{
name = _halfcircle_6;
transform = "{1, 0, 0, 1, 0, 250}";
}
);
layerId = "DCFDD359-D3A1-4A9B-975E-26381AFB2AA7";
paths = (
{
closed = 1;
nodes = (
"550 200 LINE SMOOTH",
"550 200 OFFCURVE",
"550 200 OFFCURVE",
"550 200 CURVE SMOOTH",
"550 90 OFFCURVE",
"460 0 OFFCURVE",
"350 0 CURVE SMOOTH",
"295 0 OFFCURVE",
"245 22 OFFCURVE",
"210 60 CURVE",
"100 -50 LINE",
"165 -110 OFFCURVE",
"255 -150 OFFCURVE",
"350 -150 CURVE SMOOTH",
"545 -150 OFFCURVE",
"700 5 OFFCURVE",
"700 200 CURVE SMOOTH",
"700 200 OFFCURVE",
"700 200 OFFCURVE",
"700 200 CURVE SMOOTH"
);
},
{
closed = 1;
nodes = (
"550 200 LINE",
"700 200 LINE",
"700 550 LINE",
"550 550 LINE"
);
}
);
width = 800;
},
{
layerId = "833FD172-3601-4257-8297-A103CE2A393F";
width = 600;
}
);
leftKerningGroup = number;
rightKerningGroup = number;
unicode = 0039;
},
{
glyphname = zerosuperior;
lastChange = "2017-09-26 17:17:31 +0000";
layers = (
{
components = (
{
name = _halfcircle_3;
},
{
name = _halfcircle_3;
transform = "{-1, 0, 0, -1, 500, 1400}";
}
);
layerId = "926D8932-2CBE-4DA1-A7EC-AA50FD678EE5";
paths = (
{
closed = 1;
nodes = (
"100 550 LINE",
"200 550 LINE",
"200 850 LINE",
"100 850 LINE"
);
},
{
closed = 1;
nodes = (
"300 550 LINE",
"400 550 LINE",
"400 850 LINE",
"300 850 LINE"
);
},
{
closed = 1;
nodes = (
"350 800 LINE",
"300 830 LINE",
"150 600 LINE",
"200 570 LINE"
);
}
);
width = 500;
},
{
layerId = "DCFDD359-D3A1-4A9B-975E-26381AFB2AA7";
width = 600;
},
{
layerId = "833FD172-3601-4257-8297-A103CE2A393F";
width = 600;
}
);
unicode = 2070;
},
{
glyphname = onesuperior;
lastChange = "2017-09-27 19:29:51 +0000";
layers = (
{
layerId = "926D8932-2CBE-4DA1-A7EC-AA50FD678EE5";
paths = (
{
closed = 1;
nodes = (
"80 880 LINE",
"150 810 LINE",
"200 860 LINE",
"200 400 LINE",
"300 400 LINE",
"300 1000 LINE",
"200 1000 LINE"
);
},
{
closed = 1;
nodes = (
"100 400 LINE",
"400 400 LINE",
"400 500 LINE",
"100 500 LINE"
);
}
);
width = 500;
},
{
layerId = "DCFDD359-D3A1-4A9B-975E-26381AFB2AA7";
paths = (
{
closed = 1;
nodes = (
"80 880 LINE",
"150 810 LINE",
"200 860 LINE",
"200 400 LINE",
"300 400 LINE",
"300 1000 LINE",
"200 1000 LINE"
);
},
{
closed = 1;
nodes = (
"100 400 LINE",
"400 400 LINE",
"400 500 LINE",
"100 500 LINE"
);
}
);
width = 500;
},
{
layerId = "833FD172-3601-4257-8297-A103CE2A393F";
width = 600;
}
);
unicode = 00B9;
},
{
glyphname = twosuperior;
lastChange = "2017-09-27 19:30:08 +0000";
layers = (
{
layerId = "926D8932-2CBE-4DA1-A7EC-AA50FD678EE5";
paths = (
{
closed = 1;
nodes = (
"100 400 LINE",
"400 400 LINE",
"400 500 LINE",
"100 500 LINE"
);
},
{
closed = 1;
nodes = (
"200 850 LINE",
"203 881 OFFCURVE",
"223 901 OFFCURVE",
"250 900 CURVE SMOOTH",
"283 899 OFFCURVE",
"303 881 OFFCURVE",
"300 850 CURVE SMOOTH",
"299 841 OFFCURVE",
"303 831 OFFCURVE",
"290 810 CURVE",
"360 740 LINE",
"383 771 OFFCURVE",
"403 811 OFFCURVE",
"400 850 CURVE SMOOTH",
"394 931 OFFCURVE",
"333 1001 OFFCURVE",
"250 1000 CURVE SMOOTH",
"173 999 OFFCURVE",
"103 931 OFFCURVE",
"100 850 CURVE"
);
},
{
closed = 1;
nodes = (
"360 740 LINE",
"290 810 LINE",
"100 500 LINE",
"220 500 LINE"
);
}
);
width = 500;
},
{
layerId = "DCFDD359-D3A1-4A9B-975E-26381AFB2AA7";
paths = (
{
closed = 1;
nodes = (
"100 400 LINE",
"400 400 LINE",
"400 500 LINE",
"100 500 LINE"
);
},
{
closed = 1;
nodes = (
"200 850 LINE",
"203 881 OFFCURVE",
"223 901 OFFCURVE",
"250 900 CURVE SMOOTH",
"283 899 OFFCURVE",
"303 881 OFFCURVE",
"300 850 CURVE SMOOTH",
"299 841 OFFCURVE",
"303 831 OFFCURVE",
"290 810 CURVE",
"360 740 LINE",
"383 771 OFFCURVE",
"403 811 OFFCURVE",
"400 850 CURVE SMOOTH",
"394 931 OFFCURVE",
"333 1001 OFFCURVE",
"250 1000 CURVE SMOOTH",
"173 999 OFFCURVE",
"103 931 OFFCURVE",
"100 850 CURVE"
);
},
{
closed = 1;
nodes = (
"360 740 LINE",
"290 810 LINE",
"100 500 LINE",
"220 500 LINE"
);
}
);
width = 500;
},
{
layerId = "833FD172-3601-4257-8297-A103CE2A393F";
width = 600;
}
);
unicode = 00B2;
},
{
glyphname = threesuperior;
lastChange = "2017-09-27 19:30:25 +0000";
layers = (
{
components = (
{
name = _halfcircle_3;
},
{
name = _halfcircle_3;
transform = "{-1, 0, 0, -1, 500, 1400}";
},
{
name = _quartercircle_3;
transform = "{1, 0, 0, 1, 0, -50}";
},
{
name = _quartercircle_3;
transform = "{0, 1, -1, 0, 1100, 350}";
}
);
layerId = "926D8932-2CBE-4DA1-A7EC-AA50FD678EE5";
paths = (
{
closed = 1;
nodes = (
"300 800 LINE",
"400 800 LINE",
"400 850 LINE",
"300 850 LINE"
);
},
{
closed = 1;
nodes = (
"300 550 LINE",
"400 550 LINE",
"400 600 LINE",
"300 600 LINE"
);
},
{
closed = 1;
nodes = (
"200 650 LINE",
"250 650 LINE",
"250 750 LINE",
"200 750 LINE"
);
}
);
width = 500;
},
{
components = (
{
name = _halfcircle_3;
},
{
name = _halfcircle_3;
transform = "{-1, 0, 0, -1, 500, 1400}";
},
{
name = _quartercircle_3;
transform = "{1, 0, 0, 1, 0, -50}";
},
{
name = _quartercircle_3;
transform = "{0, 1, -1, 0, 1100, 350}";
}
);
layerId = "DCFDD359-D3A1-4A9B-975E-26381AFB2AA7";
paths = (
{
closed = 1;
nodes = (
"300 800 LINE",
"400 800 LINE",
"400 850 LINE",
"300 850 LINE"
);
},
{
closed = 1;
nodes = (
"300 550 LINE",
"400 550 LINE",
"400 600 LINE",
"300 600 LINE"
);
},
{
closed = 1;
nodes = (
"200 650 LINE",
"250 650 LINE",
"250 750 LINE",
"200 750 LINE"
);
}
);
width = 500;
},
{
layerId = "833FD172-3601-4257-8297-A103CE2A393F";
width = 600;
}
);
unicode = 00B3;
},
{
glyphname = foursuperior;
lastChange = "2017-09-27 19:31:59 +0000";
layers = (
{
layerId = "926D8932-2CBE-4DA1-A7EC-AA50FD678EE5";
paths = (
{
closed = 1;
nodes = (
"300 400 LINE",
"400 400 LINE",
"400 1000 LINE",
"300 1000 LINE"
);
},
{
closed = 1;
nodes = (
"100 600 LINE",
"450 600 LINE",
"450 700 LINE",
"100 700 LINE"
);
},
{
closed = 1;
nodes = (
"100 700 LINE",
"200 700 LINE",
"300 860 LINE",
"300 1000 LINE"
);
}
);
width = 500;
},
{
layerId = "DCFDD359-D3A1-4A9B-975E-26381AFB2AA7";
paths = (
{
closed = 1;
nodes = (
"300 400 LINE",
"400 400 LINE",
"400 1000 LINE",
"300 1000 LINE"
);
},
{
closed = 1;
nodes = (
"100 600 LINE",
"450 600 LINE",
"450 700 LINE",
"100 700 LINE"
);
},
{
closed = 1;
nodes = (
"100 700 LINE",
"200 700 LINE",
"300 860 LINE",
"300 1000 LINE"
);
}
);
width = 500;
},
{
layerId = "833FD172-3601-4257-8297-A103CE2A393F";
width = 600;
}
);
unicode = 2074;
},
{
glyphname = fivesuperior;
lastChange = "2017-09-26 17:12:12 +0000";
layers = (
{
components = (
{
name = five;
}
);
layerId = "833FD172-3601-4257-8297-A103CE2A393F";
width = 600;
},
{
components = (
{
name = _halfcircle_3;
transform = "{-1, 0, 0, -1, 500, 1400}";
},
{
name = _quartercircle_3;
transform = "{0, 1, -1, 0, 1100, 350}";
}
);
layerId = "926D8932-2CBE-4DA1-A7EC-AA50FD678EE5";
paths = (
{
closed = 1;
nodes = (
"100 650 LINE",
"200 650 LINE",
"200 1000 LINE",
"100 1000 LINE"
);
},
{
closed = 1;
nodes = (
"300 550 LINE",
"400 550 LINE",
"400 600 LINE",
"300 600 LINE"
);
},
{
closed = 1;
nodes = (
"200 650 LINE",
"250 650 LINE",
"250 750 LINE",
"200 750 LINE"
);
},
{
closed = 1;
nodes = (
"200 900 LINE",
"400 900 LINE",
"400 1000 LINE",
"200 1000 LINE"
);
}
);
width = 500;
},
{
components = (
{
name = five;
}
);
layerId = "DCFDD359-D3A1-4A9B-975E-26381AFB2AA7";
width = 800;
}
);
unicode = 2075;
},
{
glyphname = sixsuperior;
lastChange = "2017-09-26 17:10:17 +0000";
layers = (
{
components = (
{
name = six;
}
);
layerId = "833FD172-3601-4257-8297-A103CE2A393F";
width = 600;
},
{
components = (
{
name = _halfcircle_3;
transform = "{-1, 0, 0, -1, 500, 1400}";
},
{
name = _halfcircle_3;
},
{
name = _halfcircle_3;
transform = "{1, 0, 0, 1, 0, -250}";
}
);
layerId = "926D8932-2CBE-4DA1-A7EC-AA50FD678EE5";
paths = (
{
closed = 1;
nodes = (
"100 550 LINE",
"100 850 LINE",
"200 850 LINE",
"200 550 LINE"
);
},
{
closed = 1;
nodes = (
"400 600 LINE",
"300 600 LINE",
"300 550 LINE",
"400 550 LINE"
);
}
);
width = 500;
},
{
components = (
{
name = six;
}
);
layerId = "DCFDD359-D3A1-4A9B-975E-26381AFB2AA7";
width = 800;
}
);
unicode = 2076;
},
{
glyphname = sevensuperior;
lastChange = "2017-09-26 17:16:35 +0000";
layers = (
{
components = (
{
name = seven;
}
);
layerId = "833FD172-3601-4257-8297-A103CE2A393F";
width = 600;
},
{
layerId = "926D8932-2CBE-4DA1-A7EC-AA50FD678EE5";
paths = (
{
closed = 1;
nodes = (
"105 900 LINE",
"400 900 LINE",
"400 1000 LINE",
"105 1000 LINE"
);
},
{
closed = 1;
nodes = (
"100 400 LINE",
"200 400 LINE",
"200 555 LINE",
"400 900 LINE",
"310 950 LINE",
"120 620 LINE",
"100 585 LINE"
);
}
);
width = 500;
},
{
components = (
{
name = seven;
}
);
layerId = "DCFDD359-D3A1-4A9B-975E-26381AFB2AA7";
width = 800;
}
);
unicode = 2077;
},
{
glyphname = eightsuperior;
lastChange = "2017-09-26 17:07:32 +0000";
layers = (
{
components = (
{
name = eight;
}
);
layerId = "833FD172-3601-4257-8297-A103CE2A393F";
width = 600;
},
{
components = (
{
name = _halfcircle_3;
},
{
name = _halfcircle_3;
transform = "{-1, 0, 0, -1, 500, 1400}";
},
{
name = _halfcircle_3;
transform = "{1, 0, 0, 1, 0, -250}";
},
{
name = _halfcircle_3;
transform = "{-1, 0, 0, -1, 500, 1650}";
}
);
layerId = "926D8932-2CBE-4DA1-A7EC-AA50FD678EE5";
paths = (
{
closed = 1;
nodes = (
"300 800 LINE",
"400 800 LINE",
"400 850 LINE",
"300 850 LINE"
);
},
{
closed = 1;
nodes = (
"300 550 LINE",
"400 550 LINE",
"400 600 LINE",
"300 600 LINE"
);
},
{
closed = 1;
nodes = (
"100 800 LINE",
"200 800 LINE",
"200 850 LINE",
"100 850 LINE"
);
},
{
closed = 1;
nodes = (
"100 550 LINE",
"200 550 LINE",
"200 600 LINE",
"100 600 LINE"
);
}
);
width = 500;
},
{
components = (
{
name = eight;
}
);
layerId = "DCFDD359-D3A1-4A9B-975E-26381AFB2AA7";
width = 800;
}
);
unicode = 2078;
},
{
glyphname = ninesuperior;
lastChange = "2017-09-26 17:09:58 +0000";
layers = (
{
components = (
{
name = nine;
}
);
layerId = "833FD172-3601-4257-8297-A103CE2A393F";
width = 600;
},
{
components = (
{
name = _halfcircle_3;
},
{
name = _halfcircle_3;
transform = "{-1, 0, 0, -1, 500, 1400}";
},
{
name = _halfcircle_3;
transform = "{-1, 0, 0, -1, 500, 1650}";
}
);
layerId = "926D8932-2CBE-4DA1-A7EC-AA50FD678EE5";
paths = (
{
closed = 1;
nodes = (
"400 850 LINE",
"400 550 LINE",
"300 550 LINE",
"300 850 LINE"
);
},
{
closed = 1;
nodes = (
"100 800 LINE",
"200 800 LINE",
"200 850 LINE",
"100 850 LINE"
);
}
);
width = 500;
},
{
components = (
{
name = nine;
}
);
layerId = "DCFDD359-D3A1-4A9B-975E-26381AFB2AA7";
width = 800;
}
);
unicode = 2079;
},
{
glyphname = fraction;
lastChange = "2017-09-27 19:33:14 +0000";
layers = (
{
layerId = "926D8932-2CBE-4DA1-A7EC-AA50FD678EE5";
paths = (
{
closed = 1;
nodes = (
"80 -140 LINE",
"160 -220 LINE",
"1220 840 LINE",
"1140 920 LINE"
);
}
);
width = 1300;
},
{
layerId = "DCFDD359-D3A1-4A9B-975E-26381AFB2AA7";
paths = (
{
closed = 1;
nodes = (
"80 -140 LINE",
"160 -220 LINE",
"1220 840 LINE",
"1140 920 LINE"
);
}
);
width = 1300;
},
{
layerId = "833FD172-3601-4257-8297-A103CE2A393F";
width = 600;
}
);
unicode = 2044;
},
{
glyphname = onehalf;
lastChange = "2017-09-27 19:33:59 +0000";
layers = (
{
background = {
paths = (
{
closed = 1;
nodes = (
"800 160 LINE",
"920 10 LINE",
"1200 100 LINE",
"1050 250 LINE",
"880 250 LINE"
);
}
);
};
components = (
{
name = fraction;
},
{
name = onesuperior;
},
{
name = twosuperior;
transform = "{1, 0, 0, 1, 800, -700}";
}
);
layerId = "926D8932-2CBE-4DA1-A7EC-AA50FD678EE5";
width = 1300;
},
{
components = (
{
name = fraction;
},
{
name = onesuperior;
},
{
name = twosuperior;
transform = "{1, 0, 0, 1, 800, -700}";
}
);
layerId = "DCFDD359-D3A1-4A9B-975E-26381AFB2AA7";
width = 1300;
},
{
layerId = "833FD172-3601-4257-8297-A103CE2A393F";
width = 600;
}
);
unicode = 00BD;
},
{
glyphname = period;
lastChange = "2017-09-25 08:34:54 +0000";
layers = (
{
layerId = "926D8932-2CBE-4DA1-A7EC-AA50FD678EE5";
paths = (
{
closed = 1;
nodes = (
"200 0 LINE",
"400 0 LINE",
"400 200 LINE",
"200 200 LINE"
);
}
);
width = 600;
},
{
layerId = "DCFDD359-D3A1-4A9B-975E-26381AFB2AA7";
paths = (
{
closed = 1;
nodes = (
"200 0 LINE",
"400 0 LINE",
"400 200 LINE",
"200 200 LINE"
);
}
);
width = 600;
},
{
layerId = "833FD172-3601-4257-8297-A103CE2A393F";
width = 600;
}
);
unicode = 002E;
},
{
glyphname = comma;
lastChange = "2017-09-25 08:34:32 +0000";
layers = (
{
layerId = "926D8932-2CBE-4DA1-A7EC-AA50FD678EE5";
paths = (
{
closed = 1;
nodes = (
"100 -300 LINE",
"200 -300 LINE",
"400 200 LINE",
"200 200 LINE"
);
}
);
width = 600;
},
{
layerId = "DCFDD359-D3A1-4A9B-975E-26381AFB2AA7";
paths = (
{
closed = 1;
nodes = (
"100 -300 LINE",
"200 -300 LINE",
"400 200 LINE",
"200 200 LINE"
);
}
);
width = 600;
},
{
layerId = "833FD172-3601-4257-8297-A103CE2A393F";
width = 600;
}
);
unicode = 002C;
},
{
glyphname = exclam;
lastChange = "2017-09-25 00:55:53 +0000";
layers = (
{
layerId = "926D8932-2CBE-4DA1-A7EC-AA50FD678EE5";
paths = (
{
closed = 1;
nodes = (
"200 0 LINE",
"350 0 LINE",
"350 150 LINE",
"200 150 LINE"
);
},
{
closed = 1;
nodes = (
"200 300 LINE",
"350 300 LINE",
"350 1000 LINE",
"200 1000 LINE"
);
}
);
width = 550;
},
{
layerId = "DCFDD359-D3A1-4A9B-975E-26381AFB2AA7";
paths = (
{
closed = 1;
nodes = (
"200 0 LINE",
"350 0 LINE",
"350 150 LINE",
"200 150 LINE"
);
},
{
closed = 1;
nodes = (
"200 300 LINE",
"350 300 LINE",
"350 1000 LINE",
"200 1000 LINE"
);
}
);
width = 550;
},
{
layerId = "833FD172-3601-4257-8297-A103CE2A393F";
width = 600;
}
);
unicode = 0021;
},
{
glyphname = question;
lastChange = "2017-09-25 04:16:32 +0000";
layers = (
{
layerId = "926D8932-2CBE-4DA1-A7EC-AA50FD678EE5";
paths = (
{
closed = 1;
nodes = (
"310 0 LINE",
"410 0 LINE",
"410 150 LINE",
"310 150 LINE"
);
},
{
closed = 1;
nodes = (
"310 250 LINE",
"410 250 LINE",
"410 550 LINE",
"310 550 LINE"
);
},
{
closed = 1;
nodes = (
"370 450 LINE",
"517 450 OFFCURVE",
"640 573 OFFCURVE",
"640 730 CURVE SMOOTH",
"640 877 OFFCURVE",
"517 1000 OFFCURVE",
"370 1000 CURVE",
"370 900 LINE",
"462 900 OFFCURVE",
"540 822 OFFCURVE",
"540 730 CURVE SMOOTH",
"540 628 OFFCURVE",
"462 550 OFFCURVE",
"370 550 CURVE"
);
},
{
closed = 1;
nodes = (
"200 730 LINE",
"200 822 OFFCURVE",
"278 900 OFFCURVE",
"370 900 CURVE",
"370 1000 LINE",
"223 1000 OFFCURVE",
"100 877 OFFCURVE",
"100 730 CURVE"
);
}
);
width = 750;
},
{
layerId = "DCFDD359-D3A1-4A9B-975E-26381AFB2AA7";
paths = (
{
closed = 1;
nodes = (
"285 0 LINE",
"435 0 LINE",
"435 150 LINE",
"285 150 LINE"
);
},
{
closed = 1;
nodes = (
"285 250 LINE",
"435 250 LINE",
"435 580 LINE",
"285 580 LINE"
);
},
{
closed = 1;
nodes = (
"370 450 LINE",
"517 450 OFFCURVE",
"640 573 OFFCURVE",
"640 730 CURVE SMOOTH",
"640 877 OFFCURVE",
"517 1000 OFFCURVE",
"370 1000 CURVE",
"370 900 LINE",
"462 900 OFFCURVE",
"540 822 OFFCURVE",
"540 730 CURVE SMOOTH",
"540 628 OFFCURVE",
"462 550 OFFCURVE",
"370 550 CURVE"
);
},
{
closed = 1;
nodes = (
"200 730 LINE",
"200 822 OFFCURVE",
"278 900 OFFCURVE",
"370 900 CURVE",
"370 1000 LINE",
"223 1000 OFFCURVE",
"100 877 OFFCURVE",
"100 730 CURVE"
);
},
{
closed = 1;
nodes = (
"530 420 OFFCURVE",
"660 550 OFFCURVE",
"660 710 CURVE SMOOTH",
"660 870 OFFCURVE",
"530 1000 OFFCURVE",
"370 1000 CURVE",
"370 850 LINE",
"445 850 OFFCURVE",
"505 790 OFFCURVE",
"505 715 CURVE SMOOTH",
"505 640 OFFCURVE",
"445 580 OFFCURVE",
"370 580 CURVE",
"370 420 LINE"
);
},
{
closed = 1;
nodes = (
"235 715 LINE",
"235 790 OFFCURVE",
"295 850 OFFCURVE",
"370 850 CURVE",
"370 1000 LINE",
"210 1000 OFFCURVE",
"85 875 OFFCURVE",
"80 715 CURVE"
);
}
);
width = 750;
},
{
layerId = "833FD172-3601-4257-8297-A103CE2A393F";
width = 600;
}
);
unicode = 003F;
},
{
glyphname = questiondown;
lastChange = "2017-09-27 19:04:03 +0000";
layers = (
{
layerId = "926D8932-2CBE-4DA1-A7EC-AA50FD678EE5";
paths = (
{
closed = 1;
nodes = (
"440 700 LINE",
"340 700 LINE",
"340 550 LINE",
"440 550 LINE"
);
},
{
closed = 1;
nodes = (
"440 450 LINE",
"340 450 LINE",
"340 150 LINE",
"440 150 LINE"
);
},
{
closed = 1;
nodes = (
"380 250 LINE",
"233 250 OFFCURVE",
"110 127 OFFCURVE",
"110 -30 CURVE SMOOTH",
"110 -177 OFFCURVE",
"233 -300 OFFCURVE",
"380 -300 CURVE",
"380 -200 LINE",
"288 -200 OFFCURVE",
"210 -122 OFFCURVE",
"210 -30 CURVE SMOOTH",
"210 72 OFFCURVE",
"288 150 OFFCURVE",
"380 150 CURVE"
);
},
{
closed = 1;
nodes = (
"550 -30 LINE",
"550 -122 OFFCURVE",
"472 -200 OFFCURVE",
"380 -200 CURVE",
"380 -300 LINE",
"527 -300 OFFCURVE",
"650 -177 OFFCURVE",
"650 -30 CURVE"
);
}
);
width = 750;
},
{
components = (
{
name = question;
transform = "{-1, 0, 0, -1, 750, 700}";
}
);
layerId = "DCFDD359-D3A1-4A9B-975E-26381AFB2AA7";
width = 750;
},
{
layerId = "833FD172-3601-4257-8297-A103CE2A393F";
width = 600;
}
);
unicode = 00BF;
},
{
glyphname = periodcentered;
lastChange = "2017-09-27 19:17:46 +0000";
layers = (
{
layerId = "926D8932-2CBE-4DA1-A7EC-AA50FD678EE5";
paths = (
{
closed = 1;
nodes = (
"200 250 LINE",
"400 250 LINE",
"400 450 LINE",
"200 450 LINE"
);
}
);
width = 600;
},
{
layerId = "DCFDD359-D3A1-4A9B-975E-26381AFB2AA7";
paths = (
{
closed = 1;
nodes = (
"200 250 LINE",
"400 250 LINE",
"400 450 LINE",
"200 450 LINE"
);
}
);
width = 600;
},
{
layerId = "833FD172-3601-4257-8297-A103CE2A393F";
width = 600;
}
);
unicode = 00B7;
},
{
glyphname = bullet;
lastChange = "2017-09-27 08:43:33 +0000";
layers = (
{
layerId = "926D8932-2CBE-4DA1-A7EC-AA50FD678EE5";
paths = (
{
closed = 1;
nodes = (
"510 150 OFFCURVE",
"600 240 OFFCURVE",
"600 350 CURVE SMOOTH",
"600 460 OFFCURVE",
"510 550 OFFCURVE",
"400 550 CURVE SMOOTH",
"290 550 OFFCURVE",
"200 460 OFFCURVE",
"200 350 CURVE SMOOTH",
"200 240 OFFCURVE",
"290 150 OFFCURVE",
"400 150 CURVE SMOOTH"
);
}
);
width = 800;
},
{
layerId = "DCFDD359-D3A1-4A9B-975E-26381AFB2AA7";
paths = (
{
closed = 1;
nodes = (
"510 150 OFFCURVE",
"600 240 OFFCURVE",
"600 350 CURVE SMOOTH",
"600 460 OFFCURVE",
"510 550 OFFCURVE",
"400 550 CURVE SMOOTH",
"290 550 OFFCURVE",
"200 460 OFFCURVE",
"200 350 CURVE SMOOTH",
"200 240 OFFCURVE",
"290 150 OFFCURVE",
"400 150 CURVE SMOOTH"
);
}
);
width = 800;
},
{
layerId = "833FD172-3601-4257-8297-A103CE2A393F";
width = 600;
}
);
unicode = 2022;
},
{
glyphname = asterisk;
lastChange = "2017-09-27 20:28:29 +0000";
layers = (
{
layerId = "926D8932-2CBE-4DA1-A7EC-AA50FD678EE5";
paths = (
{
closed = 1;
nodes = (
"350 50 LINE",
"450 50 LINE",
"450 650 LINE",
"350 650 LINE"
);
},
{
closed = 1;
nodes = (
"120 240 LINE",
"170 160 LINE",
"680 460 LINE",
"630 540 LINE"
);
},
{
closed = 1;
nodes = (
"630 160 LINE",
"680 240 LINE",
"170 540 LINE",
"120 460 LINE"
);
}
);
width = 800;
},
{
components = (
{
name = hyphen;
transform = "{0, -1, 1, 0, 50, 750}";
},
{
name = hyphen;
transform = "{0.86603, -0.5, 0.5, 0.86603, -120, 250}";
},
{
name = hyphen;
transform = "{0.86603, 0.5, -0.5, 0.86603, 230, -150}";
}
);
layerId = "DCFDD359-D3A1-4A9B-975E-26381AFB2AA7";
width = 800;
},
{
components = (
{
name = hyphen;
transform = "{0, -1, 1, 0, 45, 750}";
},
{
name = hyphen;
transform = "{0.86603, -0.5, 0.5, 0.86603, -120, 245}";
},
{
name = hyphen;
transform = "{0.86603, 0.5, -0.5, 0.86603, 230, -150}";
}
);
layerId = "833FD172-3601-4257-8297-A103CE2A393F";
width = 800;
}
);
unicode = 002A;
},
{
glyphname = numbersign;
lastChange = "2017-09-25 07:46:15 +0000";
layers = (
{
layerId = "926D8932-2CBE-4DA1-A7EC-AA50FD678EE5";
paths = (
{
closed = 1;
nodes = (
"445 -150 LINE",
"710 850 LINE",
"605 850 LINE",
"340 -150 LINE"
);
},
{
closed = 1;
nodes = (
"195 -150 LINE",
"460 850 LINE",
"355 850 LINE",
"90 -150 LINE"
);
},
{
closed = 1;
nodes = (
"155 450 LINE",
"700 450 LINE",
"725 550 LINE",
"180 550 LINE"
);
},
{
closed = 1;
nodes = (
"75 150 LINE",
"620 150 LINE",
"645 250 LINE",
"100 250 LINE"
);
}
);
width = 800;
},
{
layerId = "DCFDD359-D3A1-4A9B-975E-26381AFB2AA7";
paths = (
{
closed = 1;
nodes = (
"495 -150 LINE",
"760 850 LINE",
"605 850 LINE",
"340 -150 LINE"
);
},
{
closed = 1;
nodes = (
"195 -150 LINE",
"460 850 LINE",
"305 850 LINE",
"40 -150 LINE"
);
},
{
closed = 1;
nodes = (
"105 450 LINE",
"750 450 LINE",
"790 600 LINE",
"145 600 LINE"
);
},
{
closed = 1;
nodes = (
"10 100 LINE",
"655 100 LINE",
"695 250 LINE",
"50 250 LINE"
);
}
);
width = 800;
},
{
layerId = "833FD172-3601-4257-8297-A103CE2A393F";
width = 600;
}
);
unicode = 0023;
},
{
glyphname = slash;
lastChange = "2017-09-25 07:37:00 +0000";
layers = (
{
layerId = "926D8932-2CBE-4DA1-A7EC-AA50FD678EE5";
paths = (
{
closed = 1;
nodes = (
"180 -260 LINE",
"280 -290 LINE",
"620 960 LINE",
"520 990 LINE"
);
}
);
width = 800;
},
{
layerId = "DCFDD359-D3A1-4A9B-975E-26381AFB2AA7";
paths = (
{
closed = 1;
nodes = (
"160 -260 LINE",
"305 -295 LINE",
"640 960 LINE",
"495 995 LINE"
);
}
);
width = 800;
},
{
layerId = "833FD172-3601-4257-8297-A103CE2A393F";
paths = (
{
closed = 1;
nodes = (
"160 -270 LINE",
"205 -285 LINE",
"540 970 LINE",
"495 985 LINE"
);
}
);
width = 700;
}
);
unicode = 002F;
},
{
glyphname = backslash;
lastChange = "2017-09-25 07:37:12 +0000";
layers = (
{
layerId = "926D8932-2CBE-4DA1-A7EC-AA50FD678EE5";
paths = (
{
closed = 1;
nodes = (
"180 960 LINE",
"520 -290 LINE",
"620 -260 LINE",
"280 990 LINE"
);
}
);
width = 800;
},
{
layerId = "DCFDD359-D3A1-4A9B-975E-26381AFB2AA7";
paths = (
{
closed = 1;
nodes = (
"160 960 LINE",
"495 -295 LINE",
"640 -260 LINE",
"305 995 LINE"
);
}
);
width = 800;
},
{
layerId = "833FD172-3601-4257-8297-A103CE2A393F";
paths = (
{
closed = 1;
nodes = (
"160 970 LINE",
"495 -285 LINE",
"540 -270 LINE",
"205 985 LINE"
);
}
);
width = 700;
}
);
unicode = 005C;
},
{
glyphname = parenleft;
lastChange = "2017-09-25 08:00:53 +0000";
layers = (
{
layerId = "926D8932-2CBE-4DA1-A7EC-AA50FD678EE5";
paths = (
{
closed = 1;
nodes = (
"203 77 OFFCURVE",
"277 -180 OFFCURVE",
"400 -400 CURVE",
"520 -400 LINE",
"381 -183 OFFCURVE",
"300 74 OFFCURVE",
"300 350 CURVE SMOOTH",
"301 627 OFFCURVE",
"382 884 OFFCURVE",
"520 1100 CURVE",
"400 1100 LINE",
"274 879 OFFCURVE",
"200 622 OFFCURVE",
"200 350 CURVE SMOOTH"
);
}
);
width = 800;
},
{
layerId = "DCFDD359-D3A1-4A9B-975E-26381AFB2AA7";
paths = (
{
closed = 1;
nodes = (
"173 77 OFFCURVE",
"247 -180 OFFCURVE",
"370 -400 CURVE",
"550 -400 LINE",
"411 -183 OFFCURVE",
"330 74 OFFCURVE",
"330 350 CURVE SMOOTH",
"331 627 OFFCURVE",
"412 884 OFFCURVE",
"550 1100 CURVE",
"370 1100 LINE",
"244 879 OFFCURVE",
"170 622 OFFCURVE",
"170 350 CURVE SMOOTH"
);
}
);
width = 800;
},
{
layerId = "833FD172-3601-4257-8297-A103CE2A393F";
width = 600;
}
);
unicode = 0028;
},
{
glyphname = parenright;
lastChange = "2017-09-27 20:13:16 +0000";
layers = (
{
layerId = "926D8932-2CBE-4DA1-A7EC-AA50FD678EE5";
paths = (
{
closed = 1;
nodes = (
"600 622 OFFCURVE",
"526 879 OFFCURVE",
"400 1100 CURVE",
"280 1100 LINE",
"418 884 OFFCURVE",
"499 627 OFFCURVE",
"500 350 CURVE SMOOTH",
"500 74 OFFCURVE",
"419 -183 OFFCURVE",
"280 -400 CURVE",
"400 -400 LINE",
"523 -180 OFFCURVE",
"597 77 OFFCURVE",
"600 350 CURVE SMOOTH"
);
}
);
width = 800;
},
{
layerId = "DCFDD359-D3A1-4A9B-975E-26381AFB2AA7";
paths = (
{
closed = 1;
nodes = (
"630 622 OFFCURVE",
"556 879 OFFCURVE",
"430 1100 CURVE",
"250 1100 LINE",
"388 884 OFFCURVE",
"469 627 OFFCURVE",
"470 350 CURVE SMOOTH",
"470 74 OFFCURVE",
"389 -183 OFFCURVE",
"250 -400 CURVE",
"430 -400 LINE",
"553 -180 OFFCURVE",
"627 77 OFFCURVE",
"630 350 CURVE SMOOTH"
);
}
);
width = 800;
},
{
layerId = "833FD172-3601-4257-8297-A103CE2A393F";
width = 600;
}
);
unicode = 0029;
},
{
glyphname = braceleft;
lastChange = "2017-09-27 20:28:29 +0000";
layers = (
{
components = (
{
name = _quartercircle_curly;
transform = "{1, 0, 0, 1, -100, 0}";
}
);
layerId = "926D8932-2CBE-4DA1-A7EC-AA50FD678EE5";
paths = (
{
closed = 1;
nodes = (
"300 -200 LINE",
"400 -200 LINE",
"400 200 LINE",
"300 200 LINE"
);
},
{
closed = 1;
nodes = (
"600 -400 LINE",
"500 -400 LINE",
"500 -300 LINE",
"600 -300 LINE"
);
},
{
closed = 1;
nodes = (
"303 -312 OFFCURVE",
"393 -402 OFFCURVE",
"500 -400 CURVE",
"500 -300 LINE",
"448 -302 OFFCURVE",
"403 -257 OFFCURVE",
"400 -200 CURVE",
"300 -200 LINE"
);
},
{
closed = 1;
nodes = (
"500 1000 LINE",
"500 1100 LINE",
"600 1100 LINE",
"600 1000 LINE"
);
},
{
closed = 1;
nodes = (
"400 900 LINE",
"403 957 OFFCURVE",
"448 1002 OFFCURVE",
"500 1000 CURVE",
"500 1100 LINE",
"393 1102 OFFCURVE",
"303 1012 OFFCURVE",
"300 900 CURVE"
);
},
{
closed = 1;
nodes = (
"100 400 LINE",
"200 400 LINE",
"200 300 LINE",
"100 300 LINE"
);
},
{
closed = 1;
nodes = (
"397 312 OFFCURVE",
"307 402 OFFCURVE",
"200 400 CURVE",
"200 300 LINE",
"252 302 OFFCURVE",
"297 257 OFFCURVE",
"300 200 CURVE",
"400 200 LINE"
);
},
{
closed = 1;
nodes = (
"300 500 LINE",
"400 500 LINE",
"400 900 LINE",
"300 900 LINE"
);
}
);
width = 800;
},
{
components = (
{
name = _quartercircle_curly;
transform = "{1, 0, 0, 1, -100, 0}";
},
{
name = _quartercircle_curly;
transform = "{1, 0, 0, -1, -100, 700}";
},
{
name = _quartercircle_curly;
transform = "{-1, 0, 0, 1, 800, -675}";
},
{
name = _quartercircle_curly;
transform = "{-1, 0, 0, -1, 800, 1375}";
}
);
layerId = "DCFDD359-D3A1-4A9B-975E-26381AFB2AA7";
paths = (
{
closed = 1;
nodes = (
"275 -175 LINE",
"425 -175 LINE",
"425 200 LINE",
"275 200 LINE"
);
},
{
closed = 1;
nodes = (
"600 -400 LINE",
"500 -400 LINE",
"500 -250 LINE",
"600 -250 LINE"
);
},
{
closed = 1;
nodes = (
"500 950 LINE",
"500 1100 LINE",
"600 1100 LINE",
"600 950 LINE"
);
},
{
closed = 1;
nodes = (
"100 425 LINE",
"200 425 LINE",
"200 275 LINE",
"100 275 LINE"
);
},
{
closed = 1;
nodes = (
"275 500 LINE",
"425 500 LINE",
"425 875 LINE",
"275 875 LINE"
);
}
);
width = 800;
},
{
layerId = "833FD172-3601-4257-8297-A103CE2A393F";
width = 600;
}
);
unicode = 007B;
},
{
glyphname = braceright;
lastChange = "2017-09-27 20:28:29 +0000";
layers = (
{
layerId = "926D8932-2CBE-4DA1-A7EC-AA50FD678EE5";
paths = (
{
closed = 1;
nodes = (
"400 200 LINE",
"400 -200 LINE",
"500 -200 LINE",
"500 200 LINE"
);
},
{
closed = 1;
nodes = (
"300 -300 LINE",
"300 -400 LINE",
"200 -400 LINE",
"200 -300 LINE"
);
},
{
closed = 1;
nodes = (
"400 -200 LINE",
"397 -257 OFFCURVE",
"352 -302 OFFCURVE",
"300 -300 CURVE",
"300 -400 LINE",
"407 -402 OFFCURVE",
"497 -312 OFFCURVE",
"500 -200 CURVE"
);
},
{
closed = 1;
nodes = (
"200 1100 LINE",
"300 1100 LINE",
"300 1000 LINE",
"200 1000 LINE"
);
},
{
closed = 1;
nodes = (
"497 1012 OFFCURVE",
"407 1102 OFFCURVE",
"300 1100 CURVE",
"300 1000 LINE",
"352 1002 OFFCURVE",
"397 957 OFFCURVE",
"400 900 CURVE",
"500 900 LINE"
);
},
{
closed = 1;
nodes = (
"403 388 OFFCURVE",
"493 298 OFFCURVE",
"600 300 CURVE",
"600 400 LINE",
"548 398 OFFCURVE",
"503 443 OFFCURVE",
"500 500 CURVE",
"400 500 LINE"
);
},
{
closed = 1;
nodes = (
"600 300 LINE",
"600 400 LINE",
"700 400 LINE",
"700 300 LINE"
);
},
{
closed = 1;
nodes = (
"500 200 LINE",
"503 257 OFFCURVE",
"548 302 OFFCURVE",
"600 300 CURVE",
"600 400 LINE",
"493 402 OFFCURVE",
"403 312 OFFCURVE",
"400 200 CURVE"
);
},
{
closed = 1;
nodes = (
"400 900 LINE",
"400 500 LINE",
"500 500 LINE",
"500 900 LINE"
);
}
);
width = 800;
},
{
components = (
{
name = braceleft;
transform = "{-1, 0, 0, 1, 800, 0}";
}
);
layerId = "DCFDD359-D3A1-4A9B-975E-26381AFB2AA7";
width = 800;
},
{
layerId = "833FD172-3601-4257-8297-A103CE2A393F";
width = 600;
}
);
unicode = 007D;
},
{
glyphname = bracketleft;
lastChange = "2017-09-27 00:42:17 +0000";
layers = (
{
hints = (
{
horizontal = 1;
origin = "{0, 0}";
target = "{1, 3}";
},
{
horizontal = 1;
origin = "{2, 0}";
target = "{0, 3}";
},
{
origin = "{0, 0}";
target = "{0, 1}";
}
);
layerId = "926D8932-2CBE-4DA1-A7EC-AA50FD678EE5";
paths = (
{
closed = 1;
nodes = (
"250 -400 LINE",
"350 -400 LINE",
"350 1100 LINE",
"250 1100 LINE"
);
},
{
closed = 1;
nodes = (
"350 -400 LINE",
"550 -400 LINE",
"550 -300 LINE",
"350 -300 LINE"
);
},
{
closed = 1;
nodes = (
"350 1000 LINE",
"550 1000 LINE",
"550 1100 LINE",
"350 1100 LINE"
);
}
);
width = 800;
},
{
layerId = "DCFDD359-D3A1-4A9B-975E-26381AFB2AA7";
paths = (
{
closed = 1;
nodes = (
"220 -400 LINE",
"380 -400 LINE",
"380 1100 LINE",
"220 1100 LINE"
);
},
{
closed = 1;
nodes = (
"350 -400 LINE",
"550 -400 LINE",
"550 -250 LINE",
"350 -250 LINE"
);
},
{
closed = 1;
nodes = (
"350 950 LINE",
"550 950 LINE",
"550 1100 LINE",
"350 1100 LINE"
);
}
);
width = 800;
},
{
layerId = "833FD172-3601-4257-8297-A103CE2A393F";
paths = (
{
closed = 1;
nodes = (
"260 1100 LINE",
"260 -400 LINE",
"310 -400 LINE",
"310 1100 LINE"
);
},
{
closed = 1;
nodes = (
"260 1100 LINE",
"260 1050 LINE",
"535 1050 LINE",
"535 1100 LINE"
);
},
{
closed = 1;
nodes = (
"260 -350 LINE",
"260 -400 LINE",
"535 -400 LINE",
"535 -350 LINE"
);
}
);
width = 800;
}
);
unicode = 005B;
},
{
glyphname = bracketright;
lastChange = "2017-09-27 20:13:03 +0000";
layers = (
{
layerId = "926D8932-2CBE-4DA1-A7EC-AA50FD678EE5";
paths = (
{
closed = 1;
nodes = (
"450 1100 LINE",
"450 -400 LINE",
"550 -400 LINE",
"550 1100 LINE"
);
},
{
closed = 1;
nodes = (
"250 -300 LINE",
"250 -400 LINE",
"450 -400 LINE",
"450 -300 LINE"
);
},
{
closed = 1;
nodes = (
"250 1100 LINE",
"250 1000 LINE",
"450 1000 LINE",
"450 1100 LINE"
);
}
);
width = 800;
},
{
layerId = "DCFDD359-D3A1-4A9B-975E-26381AFB2AA7";
paths = (
{
closed = 1;
nodes = (
"420 1100 LINE",
"420 -400 LINE",
"580 -400 LINE",
"580 1100 LINE"
);
},
{
closed = 1;
nodes = (
"250 -250 LINE",
"250 -400 LINE",
"450 -400 LINE",
"450 -250 LINE"
);
},
{
closed = 1;
nodes = (
"250 1100 LINE",
"250 950 LINE",
"450 950 LINE",
"450 1100 LINE"
);
}
);
width = 800;
},
{
layerId = "833FD172-3601-4257-8297-A103CE2A393F";
paths = (
{
closed = 1;
nodes = (
"490 -400 LINE",
"540 -400 LINE",
"540 1100 LINE",
"490 1100 LINE"
);
},
{
closed = 1;
nodes = (
"265 1050 LINE",
"540 1050 LINE",
"540 1100 LINE",
"265 1100 LINE"
);
},
{
closed = 1;
nodes = (
"265 -400 LINE",
"540 -400 LINE",
"540 -350 LINE",
"265 -350 LINE"
);
}
);
width = 800;
}
);
unicode = 005D;
},
{
glyphname = hyphen;
lastChange = "2017-09-27 20:07:04 +0000";
layers = (
{
hints = (
{
horizontal = 1;
origin = "{0, 0}";
target = "{0, 3}";
},
{
origin = "{0, 0}";
target = "{0, 1}";
}
);
layerId = "926D8932-2CBE-4DA1-A7EC-AA50FD678EE5";
paths = (
{
closed = 1;
nodes = (
"100 300 LINE",
"700 300 LINE",
"700 400 LINE",
"100 400 LINE"
);
}
);
width = 800;
},
{
layerId = "DCFDD359-D3A1-4A9B-975E-26381AFB2AA7";
paths = (
{
closed = 1;
nodes = (
"100 270 LINE",
"700 270 LINE",
"700 430 LINE",
"100 430 LINE"
);
}
);
width = 800;
},
{
layerId = "833FD172-3601-4257-8297-A103CE2A393F";
paths = (
{
closed = 1;
nodes = (
"100 325 LINE",
"700 325 LINE",
"700 375 LINE",
"100 375 LINE"
);
}
);
width = 800;
}
);
unicode = 002D;
},
{
glyphname = endash;
lastChange = "2017-09-27 19:18:14 +0000";
layers = (
{
layerId = "926D8932-2CBE-4DA1-A7EC-AA50FD678EE5";
paths = (
{
closed = 1;
nodes = (
"100 300 LINE",
"700 300 LINE",
"700 400 LINE",
"100 400 LINE"
);
}
);
width = 800;
},
{
layerId = "DCFDD359-D3A1-4A9B-975E-26381AFB2AA7";
paths = (
{
closed = 1;
nodes = (
"100 275 LINE",
"700 275 LINE",
"700 425 LINE",
"100 425 LINE"
);
}
);
width = 800;
},
{
layerId = "833FD172-3601-4257-8297-A103CE2A393F";
width = 600;
}
);
unicode = 2013;
},
{
glyphname = emdash;
lastChange = "2017-09-27 19:18:32 +0000";
layers = (
{
layerId = "926D8932-2CBE-4DA1-A7EC-AA50FD678EE5";
paths = (
{
closed = 1;
nodes = (
"100 300 LINE",
"1000 300 LINE",
"1000 400 LINE",
"100 400 LINE"
);
}
);
width = 1100;
},
{
layerId = "DCFDD359-D3A1-4A9B-975E-26381AFB2AA7";
paths = (
{
closed = 1;
nodes = (
"100 275 LINE",
"1000 275 LINE",
"1000 425 LINE",
"100 425 LINE"
);
}
);
width = 1100;
},
{
layerId = "833FD172-3601-4257-8297-A103CE2A393F";
width = 600;
}
);
unicode = 2014;
},
{
glyphname = underscore;
lastChange = "2017-09-27 00:36:35 +0000";
layers = (
{
layerId = "926D8932-2CBE-4DA1-A7EC-AA50FD678EE5";
paths = (
{
closed = 1;
nodes = (
"100 -150 LINE",
"700 -150 LINE",
"700 -50 LINE",
"100 -50 LINE"
);
}
);
width = 800;
},
{
layerId = "DCFDD359-D3A1-4A9B-975E-26381AFB2AA7";
paths = (
{
closed = 1;
nodes = (
"100 -200 LINE",
"700 -200 LINE",
"700 -50 LINE",
"100 -50 LINE"
);
}
);
width = 800;
},
{
components = (
{
name = hyphen;
transform = "{1, 0, 0, 1, 0, -425}";
}
);
layerId = "833FD172-3601-4257-8297-A103CE2A393F";
width = 800;
}
);
unicode = 005F;
},
{
glyphname = quoteleft;
lastChange = "2017-09-28 07:19:16 +0000";
layers = (
{
layerId = "926D8932-2CBE-4DA1-A7EC-AA50FD678EE5";
paths = (
{
closed = 1;
nodes = (
"200 590 LINE",
"300 620 LINE",
"200 1010 LINE",
"50 980 LINE"
);
}
);
width = 400;
},
{
layerId = "DCFDD359-D3A1-4A9B-975E-26381AFB2AA7";
paths = (
{
closed = 1;
nodes = (
"200 590 LINE",
"350 635 LINE",
"275 1025 LINE",
"50 980 LINE"
);
}
);
width = 400;
},
{
layerId = "833FD172-3601-4257-8297-A103CE2A393F";
width = 600;
}
);
unicode = 2018;
},
{
glyphname = guilsinglleft;
lastChange = "2017-09-27 19:12:20 +0000";
layers = (
{
layerId = "926D8932-2CBE-4DA1-A7EC-AA50FD678EE5";
paths = (
{
closed = 1;
nodes = (
"350 100 LINE",
"490 100 LINE",
"240 350 LINE",
"490 600 LINE",
"350 600 LINE",
"100 350 LINE"
);
}
);
width = 600;
},
{
layerId = "DCFDD359-D3A1-4A9B-975E-26381AFB2AA7";
paths = (
{
closed = 1;
nodes = (
"320 100 LINE",
"530 100 LINE",
"280 350 LINE",
"530 600 LINE",
"320 600 LINE",
"70 350 LINE"
);
}
);
width = 600;
},
{
layerId = "833FD172-3601-4257-8297-A103CE2A393F";
width = 600;
}
);
unicode = 2039;
},
{
glyphname = quotedbl;
lastChange = "2017-09-27 00:38:59 +0000";
layers = (
{
layerId = "926D8932-2CBE-4DA1-A7EC-AA50FD678EE5";
paths = (
{
closed = 1;
nodes = (
"200 600 LINE",
"350 600 LINE",
"350 1000 LINE",
"200 1000 LINE"
);
},
{
closed = 1;
nodes = (
"450 600 LINE",
"600 600 LINE",
"600 1000 LINE",
"450 1000 LINE"
);
}
);
width = 800;
},
{
layerId = "DCFDD359-D3A1-4A9B-975E-26381AFB2AA7";
paths = (
{
closed = 1;
nodes = (
"200 600 LINE",
"350 600 LINE",
"350 1000 LINE",
"200 1000 LINE"
);
},
{
closed = 1;
nodes = (
"450 600 LINE",
"600 600 LINE",
"600 1000 LINE",
"450 1000 LINE"
);
}
);
width = 800;
},
{
layerId = "833FD172-3601-4257-8297-A103CE2A393F";
paths = (
{
closed = 1;
nodes = (
"225 600 LINE",
"325 600 LINE",
"325 1000 LINE",
"225 1000 LINE"
);
},
{
closed = 1;
nodes = (
"475 600 LINE",
"575 600 LINE",
"575 1000 LINE",
"475 1000 LINE"
);
}
);
width = 800;
}
);
leftKerningGroup = quote;
unicode = 0022;
},
{
glyphname = quotesingle;
lastChange = "2017-09-27 00:38:32 +0000";
layers = (
{
layerId = "926D8932-2CBE-4DA1-A7EC-AA50FD678EE5";
paths = (
{
closed = 1;
nodes = (
"200 600 LINE",
"350 600 LINE",
"350 1000 LINE",
"200 1000 LINE"
);
}
);
width = 550;
},
{
layerId = "DCFDD359-D3A1-4A9B-975E-26381AFB2AA7";
paths = (
{
closed = 1;
nodes = (
"200 600 LINE",
"350 600 LINE",
"350 1000 LINE",
"200 1000 LINE"
);
}
);
width = 550;
},
{
layerId = "833FD172-3601-4257-8297-A103CE2A393F";
paths = (
{
closed = 1;
nodes = (
"225 600 LINE",
"325 600 LINE",
"325 1000 LINE",
"225 1000 LINE"
);
}
);
width = 550;
}
);
unicode = 0027;
},
{
glyphname = cent;
lastChange = "2017-09-28 07:22:11 +0000";
layers = (
{
layerId = "926D8932-2CBE-4DA1-A7EC-AA50FD678EE5";
paths = (
{
closed = 1;
nodes = (
"100 157 OFFCURVE",
"257 0 OFFCURVE",
"450 0 CURVE SMOOTH",
"547 0 OFFCURVE",
"634 39 OFFCURVE",
"700 100 CURVE",
"630 170 LINE",
"582 128 OFFCURVE",
"519 100 OFFCURVE",
"450 100 CURVE SMOOTH",
"312 100 OFFCURVE",
"200 212 OFFCURVE",
"200 350 CURVE SMOOTH",
"200 488 OFFCURVE",
"312 600 OFFCURVE",
"450 600 CURVE SMOOTH",
"519 600 OFFCURVE",
"582 572 OFFCURVE",
"630 530 CURVE",
"700 600 LINE",
"634 661 OFFCURVE",
"547 700 OFFCURVE",
"450 700 CURVE SMOOTH",
"257 700 OFFCURVE",
"100 543 OFFCURVE",
"100 350 CURVE SMOOTH"
);
},
{
closed = 1;
nodes = (
"400 650 LINE",
"500 650 LINE",
"500 850 LINE",
"400 850 LINE"
);
},
{
closed = 1;
nodes = (
"400 -150 LINE",
"500 -150 LINE",
"500 50 LINE",
"400 50 LINE"
);
}
);
width = 800;
},
{
components = (
{
name = c;
}
);
layerId = "DCFDD359-D3A1-4A9B-975E-26381AFB2AA7";
paths = (
{
closed = 1;
nodes = (
"525 850 LINE",
"525 650 LINE",
"375 650 LINE",
"375 850 LINE"
);
},
{
closed = 1;
nodes = (
"525 50 LINE",
"525 -150 LINE",
"375 -150 LINE",
"375 50 LINE"
);
}
);
width = 800;
},
{
layerId = "833FD172-3601-4257-8297-A103CE2A393F";
width = 600;
}
);
unicode = 00A2;
},
{
glyphname = currency;
lastChange = "2017-09-28 07:12:13 +0000";
layers = (
{
layerId = "926D8932-2CBE-4DA1-A7EC-AA50FD678EE5";
paths = (
{
closed = 1;
nodes = (
"355 21 OFFCURVE",
"545 21 OFFCURVE",
"660 140 CURVE SMOOTH",
"779 255 OFFCURVE",
"779 445 OFFCURVE",
"660 560 CURVE SMOOTH",
"545 679 OFFCURVE",
"355 679 OFFCURVE",
"240 560 CURVE SMOOTH",
"121 445 OFFCURVE",
"121 255 OFFCURVE",
"240 140 CURVE SMOOTH"
);
},
{
closed = 1;
nodes = (
"231 287 OFFCURVE",
"231 413 OFFCURVE",
"310 490 CURVE SMOOTH",
"387 569 OFFCURVE",
"513 569 OFFCURVE",
"590 490 CURVE SMOOTH",
"669 413 OFFCURVE",
"669 287 OFFCURVE",
"590 210 CURVE SMOOTH",
"513 131 OFFCURVE",
"387 131 OFFCURVE",
"310 210 CURVE SMOOTH"
);
},
{
closed = 1;
nodes = (
"590 560 LINE",
"660 490 LINE",
"800 630 LINE",
"730 700 LINE"
);
},
{
closed = 1;
nodes = (
"100 70 LINE",
"170 0 LINE",
"310 140 LINE",
"240 210 LINE"
);
},
{
closed = 1;
nodes = (
"660 210 LINE",
"590 140 LINE",
"730 0 LINE",
"800 70 LINE"
);
},
{
closed = 1;
nodes = (
"170 700 LINE",
"100 630 LINE",
"240 490 LINE",
"310 560 LINE"
);
}
);
width = 900;
},
{
layerId = "DCFDD359-D3A1-4A9B-975E-26381AFB2AA7";
paths = (
{
closed = 1;
nodes = (
"355 20 OFFCURVE",
"545 20 OFFCURVE",
"660 140 CURVE SMOOTH",
"780 255 OFFCURVE",
"780 445 OFFCURVE",
"660 560 CURVE SMOOTH",
"545 680 OFFCURVE",
"355 680 OFFCURVE",
"240 560 CURVE SMOOTH",
"120 445 OFFCURVE",
"120 255 OFFCURVE",
"240 140 CURVE SMOOTH"
);
},
{
closed = 1;
nodes = (
"285 303 OFFCURVE",
"285 397 OFFCURVE",
"345 455 CURVE SMOOTH",
"403 515 OFFCURVE",
"497 515 OFFCURVE",
"555 455 CURVE SMOOTH",
"615 397 OFFCURVE",
"615 303 OFFCURVE",
"555 245 CURVE SMOOTH",
"497 185 OFFCURVE",
"403 185 OFFCURVE",
"345 245 CURVE SMOOTH"
);
},
{
closed = 1;
nodes = (
"575 580 LINE",
"680 475 LINE",
"820 615 LINE",
"715 720 LINE"
);
},
{
closed = 1;
nodes = (
"80 85 LINE",
"185 -20 LINE",
"325 120 LINE",
"220 225 LINE"
);
},
{
closed = 1;
nodes = (
"575 120 LINE",
"715 -20 LINE",
"820 85 LINE",
"680 225 LINE"
);
},
{
closed = 1;
nodes = (
"80 615 LINE",
"220 475 LINE",
"325 580 LINE",
"185 720 LINE"
);
}
);
width = 900;
},
{
layerId = "833FD172-3601-4257-8297-A103CE2A393F";
width = 600;
}
);
unicode = 00A4;
},
{
glyphname = dollar;
lastChange = "2017-09-25 04:12:32 +0000";
layers = (
{
layerId = "926D8932-2CBE-4DA1-A7EC-AA50FD678EE5";
paths = (
{
closed = 1;
nodes = (
"350 -300 LINE",
"450 -300 LINE",
"450 1000 LINE",
"350 1000 LINE"
);
},
{
closed = 1;
nodes = (
"258 400 OFFCURVE",
"180 478 OFFCURVE",
"180 580 CURVE SMOOTH",
"180 672 OFFCURVE",
"258 750 OFFCURVE",
"350 750 CURVE",
"350 850 LINE",
"203 850 OFFCURVE",
"80 727 OFFCURVE",
"80 580 CURVE SMOOTH",
"80 423 OFFCURVE",
"203 300 OFFCURVE",
"350 300 CURVE",
"350 400 LINE"
);
},
{
closed = 1;
nodes = (
"450 -150 LINE",
"597 -150 OFFCURVE",
"720 -27 OFFCURVE",
"720 130 CURVE SMOOTH",
"720 277 OFFCURVE",
"597 400 OFFCURVE",
"450 400 CURVE",
"450 300 LINE",
"543 301 OFFCURVE",
"620 222 OFFCURVE",
"620 130 CURVE SMOOTH",
"620 28 OFFCURVE",
"542 -50 OFFCURVE",
"450 -50 CURVE"
);
},
{
closed = 1;
nodes = (
"556 750 OFFCURVE",
"599 731 OFFCURVE",
"630 700 CURVE",
"700 770 LINE",
"651 819 OFFCURVE",
"584 850 OFFCURVE",
"510 850 CURVE",
"510 750 LINE"
);
},
{
closed = 1;
nodes = (
"150 -120 OFFCURVE",
"217 -150 OFFCURVE",
"290 -150 CURVE",
"290 -50 LINE",
"244 -50 OFFCURVE",
"202 -31 OFFCURVE",
"170 0 CURVE",
"100 -70 LINE"
);
},
{
closed = 1;
nodes = (
"350 750 LINE",
"510 750 LINE",
"510 850 LINE",
"350 850 LINE"
);
},
{
closed = 1;
nodes = (
"290 -150 LINE",
"450 -150 LINE",
"450 -50 LINE",
"290 -50 LINE"
);
},
{
closed = 1;
nodes = (
"350 300 LINE",
"450 300 LINE",
"450 400 LINE",
"350 400 LINE"
);
}
);
width = 800;
},
{
layerId = "DCFDD359-D3A1-4A9B-975E-26381AFB2AA7";
paths = (
{
closed = 1;
nodes = (
"350 430 LINE",
"275 430 OFFCURVE",
"215 490 OFFCURVE",
"215 565 CURVE SMOOTH",
"215 640 OFFCURVE",
"275 700 OFFCURVE",
"350 700 CURVE",
"350 850 LINE",
"190 850 OFFCURVE",
"60 720 OFFCURVE",
"60 560 CURVE SMOOTH",
"60 400 OFFCURVE",
"190 270 OFFCURVE",
"350 270 CURVE"
);
},
{
closed = 1;
nodes = (
"450 270 LINE",
"525 270 OFFCURVE",
"585 210 OFFCURVE",
"585 135 CURVE SMOOTH",
"585 60 OFFCURVE",
"525 0 OFFCURVE",
"450 0 CURVE",
"450 -150 LINE",
"610 -150 OFFCURVE",
"740 -20 OFFCURVE",
"740 140 CURVE SMOOTH",
"740 300 OFFCURVE",
"610 430 OFFCURVE",
"450 430 CURVE"
);
},
{
closed = 1;
nodes = (
"350 -300 LINE",
"450 -300 LINE",
"450 1000 LINE",
"350 1000 LINE"
);
},
{
closed = 1;
nodes = (
"495 700 OFFCURVE",
"585 660 OFFCURVE",
"645 600 CURVE",
"750 705 LINE",
"660 795 OFFCURVE",
"535 850 OFFCURVE",
"400 850 CURVE",
"400 700 LINE"
);
},
{
closed = 1;
nodes = (
"305 0 OFFCURVE",
"215 40 OFFCURVE",
"155 100 CURVE",
"50 -5 LINE",
"140 -95 OFFCURVE",
"265 -150 OFFCURVE",
"400 -150 CURVE",
"400 0 LINE"
);
}
);
width = 800;
},
{
layerId = "833FD172-3601-4257-8297-A103CE2A393F";
width = 600;
}
);
unicode = 0024;
},
{
glyphname = euro;
lastChange = "2017-09-28 07:24:13 +0000";
layers = (
{
layerId = "926D8932-2CBE-4DA1-A7EC-AA50FD678EE5";
paths = (
{
closed = 1;
nodes = (
"50 400 LINE",
"650 400 LINE",
"650 500 LINE",
"50 500 LINE"
);
},
{
closed = 1;
nodes = (
"50 200 LINE",
"650 200 LINE",
"650 300 LINE",
"50 300 LINE"
);
},
{
closed = 1;
nodes = (
"150 74 OFFCURVE",
"374 -150 OFFCURVE",
"650 -150 CURVE SMOOTH",
"684 -150 OFFCURVE",
"718 -147 OFFCURVE",
"750 -140 CURVE",
"750 -35 LINE",
"718 -46 OFFCURVE",
"685 -50 OFFCURVE",
"650 -50 CURVE SMOOTH",
"429 -50 OFFCURVE",
"250 129 OFFCURVE",
"250 350 CURVE SMOOTH",
"250 571 OFFCURVE",
"429 750 OFFCURVE",
"650 750 CURVE SMOOTH",
"685 750 OFFCURVE",
"718 746 OFFCURVE",
"750 735 CURVE",
"750 840 LINE",
"718 847 OFFCURVE",
"684 850 OFFCURVE",
"650 850 CURVE SMOOTH",
"374 850 OFFCURVE",
"150 626 OFFCURVE",
"150 350 CURVE SMOOTH"
);
}
);
width = 800;
},
{
layerId = "DCFDD359-D3A1-4A9B-975E-26381AFB2AA7";
paths = (
{
closed = 1;
nodes = (
"50 400 LINE",
"650 400 LINE",
"650 525 LINE",
"50 525 LINE"
);
},
{
closed = 1;
nodes = (
"50 175 LINE",
"650 175 LINE",
"650 300 LINE",
"50 300 LINE"
);
},
{
closed = 1;
nodes = (
"750 15 LINE",
"720 5 OFFCURVE",
"685 0 OFFCURVE",
"650 0 CURVE SMOOTH",
"455 0 OFFCURVE",
"300 155 OFFCURVE",
"300 350 CURVE SMOOTH",
"300 545 OFFCURVE",
"455 700 OFFCURVE",
"650 700 CURVE SMOOTH",
"685 700 OFFCURVE",
"720 695 OFFCURVE",
"750 685 CURVE",
"750 840 LINE",
"720 845 OFFCURVE",
"685 850 OFFCURVE",
"650 850 CURVE SMOOTH",
"375 850 OFFCURVE",
"150 625 OFFCURVE",
"150 350 CURVE SMOOTH",
"150 75 OFFCURVE",
"375 -150 OFFCURVE",
"650 -150 CURVE SMOOTH",
"685 -150 OFFCURVE",
"720 -145 OFFCURVE",
"750 -140 CURVE"
);
}
);
width = 800;
},
{
layerId = "833FD172-3601-4257-8297-A103CE2A393F";
width = 600;
}
);
unicode = 20AC;
},
{
glyphname = florin;
lastChange = "2017-09-28 19:12:39 +0000";
layers = (
{
layerId = "926D8932-2CBE-4DA1-A7EC-AA50FD678EE5";
paths = (
{
closed = 1;
nodes = (
"400 0 LINE",
"400 700 LINE",
"300 700 LINE",
"300 0 LINE"
);
},
{
closed = 1;
nodes = (
"300 300 LINE",
"300 400 LINE",
"150 400 LINE",
"150 300 LINE"
);
},
{
closed = 1;
nodes = (
"550 300 LINE",
"550 400 LINE",
"400 400 LINE",
"400 300 LINE"
);
},
{
closed = 1;
nodes = (
"400 700 LINE",
"403 757 OFFCURVE",
"448 802 OFFCURVE",
"500 800 CURVE",
"500 900 LINE",
"393 902 OFFCURVE",
"303 812 OFFCURVE",
"300 700 CURVE"
);
},
{
closed = 1;
nodes = (
"600 800 LINE",
"600 900 LINE",
"500 900 LINE",
"500 800 LINE"
);
},
{
closed = 1;
nodes = (
"300 0 LINE",
"297 -57 OFFCURVE",
"252 -102 OFFCURVE",
"200 -100 CURVE",
"200 -200 LINE",
"307 -202 OFFCURVE",
"397 -112 OFFCURVE",
"400 0 CURVE"
);
},
{
closed = 1;
nodes = (
"100 -100 LINE",
"100 -200 LINE",
"200 -200 LINE",
"200 -100 LINE"
);
}
);
width = 700;
},
{
components = (
{
name = _quartercircle_6;
transform = "{1, 0, 0, 1, 100, 0}";
},
{
name = _quartercircle_6;
transform = "{-1, 0, 0, -1, 600, 700}";
}
);
layerId = "DCFDD359-D3A1-4A9B-975E-26381AFB2AA7";
paths = (
{
closed = 1;
nodes = (
"575 750 LINE",
"600 750 LINE",
"600 900 LINE",
"575 900 LINE"
);
},
{
closed = 1;
nodes = (
"275 100 LINE",
"425 100 LINE",
"425 600 LINE",
"275 600 LINE"
);
},
{
closed = 1;
nodes = (
"150 275 LINE",
"555 275 LINE",
"555 425 LINE",
"150 425 LINE"
);
},
{
closed = 1;
nodes = (
"125 -50 LINE",
"100 -50 LINE",
"100 -200 LINE",
"125 -200 LINE"
);
}
);
width = 700;
},
{
layerId = "833FD172-3601-4257-8297-A103CE2A393F";
width = 600;
}
);
unicode = 0192;
},
{
glyphname = sterling;
lastChange = "2017-09-28 07:58:53 +0000";
layers = (
{
layerId = "926D8932-2CBE-4DA1-A7EC-AA50FD678EE5";
paths = (
{
closed = 1;
nodes = (
"100 -150 LINE",
"700 -150 LINE",
"700 -50 LINE",
"100 -50 LINE"
);
},
{
closed = 1;
nodes = (
"100 300 LINE",
"600 300 LINE",
"600 400 LINE",
"100 400 LINE"
);
},
{
closed = 1;
nodes = (
"330 130 LINE",
"330 30 OFFCURVE",
"190 -50 OFFCURVE",
"100 -50 CURVE",
"100 -150 LINE",
"250 -150 OFFCURVE",
"430 -30 OFFCURVE",
"430 130 CURVE"
);
},
{
closed = 1;
nodes = (
"556 750 OFFCURVE",
"599 731 OFFCURVE",
"630 700 CURVE",
"700 770 LINE",
"651 819 OFFCURVE",
"584 850 OFFCURVE",
"510 850 CURVE",
"510 750 LINE"
);
},
{
closed = 1;
nodes = (
"450 750 LINE",
"510 750 LINE",
"510 850 LINE",
"450 850 LINE"
);
},
{
closed = 1;
nodes = (
"280 580 LINE",
"280 670 OFFCURVE",
"360 750 OFFCURVE",
"450 750 CURVE",
"450 850 LINE",
"300 850 OFFCURVE",
"180 730 OFFCURVE",
"180 580 CURVE"
);
},
{
closed = 1;
nodes = (
"430 229 OFFCURVE",
"393 280 OFFCURVE",
"350 360 CURVE SMOOTH",
"305 443 OFFCURVE",
"280 470 OFFCURVE",
"280 580 CURVE",
"180 580 LINE",
"180 470 OFFCURVE",
"202 412 OFFCURVE",
"250 340 CURVE SMOOTH",
"303 260 OFFCURVE",
"330 216 OFFCURVE",
"330 130 CURVE",
"430 130 LINE"
);
}
);
width = 800;
},
{
layerId = "DCFDD359-D3A1-4A9B-975E-26381AFB2AA7";
paths = (
{
closed = 1;
nodes = (
"100 -150 LINE",
"700 -150 LINE",
"700 0 LINE",
"100 0 LINE"
);
},
{
closed = 1;
nodes = (
"100 275 LINE",
"600 275 LINE",
"600 425 LINE",
"100 425 LINE"
);
},
{
closed = 1;
nodes = (
"330 130 LINE",
"330 30 OFFCURVE",
"190 0 OFFCURVE",
"100 0 CURVE",
"100 -150 LINE",
"250 -150 OFFCURVE",
"480 -30 OFFCURVE",
"480 130 CURVE"
);
},
{
closed = 1;
nodes = (
"547 700 OFFCURVE",
"570 690 OFFCURVE",
"595 665 CURVE",
"700 770 LINE",
"651 819 OFFCURVE",
"584 850 OFFCURVE",
"510 850 CURVE",
"510 700 LINE"
);
},
{
closed = 1;
nodes = (
"450 700 LINE",
"510 700 LINE",
"510 850 LINE",
"450 850 LINE"
);
},
{
closed = 1;
nodes = (
"330 580 LINE",
"330 640 OFFCURVE",
"390 700 OFFCURVE",
"450 700 CURVE",
"450 850 LINE",
"300 850 OFFCURVE",
"180 730 OFFCURVE",
"180 580 CURVE"
);
},
{
closed = 1;
nodes = (
"480 229 OFFCURVE",
"443 285 OFFCURVE",
"400 365 CURVE SMOOTH",
"355 448 OFFCURVE",
"330 470 OFFCURVE",
"330 580 CURVE",
"180 580 LINE",
"180 470 OFFCURVE",
"202 412 OFFCURVE",
"250 340 CURVE SMOOTH",
"303 260 OFFCURVE",
"330 216 OFFCURVE",
"330 130 CURVE",
"480 130 LINE"
);
}
);
width = 800;
},
{
layerId = "833FD172-3601-4257-8297-A103CE2A393F";
width = 600;
}
);
unicode = 00A3;
},
{
glyphname = yen;
lastChange = "2017-09-27 02:09:37 +0000";
layers = (
{
layerId = "926D8932-2CBE-4DA1-A7EC-AA50FD678EE5";
paths = (
{
closed = 1;
nodes = (
"400 250 LINE",
"750 850 LINE",
"630 850 LINE",
"400 450 LINE",
"170 850 LINE",
"50 850 LINE"
);
},
{
closed = 1;
nodes = (
"350 -150 LINE",
"450 -150 LINE",
"450 400 LINE",
"350 400 LINE"
);
},
{
closed = 1;
nodes = (
"150 50 LINE",
"650 50 LINE",
"650 150 LINE",
"150 150 LINE"
);
},
{
closed = 1;
nodes = (
"150 250 LINE",
"650 250 LINE",
"650 350 LINE",
"150 350 LINE"
);
}
);
width = 800;
},
{
components = (
{
name = Y;
}
);
layerId = "DCFDD359-D3A1-4A9B-975E-26381AFB2AA7";
paths = (
{
closed = 1;
nodes = (
"200 250 LINE",
"700 250 LINE",
"700 350 LINE",
"200 350 LINE"
);
},
{
closed = 1;
nodes = (
"200 50 LINE",
"700 50 LINE",
"700 150 LINE",
"200 150 LINE"
);
}
);
width = 900;
},
{
layerId = "833FD172-3601-4257-8297-A103CE2A393F";
width = 600;
}
);
unicode = 00A5;
},
{
glyphname = plus;
lastChange = "2017-09-27 20:19:39 +0000";
layers = (
{
hints = (
{
horizontal = 1;
origin = "{0, 0}";
target = "{0, 3}";
},
{
origin = "{1, 0}";
target = "{1, 1}";
}
);
layerId = "926D8932-2CBE-4DA1-A7EC-AA50FD678EE5";
paths = (
{
closed = 1;
nodes = (
"100 300 LINE",
"700 300 LINE",
"700 400 LINE",
"100 400 LINE"
);
},
{
closed = 1;
nodes = (
"350 50 LINE",
"450 50 LINE",
"450 650 LINE",
"350 650 LINE"
);
}
);
width = 800;
},
{
components = (
{
name = hyphen;
},
{
name = hyphen;
transform = "{0, -1, 1, 0, 50, 750}";
}
);
layerId = "DCFDD359-D3A1-4A9B-975E-26381AFB2AA7";
width = 800;
},
{
components = (
{
name = hyphen;
},
{
name = hyphen;
transform = "{0, -1, 1, 0, 45, 750}";
}
);
layerId = "833FD172-3601-4257-8297-A103CE2A393F";
width = 800;
}
);
unicode = 002B;
},
{
glyphname = minus;
lastChange = "2017-09-27 02:10:57 +0000";
layers = (
{
layerId = "926D8932-2CBE-4DA1-A7EC-AA50FD678EE5";
paths = (
{
closed = 1;
nodes = (
"100 300 LINE",
"700 300 LINE",
"700 400 LINE",
"100 400 LINE"
);
}
);
width = 800;
},
{
components = (
{
name = hyphen;
}
);
layerId = "DCFDD359-D3A1-4A9B-975E-26381AFB2AA7";
width = 800;
},
{
layerId = "833FD172-3601-4257-8297-A103CE2A393F";
width = 600;
}
);
unicode = 2212;
},
{
glyphname = multiply;
lastChange = "2017-09-27 08:44:33 +0000";
layers = (
{
layerId = "926D8932-2CBE-4DA1-A7EC-AA50FD678EE5";
paths = (
{
closed = 1;
nodes = (
"190 65 LINE",
"685 560 LINE",
"610 635 LINE",
"115 140 LINE"
);
},
{
closed = 1;
nodes = (
"610 65 LINE",
"685 140 LINE",
"190 635 LINE",
"115 560 LINE"
);
}
);
width = 800;
},
{
layerId = "DCFDD359-D3A1-4A9B-975E-26381AFB2AA7";
paths = (
{
closed = 1;
nodes = (
"595 50 LINE",
"700 155 LINE",
"205 650 LINE",
"100 545 LINE"
);
},
{
closed = 1;
nodes = (
"100 155 LINE",
"205 50 LINE",
"700 545 LINE",
"595 650 LINE"
);
}
);
width = 800;
},
{
layerId = "833FD172-3601-4257-8297-A103CE2A393F";
width = 600;
}
);
unicode = 00D7;
},
{
glyphname = divide;
lastChange = "2017-09-27 02:11:30 +0000";
layers = (
{
layerId = "926D8932-2CBE-4DA1-A7EC-AA50FD678EE5";
paths = (
{
closed = 1;
nodes = (
"100 300 LINE",
"700 300 LINE",
"700 400 LINE",
"100 400 LINE"
);
},
{
closed = 1;
nodes = (
"325 550 LINE",
"475 550 LINE",
"475 700 LINE",
"325 700 LINE"
);
},
{
closed = 1;
nodes = (
"325 0 LINE",
"475 0 LINE",
"475 150 LINE",
"325 150 LINE"
);
}
);
width = 800;
},
{
components = (
{
name = hyphen;
}
);
layerId = "DCFDD359-D3A1-4A9B-975E-26381AFB2AA7";
paths = (
{
closed = 1;
nodes = (
"325 550 LINE",
"475 550 LINE",
"475 700 LINE",
"325 700 LINE"
);
},
{
closed = 1;
nodes = (
"325 0 LINE",
"475 0 LINE",
"475 150 LINE",
"325 150 LINE"
);
}
);
width = 800;
},
{
layerId = "833FD172-3601-4257-8297-A103CE2A393F";
width = 600;
}
);
unicode = 00F7;
},
{
glyphname = equal;
lastChange = "2017-09-27 20:07:11 +0000";
layers = (
{
hints = (
{
horizontal = 1;
origin = "{1, 0}";
target = "{1, 3}";
},
{
horizontal = 1;
origin = "{0, 0}";
target = "{0, 3}";
},
{
origin = "{1, 0}";
target = "{1, 1}";
}
);
layerId = "926D8932-2CBE-4DA1-A7EC-AA50FD678EE5";
paths = (
{
closed = 1;
nodes = (
"100 450 LINE",
"700 450 LINE",
"700 550 LINE",
"100 550 LINE"
);
},
{
closed = 1;
nodes = (
"100 150 LINE",
"700 150 LINE",
"700 250 LINE",
"100 250 LINE"
);
}
);
width = 800;
},
{
components = (
{
name = hyphen;
transform = "{1, 0, 0, 1, 0, 150}";
},
{
name = hyphen;
transform = "{1, 0, 0, 1, 0, -150}";
}
);
layerId = "DCFDD359-D3A1-4A9B-975E-26381AFB2AA7";
width = 800;
},
{
components = (
{
name = hyphen;
transform = "{1, 0, 0, 1, 0, 150}";
},
{
name = hyphen;
transform = "{1, 0, 0, 1, 0, -150}";
}
);
layerId = "833FD172-3601-4257-8297-A103CE2A393F";
width = 800;
}
);
unicode = 003D;
},
{
glyphname = notequal;
lastChange = "2017-09-28 19:21:15 +0000";
layers = (
{
components = (
{
name = equal;
}
);
layerId = "926D8932-2CBE-4DA1-A7EC-AA50FD678EE5";
paths = (
{
closed = 1;
nodes = (
"331.68 -100 LINE",
"576.48 800 LINE",
"468.32 800 LINE",
"223.52 -100 LINE"
);
}
);
width = 800;
},
{
components = (
{
name = equal;
}
);
layerId = "DCFDD359-D3A1-4A9B-975E-26381AFB2AA7";
paths = (
{
closed = 1;
nodes = (
"360 -100 LINE",
"605 800 LINE",
"440 800 LINE",
"195 -100 LINE"
);
}
);
width = 800;
},
{
layerId = "833FD172-3601-4257-8297-A103CE2A393F";
width = 600;
}
);
unicode = 2260;
},
{
glyphname = greater;
lastChange = "2017-09-27 20:08:08 +0000";
layers = (
{
layerId = "926D8932-2CBE-4DA1-A7EC-AA50FD678EE5";
paths = (
{
closed = 1;
nodes = (
"250 800 LINE",
"110 800 LINE",
"560 350 LINE",
"110 -100 LINE",
"250 -100 LINE",
"700 350 LINE"
);
}
);
width = 800;
},
{
layerId = "DCFDD359-D3A1-4A9B-975E-26381AFB2AA7";
paths = (
{
closed = 1;
nodes = (
"290 800 LINE",
"70 800 LINE",
"520 350 LINE",
"70 -100 LINE",
"290 -100 LINE",
"740 350 LINE"
);
}
);
width = 800;
},
{
layerId = "833FD172-3601-4257-8297-A103CE2A393F";
width = 600;
}
);
unicode = 003E;
},
{
glyphname = less;
lastChange = "2017-09-25 07:33:48 +0000";
layers = (
{
layerId = "926D8932-2CBE-4DA1-A7EC-AA50FD678EE5";
paths = (
{
closed = 1;
nodes = (
"550 -100 LINE",
"690 -100 LINE",
"240 350 LINE",
"690 800 LINE",
"550 800 LINE",
"100 350 LINE"
);
}
);
width = 800;
},
{
layerId = "DCFDD359-D3A1-4A9B-975E-26381AFB2AA7";
paths = (
{
closed = 1;
nodes = (
"510 -100 LINE",
"730 -100 LINE",
"280 350 LINE",
"730 800 LINE",
"510 800 LINE",
"60 350 LINE"
);
}
);
width = 800;
},
{
layerId = "833FD172-3601-4257-8297-A103CE2A393F";
width = 600;
}
);
unicode = 003C;
},
{
color = 0;
glyphname = greaterequal;
lastChange = "2017-09-25 00:58:25 +0000";
layers = (
{
layerId = "926D8932-2CBE-4DA1-A7EC-AA50FD678EE5";
paths = (
{
closed = 1;
nodes = (
"100 100 LINE",
"100 0 LINE",
"700 0 LINE",
"700 100 LINE"
);
},
{
closed = 1;
nodes = (
"590 500 LINE",
"180 740 LINE",
"130 660 LINE",
"490 450 LINE",
"130 240 LINE",
"180 160 LINE",
"590 400 LINE",
"680 450 LINE"
);
}
);
width = 800;
},
{
layerId = "DCFDD359-D3A1-4A9B-975E-26381AFB2AA7";
width = 600;
},
{
layerId = "833FD172-3601-4257-8297-A103CE2A393F";
width = 600;
}
);
unicode = 2265;
},
{
color = 0;
glyphname = lessequal;
lastChange = "2017-09-25 00:58:25 +0000";
layers = (
{
layerId = "926D8932-2CBE-4DA1-A7EC-AA50FD678EE5";
paths = (
{
closed = 1;
nodes = (
"100 0 LINE",
"700 0 LINE",
"700 100 LINE",
"100 100 LINE"
);
},
{
closed = 1;
nodes = (
"213.75 395.507 LINE",
"620 160 LINE",
"670 240 LINE",
"307.75 450 LINE",
"670 660 LINE",
"620 740 LINE",
"213.75 504.493 LINE",
"119.75 450 LINE"
);
}
);
width = 800;
},
{
layerId = "DCFDD359-D3A1-4A9B-975E-26381AFB2AA7";
width = 600;
},
{
layerId = "833FD172-3601-4257-8297-A103CE2A393F";
width = 600;
}
);
unicode = 2264;
},
{
glyphname = plusminus;
lastChange = "2017-09-27 19:46:24 +0000";
layers = (
{
layerId = "926D8932-2CBE-4DA1-A7EC-AA50FD678EE5";
paths = (
{
closed = 1;
nodes = (
"100 450 LINE",
"700 450 LINE",
"700 550 LINE",
"100 550 LINE"
);
},
{
closed = 1;
nodes = (
"100 0 LINE",
"700 0 LINE",
"700 100 LINE",
"100 100 LINE"
);
},
{
closed = 1;
nodes = (
"350 200 LINE",
"450 200 LINE",
"450 800 LINE",
"350 800 LINE"
);
}
);
width = 800;
},
{
layerId = "DCFDD359-D3A1-4A9B-975E-26381AFB2AA7";
paths = (
{
closed = 1;
nodes = (
"100 425 LINE",
"700 425 LINE",
"700 575 LINE",
"100 575 LINE"
);
},
{
closed = 1;
nodes = (
"100 -50 LINE",
"700 -50 LINE",
"700 100 LINE",
"100 100 LINE"
);
},
{
closed = 1;
nodes = (
"325 200 LINE",
"475 200 LINE",
"475 800 LINE",
"325 800 LINE"
);
}
);
width = 800;
},
{
layerId = "833FD172-3601-4257-8297-A103CE2A393F";
width = 600;
}
);
unicode = 00B1;
},
{
glyphname = asciitilde;
lastChange = "2017-09-26 23:43:23 +0000";
layers = (
{
layerId = "926D8932-2CBE-4DA1-A7EC-AA50FD678EE5";
paths = (
{
closed = 1;
nodes = (
"200 350 LINE",
"203 407 OFFCURVE",
"248 452 OFFCURVE",
"300 450 CURVE",
"300 550 LINE",
"193 552 OFFCURVE",
"103 462 OFFCURVE",
"100 350 CURVE"
);
},
{
closed = 1;
nodes = (
"497 462 OFFCURVE",
"407 552 OFFCURVE",
"300 550 CURVE",
"300 450 LINE",
"352 452 OFFCURVE",
"397 407 OFFCURVE",
"400 350 CURVE",
"500 350 LINE"
);
},
{
closed = 1;
nodes = (
"403 238 OFFCURVE",
"493 148 OFFCURVE",
"600 150 CURVE",
"600 250 LINE",
"548 248 OFFCURVE",
"503 293 OFFCURVE",
"500 350 CURVE",
"400 350 LINE"
);
},
{
closed = 1;
nodes = (
"700 350 LINE",
"697 293 OFFCURVE",
"652 248 OFFCURVE",
"600 250 CURVE",
"600 150 LINE",
"707 148 OFFCURVE",
"797 238 OFFCURVE",
"800 350 CURVE"
);
},
{
closed = 1;
nodes = (
"100 200 LINE",
"200 200 LINE",
"200 350 LINE",
"100 350 LINE"
);
},
{
closed = 1;
nodes = (
"700 350 LINE",
"800 350 LINE",
"800 500 LINE",
"700 500 LINE"
);
}
);
width = 900;
},
{
layerId = "DCFDD359-D3A1-4A9B-975E-26381AFB2AA7";
paths = (
{
closed = 1;
nodes = (
"100 200 LINE",
"240 200 LINE",
"240 350 LINE",
"100 350 LINE"
);
},
{
closed = 1;
nodes = (
"660 350 LINE",
"800 350 LINE",
"800 500 LINE",
"660 500 LINE"
);
},
{
closed = 1;
nodes = (
"190 560 OFFCURVE",
"100 460 OFFCURVE",
"100 350 CURVE",
"240 350 LINE",
"240 380 OFFCURVE",
"273 410 OFFCURVE",
"310 410 CURVE SMOOTH",
"350 410 OFFCURVE",
"380 380 OFFCURVE",
"380 350 CURVE",
"520 350 LINE",
"520 460 OFFCURVE",
"430 560 OFFCURVE",
"310 560 CURVE SMOOTH"
);
},
{
closed = 1;
nodes = (
"710 140 OFFCURVE",
"800 240 OFFCURVE",
"800 350 CURVE",
"660 350 LINE",
"660 320 OFFCURVE",
"630 290 OFFCURVE",
"590 290 CURVE SMOOTH",
"553 290 OFFCURVE",
"520 320 OFFCURVE",
"520 350 CURVE",
"380 350 LINE",
"380 240 OFFCURVE",
"470 140 OFFCURVE",
"590 140 CURVE SMOOTH"
);
}
);
width = 900;
},
{
layerId = "833FD172-3601-4257-8297-A103CE2A393F";
width = 600;
}
);
unicode = 007E;
},
{
glyphname = logicalnot;
lastChange = "2017-09-27 19:17:02 +0000";
layers = (
{
layerId = "926D8932-2CBE-4DA1-A7EC-AA50FD678EE5";
paths = (
{
closed = 1;
nodes = (
"100 300 LINE",
"700 300 LINE",
"700 400 LINE",
"100 400 LINE"
);
},
{
closed = 1;
nodes = (
"600 100 LINE",
"700 100 LINE",
"700 300 LINE",
"600 300 LINE"
);
}
);
width = 800;
},
{
layerId = "DCFDD359-D3A1-4A9B-975E-26381AFB2AA7";
paths = (
{
closed = 1;
nodes = (
"100 275 LINE",
"700 275 LINE",
"700 425 LINE",
"100 425 LINE"
);
},
{
closed = 1;
nodes = (
"550 100 LINE",
"700 100 LINE",
"700 300 LINE",
"550 300 LINE"
);
}
);
width = 800;
},
{
layerId = "833FD172-3601-4257-8297-A103CE2A393F";
width = 600;
}
);
unicode = 00AC;
},
{
glyphname = infinity;
lastChange = "2017-09-28 19:18:12 +0000";
layers = (
{
background = {
paths = (
{
closed = 1;
nodes = (
"110 488 OFFCURVE",
"223 600 OFFCURVE",
"360 600 CURVE SMOOTH",
"498 600 OFFCURVE",
"610 488 OFFCURVE",
"610 350 CURVE SMOOTH",
"610 213 OFFCURVE",
"498 100 OFFCURVE",
"360 100 CURVE SMOOTH",
"223 100 OFFCURVE",
"110 213 OFFCURVE",
"110 350 CURVE SMOOTH"
);
}
);
};
layerId = "926D8932-2CBE-4DA1-A7EC-AA50FD678EE5";
paths = (
{
closed = 1;
nodes = (
"110 488 OFFCURVE",
"223 600 OFFCURVE",
"360 600 CURVE SMOOTH",
"429 600 OFFCURVE",
"492 572 OFFCURVE",
"540 530 CURVE",
"470 460 LINE",
"439 483 OFFCURVE",
"402 500 OFFCURVE",
"360 500 CURVE SMOOTH",
"278 500 OFFCURVE",
"210 433 OFFCURVE",
"210 350 CURVE SMOOTH",
"210 268 OFFCURVE",
"278 200 OFFCURVE",
"360 200 CURVE SMOOTH",
"401 200 OFFCURVE",
"439 217 OFFCURVE",
"470 240 CURVE",
"540 170 LINE",
"491 128 OFFCURVE",
"429 100 OFFCURVE",
"360 100 CURVE SMOOTH",
"223 100 OFFCURVE",
"110 213 OFFCURVE",
"110 350 CURVE SMOOTH"
);
},
{
closed = 1;
nodes = (
"1190 213 OFFCURVE",
"1077 100 OFFCURVE",
"940 100 CURVE SMOOTH",
"871 100 OFFCURVE",
"809 128 OFFCURVE",
"760 170 CURVE",
"830 240 LINE",
"861 217 OFFCURVE",
"899 200 OFFCURVE",
"940 200 CURVE SMOOTH",
"1022 200 OFFCURVE",
"1090 268 OFFCURVE",
"1090 350 CURVE SMOOTH",
"1090 433 OFFCURVE",
"1022 500 OFFCURVE",
"940 500 CURVE SMOOTH",
"899 500 OFFCURVE",
"861 483 OFFCURVE",
"830 460 CURVE",
"760 530 LINE",
"808 572 OFFCURVE",
"871 600 OFFCURVE",
"940 600 CURVE SMOOTH",
"1077 600 OFFCURVE",
"1190 488 OFFCURVE",
"1190 350 CURVE SMOOTH"
);
},
{
closed = 1;
nodes = (
"760 530 LINE",
"470 240 LINE",
"540 170 LINE",
"830 460 LINE"
);
},
{
closed = 1;
nodes = (
"540 530 LINE",
"470 460 LINE",
"760 170 LINE",
"830 240 LINE"
);
}
);
width = 1300;
},
{
layerId = "DCFDD359-D3A1-4A9B-975E-26381AFB2AA7";
paths = (
{
closed = 1;
nodes = (
"450 265 LINE",
"430 240 OFFCURVE",
"395 225 OFFCURVE",
"360 225 CURVE SMOOTH",
"291 225 OFFCURVE",
"235 281 OFFCURVE",
"235 350 CURVE SMOOTH",
"235 419 OFFCURVE",
"291 475 OFFCURVE",
"360 475 CURVE SMOOTH",
"394 475 OFFCURVE",
"426 461 OFFCURVE",
"450 440 CURVE",
"555 545 LINE",
"505 595 OFFCURVE",
"435 625 OFFCURVE",
"360 625 CURVE SMOOTH",
"208 625 OFFCURVE",
"85 502 OFFCURVE",
"85 350 CURVE SMOOTH",
"85 198 OFFCURVE",
"208 75 OFFCURVE",
"360 75 CURVE SMOOTH",
"437 75 OFFCURVE",
"507 107 OFFCURVE",
"555 160 CURVE"
);
},
{
closed = 1;
nodes = (
"745 545 LINE",
"450 265 LINE",
"555 160 LINE",
"850 440 LINE"
);
},
{
closed = 1;
nodes = (
"555 545 LINE",
"450 440 LINE",
"745 160 LINE",
"850 265 LINE"
);
},
{
closed = 1;
nodes = (
"793 107 OFFCURVE",
"863 75 OFFCURVE",
"940 75 CURVE SMOOTH",
"1092 75 OFFCURVE",
"1215 198 OFFCURVE",
"1215 350 CURVE SMOOTH",
"1215 502 OFFCURVE",
"1092 625 OFFCURVE",
"940 625 CURVE SMOOTH",
"865 625 OFFCURVE",
"795 595 OFFCURVE",
"745 545 CURVE",
"850 440 LINE",
"874 461 OFFCURVE",
"906 475 OFFCURVE",
"940 475 CURVE SMOOTH",
"1009 475 OFFCURVE",
"1065 419 OFFCURVE",
"1065 350 CURVE SMOOTH",
"1065 281 OFFCURVE",
"1009 225 OFFCURVE",
"940 225 CURVE SMOOTH",
"905 225 OFFCURVE",
"870 240 OFFCURVE",
"850 265 CURVE",
"745 160 LINE"
);
}
);
width = 1300;
},
{
layerId = "833FD172-3601-4257-8297-A103CE2A393F";
width = 600;
}
);
unicode = 221E;
},
{
glyphname = emptyset;
lastChange = "2017-09-25 00:58:25 +0000";
layers = (
{
components = (
{
name = o;
transform = "{1, 0, 0, 1, 20, 0}";
}
);
layerId = "926D8932-2CBE-4DA1-A7EC-AA50FD678EE5";
paths = (
{
closed = 1;
nodes = (
"110 30 LINE",
"170 -30 LINE",
"890 670 LINE",
"830 730 LINE"
);
}
);
width = 1000;
},
{
layerId = "DCFDD359-D3A1-4A9B-975E-26381AFB2AA7";
width = 600;
},
{
layerId = "833FD172-3601-4257-8297-A103CE2A393F";
width = 600;
}
);
unicode = 2205;
},
{
glyphname = integral;
lastChange = "2017-09-28 19:12:26 +0000";
layers = (
{
layerId = "926D8932-2CBE-4DA1-A7EC-AA50FD678EE5";
paths = (
{
closed = 1;
nodes = (
"400 -100 LINE",
"400 800 LINE",
"300 800 LINE",
"300 -100 LINE"
);
},
{
closed = 1;
nodes = (
"400 800 LINE",
"403 857 OFFCURVE",
"448 902 OFFCURVE",
"500 900 CURVE",
"500 1000 LINE",
"393 1002 OFFCURVE",
"303 912 OFFCURVE",
"300 800 CURVE"
);
},
{
closed = 1;
nodes = (
"600 900 LINE",
"600 1000 LINE",
"500 1000 LINE",
"500 900 LINE"
);
},
{
closed = 1;
nodes = (
"300 -100 LINE",
"297 -157 OFFCURVE",
"252 -202 OFFCURVE",
"200 -200 CURVE",
"200 -300 LINE",
"307 -302 OFFCURVE",
"397 -212 OFFCURVE",
"400 -100 CURVE"
);
},
{
closed = 1;
nodes = (
"100 -200 LINE",
"100 -300 LINE",
"200 -300 LINE",
"200 -200 LINE"
);
}
);
width = 700;
},
{
components = (
{
name = _quartercircle_6;
transform = "{1, 0, 0, 1, 100, 100}";
},
{
name = _quartercircle_6;
transform = "{-1, 0, 0, -1, 600, 600}";
}
);
layerId = "DCFDD359-D3A1-4A9B-975E-26381AFB2AA7";
paths = (
{
closed = 1;
nodes = (
"575 850 LINE",
"600 850 LINE",
"600 1000 LINE",
"575 1000 LINE"
);
},
{
closed = 1;
nodes = (
"275 0 LINE",
"425 0 LINE",
"425 700 LINE",
"275 700 LINE"
);
},
{
closed = 1;
nodes = (
"125 -150 LINE",
"100 -150 LINE",
"100 -300 LINE",
"125 -300 LINE"
);
}
);
width = 700;
},
{
layerId = "833FD172-3601-4257-8297-A103CE2A393F";
width = 600;
}
);
unicode = 222B;
},
{
glyphname = product;
lastChange = "2017-09-28 19:22:45 +0000";
layers = (
{
layerId = "926D8932-2CBE-4DA1-A7EC-AA50FD678EE5";
paths = (
{
closed = 1;
nodes = (
"200 -300 LINE",
"300 -300 LINE",
"300 1000 LINE",
"200 1000 LINE"
);
},
{
closed = 1;
nodes = (
"700 -300 LINE",
"800 -300 LINE",
"800 1000 LINE",
"700 1000 LINE"
);
},
{
closed = 1;
nodes = (
"100 900 LINE",
"900 900 LINE",
"900 1000 LINE",
"100 1000 LINE"
);
}
);
width = 1000;
},
{
layerId = "DCFDD359-D3A1-4A9B-975E-26381AFB2AA7";
paths = (
{
closed = 1;
nodes = (
"200 -300 LINE",
"350 -300 LINE",
"350 1000 LINE",
"200 1000 LINE"
);
},
{
closed = 1;
nodes = (
"650 -300 LINE",
"800 -300 LINE",
"800 1000 LINE",
"650 1000 LINE"
);
},
{
closed = 1;
nodes = (
"100 850 LINE",
"900 850 LINE",
"900 1000 LINE",
"100 1000 LINE"
);
}
);
width = 1000;
},
{
layerId = "833FD172-3601-4257-8297-A103CE2A393F";
width = 600;
}
);
unicode = 220F;
},
{
glyphname = summation;
lastChange = "2017-09-28 19:43:42 +0000";
layers = (
{
layerId = "926D8932-2CBE-4DA1-A7EC-AA50FD678EE5";
paths = (
{
closed = 1;
nodes = (
"100 900 LINE",
"700 900 LINE",
"700 1000 LINE",
"100 1000 LINE"
);
},
{
closed = 1;
nodes = (
"100 -300 LINE",
"700 -300 LINE",
"700 -200 LINE",
"100 -200 LINE"
);
},
{
closed = 1;
nodes = (
"190 -260 LINE",
"481.607 242.462 LINE",
"544.018 350 LINE",
"481.607 457.538 LINE",
"190 960 LINE",
"100 900 LINE",
"419.196 350 LINE",
"100 -200 LINE"
);
}
);
width = 800;
},
{
layerId = "DCFDD359-D3A1-4A9B-975E-26381AFB2AA7";
paths = (
{
closed = 1;
nodes = (
"700 -300 LINE",
"700 -150 LINE",
"285 -150 LINE",
"575 350 LINE",
"285 850 LINE",
"700 850 LINE",
"700 1000 LINE",
"100 1000 LINE",
"100 850 LINE",
"390 350 LINE",
"100 -150 LINE",
"100 -300 LINE"
);
}
);
width = 800;
},
{
layerId = "833FD172-3601-4257-8297-A103CE2A393F";
width = 600;
}
);
unicode = 2211;
},
{
glyphname = radical;
lastChange = "2017-09-29 00:50:40 +0000";
layers = (
{
layerId = "926D8932-2CBE-4DA1-A7EC-AA50FD678EE5";
paths = (
{
closed = 1;
nodes = (
"100 400 LINE",
"240 -150 LINE",
"380 -150 LINE",
"700 1050 LINE",
"610 1050 LINE",
"310 -30 LINE",
"190 400 LINE"
);
},
{
closed = 1;
nodes = (
"650 950 LINE",
"900 950 LINE",
"900 1050 LINE",
"650 1050 LINE"
);
}
);
width = 800;
},
{
layerId = "DCFDD359-D3A1-4A9B-975E-26381AFB2AA7";
paths = (
{
closed = 1;
nodes = (
"75 400 LINE",
"215 -150 LINE",
"405 -150 LINE",
"725 1050 LINE",
"590 1050 LINE",
"310 30 LINE",
"210 400 LINE"
);
},
{
closed = 1;
nodes = (
"650 900 LINE",
"900 900 LINE",
"900 1050 LINE",
"650 1050 LINE"
);
}
);
width = 800;
},
{
layerId = "833FD172-3601-4257-8297-A103CE2A393F";
width = 600;
}
);
unicode = 221A;
},
{
glyphname = partialdiff;
lastChange = "2017-09-25 00:58:25 +0000";
layers = (
{
layerId = "926D8932-2CBE-4DA1-A7EC-AA50FD678EE5";
paths = (
{
closed = 1;
nodes = (
"640 0 OFFCURVE",
"800 160 OFFCURVE",
"800 350 CURVE SMOOTH",
"800 540 OFFCURVE",
"640 700 OFFCURVE",
"450 700 CURVE SMOOTH",
"260 700 OFFCURVE",
"100 540 OFFCURVE",
"100 350 CURVE SMOOTH",
"100 160 OFFCURVE",
"260 0 OFFCURVE",
"450 0 CURVE SMOOTH"
);
},
{
closed = 1;
nodes = (
"310 100 OFFCURVE",
"200 210 OFFCURVE",
"200 350 CURVE SMOOTH",
"200 490 OFFCURVE",
"310 600 OFFCURVE",
"450 600 CURVE SMOOTH",
"590 600 OFFCURVE",
"700 490 OFFCURVE",
"700 350 CURVE SMOOTH",
"700 210 OFFCURVE",
"590 100 OFFCURVE",
"450 100 CURVE SMOOTH"
);
},
{
closed = 1;
nodes = (
"800 350 LINE",
"803 622 OFFCURVE",
"726 879 OFFCURVE",
"600 1100 CURVE",
"480 1100 LINE",
"618 884 OFFCURVE",
"699 627 OFFCURVE",
"700 350 CURVE"
);
}
);
width = 900;
},
{
layerId = "DCFDD359-D3A1-4A9B-975E-26381AFB2AA7";
width = 600;
},
{
layerId = "833FD172-3601-4257-8297-A103CE2A393F";
width = 600;
}
);
unicode = 2202;
},
